<mxfile host="app.diagrams.net" agent="Mozilla/5.0 (X11; Linux x86_64; rv:133.0) Gecko/20100101 Firefox/133.0" version="24.9.2">
  <diagram name="Page-1" id="vNIgMX_SSKbVrhW1Lgju">
    <mxGraphModel dx="2497" dy="1020" grid="1" gridSize="10" guides="1" tooltips="1" connect="1" arrows="1" fold="1" page="1" pageScale="1" pageWidth="850" pageHeight="1100" math="0" shadow="0">
      <root>
        <mxCell id="0" />
        <mxCell id="1" parent="0" />
        <mxCell id="4vHGeXPCpyXIEonWAy2c-4" value="" style="shape=image;verticalLabelPosition=bottom;labelBackgroundColor=default;verticalAlign=top;aspect=fixed;imageAspect=0;image=data:image/png,iVBORw0KGgoAAAANSUhEUgAAAeAAAAHgCAYAAAB91L6VAAAABHNCSVQICAgIfAhkiAAAIABJREFUeF7sXQVgFNfTn7grCQRJcHcrUtxpCy1tqRuUUuru1N3t369u1GiRUqUFWqBoi7u7BkKEuH8ze7eXvbdv9SR3l33tktu3u7PzZubNb5/NCwJOmjp1KuTk5DiuJCUlwUcffcS5U1+WRc+Snz5Lsd1VB+xlPJY0UTxCQ0OTq6ur6TyejqqqqnA8j8bfMXiE45GARzAeYorDH6GSc/pZgUc+/QgKCqI/VXjk4c+y6mooQnoFeF5GeXicxSOXOajC/4KHLNUBfTiV2Sqv5a9klUAlwxV7EWqqNLlCjKVF5xY9y5h5dqGU54/28u2330JBAeEbXIhHUzzS8Whi/1sf/zbEI5ZuYJMdLJ2yESzZ23Sfu5EeFegE0jsdHBx8FP8eweMYHoeQv7nl5eW6eZLe6I/6tRof+lVt6deYv3cCYEt4xoTHmqUlv8CVX2xsLFRUVMRXVlZegQDUCo+W2FJtQX/RDqhFaji5ESyFd9cCPWpJ78Njr+TvZ/ib+wVh1Y/ArR9kf5Z+jevXAcCW8IwLj4xOTJb8Akp+1N17Cx4d8ehAfxHcUiTqFn76SEtV4KUWwJcVB3uehRlb8dhBfyMjI79OTEw8O3DgQOE+a1iLFZf6ueVfAsq/OJQtALCl3MBUrqhlS7+q+r0A5dQNj+72oznrCn0Q3JxY9DP+9mOX9ibsSViPhdiAx2+svLXOLXtWtWct8Vn+3ofmNAVZxmwZs2aNldwQAPZyFxanp/2g1q1q8jNwE8rihy3zE8j2OvvxBv6lrm1uCgD745ZLKdMqb2D756CJEyc6dG91CylVA36+VTl8t3L8888/NJP/orKysgGoPer3pBZuGF+T/FwLfGsNzGmGF7WQl+HxDx7C7GyrvvlufSP9WPhBUtCfyJ4dAGwJT7/g6E7LGfiWM8jIyICTJ09egl2bQ6urqwbhROKO2BKULt0xpGALfGsNfHl6qkJ9bMGu62UhISF/p6Wl/ThmzBhraSRPUgp5lr/yLX8l6kMAYAt8FaxWIdsyZp8y5qnolMfjjOQRqK4IUWV+2A2rYG3ybOvjACpQv/+iZKhl/LJcQuo5Vv31qfpbpxszwRb4qldW9qpVeWu98lKwirfxOIRHNYLRhwi+5+NvC3xZY9Vx7qdgTkFIzsXjJbIBPE7iMQOPmvE0hbJb9bfW66+TZuq6PmSBOBTslptd14VnfbxwzUIx0wV7eQiJjsGDnK5jHNdPwUNRPloXrPLq6han8ePlePyBxytSmbpgf1zVWPQsMOcahkImz15MAzCPmBUxRkHynGxLfpqVl0D3Ojy4M5UtMNIFRhzLs2XVIfltxxLPiomJeeq8885zyMP6eFY0De4Fy19p+iuu3MRMJfmZAmAlYqocqFy06HlGuSoiV71Ui/qgJULUjUgtXcVUh8BDkIFVXvd8bGBc7B3BwSFzMCjI4/bQoYo2pnahFuuHGluOaxZ//uNPDQOwpVz/Ua6u2srcVAv6FUG3P2GNFs8WGLkHjKRyrqMT1oSWMR5Padmc9Hot1A8j7NXpCU0kKH/r2dB0eJbxWbtCGfIAkpt5zsq+ccG9eNsVePQ2QtsCXwt8PWQv/yHdmXi8qUafZ8/WsJuaxJyvWfKTN950A7AlPLnw9Jte3V43fPr0aVi1atWY0tLSq1Bml+IRZUR2dK8Fvhb4GrEZk/ZC2zX+hMdXeDhtzWj5P8v/GbE/vfaiC4D1EtPLoEWvbhjzwoULaZu+JzA4xg3Yzdlcr32w95l0piwZx3lt0QsOCYHYpGSIS07Bv/UgDn/HJteD+JRU/I3n+Ds6IQnCwm0rqqIT4oUPDzqPiIkTfkfFxQHRCQkNg8gY2w6HpUWFUFFO2AFQmEvb/OLmwHhO+dS9XJx/FirLK4S8wtwzUIB7fefnZONv/JudJRwFeJ6fTdeyoby0RFF2dKG25KfKlOSim/jbjyQ/iY6OfvGaa66x9ke39oPXa36GhgE0AdgCy7oBlqJ1uTqGMmTIEFi5cuWFCLqTcX0uTTsNrQtjjOT0ExukQWp6czyaQv2mzSGF/mY0h8S0hgK4xiYmq1ZiklNVZYVtZat4J9bQ4JBQLuipEsOLZukRcBMYZ584CqePHLIdhw/i3wNw5shhyDp+FAG9Zj/gANdvBUbg+j00NPTTHj16/Ny5c2crApeW4UmuW/ihjh+qAGwJT114WnZYl+QXFRUFuEn7s9TaRbnQZvRCCiTnHBQcjIDaDDI6dIEGzVsKQJvSpKnwt16TdKGl6m2wFOXM/jULviwd8VxKr6qqEnJPnoDTRw9B1rEjkIUgfWL/HjiyYysc37vLCZyV6FG+m1qqjld4gd4RlAPtd/yUWrmUrtUlf0AysMqrjR+KAGwJT1t4ShWtDhrfDHR+V2K5KUKRI/kz+EbFxUNa81bQuE17aN6lBzTv2h2aduwqdPt6EtwcwquFlq+SPRspb2VFBZzYtxuO7d4BR3dthwOb1wu/T2MLWmoPXgBLT378VaGsfsdjnJLM2HzLn1r+lLUJOucCsGUslrHwjIXJI+dDs5mH+LkzhcT6DaB1r37QomtPSG/fSThSmmRwRWAEjLgEmMy6Qq8g5wwc3r4Vjy1wEEF5z7rVkHmQhlltyY8/1hZjCV7HQ3FfY8ufWv5UyRfIANgyFstYlIzFnk/RqShKlRChyh/BNxW7kdv07g9t+/QX/lIrl1cOVg51BSzFcnu6vHlZp2D/xnVwcOtG2LN2Fez6d6XmBDBWJzy91RKY70Xe/ocHxSl3JMufWv6UtVnpuRMAW8ZiGYuKsRDo3olHI/EeH3J+XLaJv5CwMEhv1wla9+4DbRFsOwwYCvH1Urn3q2V6GoyEd/tpt7Oa3MRreuRHE7sO79giAPHuNSth+4qlwgxtpeSj9ncK+X0/Li7uqSuvvNKaPW3NnlYyXyHfAcAW+Frgq2Ap72P+9Xg4rd31UecnFCGjYxfoMmQEHiOhdc++wpKdug5uCrrlZusBS+6DCplm6dFzh7Ztgs1/L4CNf/8Je7HbmsaYKfmy/dn5K8LZ0zMwBvUto0eP9rsITQqqVMy28MMcfggAbAnPnPBEawxQ+VFX2s14OLb5E8vra84vIjoGOpw7GHqMOh+6DEVnh8uBhE3qHAx7fymP5O1OP82CkUUPhHXNW5ctho0Lf4fNS/6EM8ePOcRSS93OXLUw9aMcgfiHsLCwa0pK1NdXc4lhZoD6F6Xi1qnyBlnKtcCXqQm0xyrFZ47k1RBfAV9aZ9t95HnQY+QF0K7fAAgNC7dmJ5PC6lA3Ns2s3rBoPraOf4ddq3H8uKyUZ7KqeV60Z4qU8gUe9FGrO1n+ObD9c9DEiTV7WLsahMEyFr82FprJeQseimEiveisZA6K3k0zlfuOvxTOuWACJKU5hqKFe62WJQqhDoGvoHRJeYvO5sH6Bb/C6p9nw5YlixyRwWSGJMmoJXsuQhb+D48H1Hija5Y/9Wt/qqVeQb8OALbAV1NeTjcEUOV4Cgt2Dx7xahKoJWclzFDuM+4SGHDp1dCgWQsuixb4oljqMPiyRlF0NhfW/fkr/PvLHEUwri17lvBaiL9p1vTDLP90HkD+hVc8WV5dLa8AwBb4yuxBNSNAjOUpLKQm8JIgvO2smnXuLrR06aAlQ2rJAl9SkDXGrWQjtP54ze8/Yct4ljCruqqy0uv2rMSbPT8P/76BxzPifQHiXzSKXXO5LpdXGAO2ttTSbSuB8GU6DUv7LB4pekrtLfBt2LINDJh4NfQddymktWilhzWr25mkZIGvLluhm2jd8Zpf58KKuTNx3fFqx3M+MoHrNDI0HWOpf5SaWrNMzmoc6VavcKO/gbljGZKxYtru9rfC1nFjDkatbcCji15dexp8KXYyTaQadu1N0HHgUG7LRIlXq+WLkrHAV8k8ZPmsvVC4zGWzv4Z/Zn4FZ88Q9hlPnqgfONVhZ1hY+APjx4//tY77K8MK8Uc8Mg3A/ljYOtzSn4HWfK0Ri/aEcxHf30ho7V4DQ66eZAXF0KEUFjyERyzw1SE52y1q8qMtGtfjePHfX38C23CJk97WsCfrB3GNS5d+w6VLF1hLl/Sp2V/xyBQA+2th9alSfpc/lvenn36CzMzMp7A0FMGKu6RIXlJbjiecS1hEJHQfMRaGXDUZo1ENFoJj8N6jxJOYr+ZM/YXe2byzcPrEccjBLtGsEyeErtHcU5lw9vRJKMbZvGW43rUYJxKVFRZAeXEhlBcVQTXuQFRWcNYhHi2goF2ZwnAP4ciERGEv4YhYPOg8JgZiklIgDvcgTm7YEOqlNsS4140gtUEjqNeggZb4ZdcDQR9ioU7u3wtLvvsc/vl+BuSdpoBW/MSzMy198CnZclXo0dKlD/CgZYG6kz/6q7raODIMwJZyfXtqfEFBAcyfP/9GrK3P4YERKYwlFWdgjJD9btrYYPi1N0LfCy+D6LiEOtFywwBOkJefDwd27oDjuE3fqUO4p+7h/XDm0H7IxT11i7P1d3m6Wx9q9EJwLXV84wxIadEWGrRsCw1btob0Vq0ho3U7SK0vD98ZSOArNW4KibkOlzQt+vJDoVUsTWryM1NBdNI7gbQfxeMLrXdY/tm3/TM7rGAIgC3l+rZyf/nllyDsslqLlbSHVkXlXdfpDHiPyvI6Dx4GY6feDR0x9rKDbgB2m1Yg2B7ctw/2bNoIR7ZvhuO7t8LpXdsg79ghWpysu0tTJkDMcKc+iL4r9CLikyCtU3dI79JT2J6xLW7P2CS9CdDEAkcKQP3SRhG/v/8WrP5lNlTZw2BKi+yhlq/0FdLfVLd7K120/LNv+2cWfEmPugHYUq7vKnfFihXU3fxuZWXlrahTJ5+oVFnZfFecs0iLNj7oNWY8nH/LPdCsc7eADAeZk18EOzZtgF1rVsEB3MHn+Kb/oPjMKZfAjdWFUDFxNg6bvOzs2dc7nRN/BMoNOnaDFj36YTSygdCxT19IjInS71TsFP2hJZ2DQwY0Trzw8w+gMC9H4LyW9EFBVj/GwymiluWffdc/k63wwJfy5bWccplkKdd3lYtjvReWl5e/i84gndWb3nNXnX0kji8OvuI6BN57cVyxMa61xID5ARKLOa+kAjav/Q+2Lv0L9i5fBKe2rsOWULmTaF2VH6snf6UXguP8Dbv2gZZ9B2HPx2Do3PsciI+UhRJ3Kq4/gK/UnksK83GM+Gv445N3IevoYVZ1us7dpF/qlr4dj7mWf/Zd/0wGoQS+dE0TgC3l+qZy//rrL8jLy/u6qqrq6lr6EofU9KYw/LqpeEyB6PjEgFiXW1QJsH//AViPMYZ3L1sER//7B8rR6SolNzlTB/lAohcWFQNNB4yEjiPOh9643Cw9LQVCJR7H38BXUJK9m52GFygO9U/vvIy7NP2rZB6yfHfrNyQk5Dfc+vCCkSNHCu9Sc/YyZjgZlr/3rr9XBWBLGd5VBqc+OGWRPo4cOQKLFi26qaKi4mWqb7UBvrQRwsX3TYf+E67A2cyhAo/+6kyDcLZwYVUwbNu8GdbN/wl2LZgHZ3Zt0VKFcN3dzjSQ6QUFB0MDbB23HXEB9Bw1Dtq0bQPRQYHRU7Jp8QKY/crTsH8jDdEqJw/qNzs0NPTBiy666NNZs2YpM6BxxfL33vf3igBsKcP7ylCrH6SP7777DoqKihZiq3cE3ett8K3XqAmcN+0eGH79TUBBNMTkb+BbRbOUsaW7ZeNGWI+Ta/YunAdnjx5UE7/smgedqZNcZS/WmeHr/KW06QQdxl0J54yfCC2bNoKYEP8Pp7n1n79h5vOPwYHN62Va8pI+/sEXD5a9XEeG5e9rx99zAdhSRu0oQ6me9OvXD9asWXMvTrJ6Gu+Jpfu8Cb7x9VIReO+GMTfdDrSeV5r8CXwLEHQPZWbBqrnfw9YfZ0D2nm1KIlfN95IzVeVB7aI/8Uct44Y9B0DH8VdCv3EXQ0ZKAkQamEboa/ZH/GzA/YqpRXxo2yZBTV7WRzG+kvwE9ZDpSpa/rz1/LwNgSxm1pwxebYmPj4fCwsLl2Oo9V7zuLfCNS04RZjSPnnIbhEfKdyn0NefHyo/4K8OlI6fKgrCLeQus+er/YO/vP0BFqbmN0Ym+l50pWyTNc3/mjyZxtR57GQycei+069geUsMAQmQeqkYEvmx/1VVV8C/GnSYgPolrwaXJS/X3P3xnHy2Dsfx97fp7J/O2lFG7ymArS3h4+BU4w/l9zE8Ur3mj8sYmJsOoG2+F826+C6Li+LsU+rLzI1kVV1bDcZxRtebvRbDhszfg2BrqnfNuzwGrT/bcn8GSLYuec93lxSVOzYacB71uegC69OkPjSKrIYppFfu6/Yn8VVdWwRqcWzD7lacg8+B+r/ZcoU5o9uD9eHzE04/l72vf3zsA2FJG7StDrCQJCQmAEa1mYav3UmnF8TT4hmIkJALeCfc8IsxqVkq+7PzycV7PIWzgbsVN2de8+zRkblnjKIan5ackL16+bjDiPczJC1R6DXv0hx4IxD1wFnXjyCCIC7EFN/G3pW4VFWWw6IuPYN5bL0IRhhs1mlzU70x835XSd1r+3jf8vQDAljJ8QxmkC5pUXFkZtB9/NpdWGE+DR6dBw+DaZ16HJm07SF8r++2r4Hu2MgiOIPBuX7UcVr/6sBPwUiE8LT+ZoFQyXHSmMsp1gV5qxx7Q/4GXoF3/wdA0rBxicdKWI6EXo9jXPDnIhMVkeNueC3KzYe7rzwkBPWhvYj2JVy4T9kyLlpvhUW35e9/x98J+wDk5tsguZAzWOjI9VaLmHjfL7ymsbNORutS9eBQ8aB/ea55+FboNH6NZcG87K02G8IZCbPEeLAmCQ/v3wapXH4IDf/0ie8yEs3LQcJPzs+hJtOKKPqhrut/9L0LzVq0gHecDxmCL2F/AV2qYx/bshG+efABoCZNacrP9VeO64ffatWt3R4cOtg9ty9+rSV9+zc3+HoImTpzoeIulDLnA1XLcrIy1WNl6su9zxVmpVd6YhCQYd/v9MPbmO4G6nrWSr4FveRV1NQfByaJy2PjFW/Df/56FqrJSWTE8JT/Zi3RkqOlDx+OyW+oqvWDcSavLdXfAObc+Bg0SYqAZzg+MMDBzmgTpK/a8fsFv8NUT9+GGHQe8pl+ceL4uKiqm11VXXQV1dRcimbB1ZLjZ3ws9zw4AtsBXhwYkt7hRGTch2bfQmUazHHgCPChwxojrp8LF9z8ONNlKT/IVZyXyeqzU1t18bMNqWPzYTZCzfxe3+9ET8tMjL949dRUspbJwtz7iM1rC8Jc+g8bd+wqt4Ubh1WgHPOk75/maPZfjrPz5H70rRNUqKbBFXfOCvRSgHGibw8+0JSa/w43+TyBeV+kJAGyBr9zA1HLcaCyf43tu8EJlE774O5w7GG544W1o3Ka9WvGcrvmSsyrEcd69uMrxbGkFrHv/RVj3wYtC3GlvyU+30JgblfhLbZgATZrWg6SUWEhIisEjGhKS6W8MJOLfeDyfcsE7stcq0ZPdiBmf/HIn5JwpgLzsQsi1H/Q7L6cIzwsgKzMfMo/nohyxS0GS3A2WnqIXFBICPaY8AL1vmw6xkeHQMqoa4m3B2Xji8JmWL4+53MyT8M3TD8KqeT/ILntKfviiT/GYInuhSoYb/Z/wlrpMTxgDtrohVKyNueRGY6EAsucYcaZ6uOTRo6VEl9z/BIzGGc4U+EBv8iXwPYzdzdTyzT95DP68+wo4uXG1UAxeeT3orPSKznFfk2Yp0KZjI6C/jRBsG+PRpDkeeB4RiQtdNVKXeIq3X5OMlnfz2f8pvoHkVInLtcrxg+bYoTNwZP9p3FrxFBw9kAWH8ffhvafg5LFcQ3MQjPKnyJz9gl56FOZy9FszIS6tMS5bAmiKS5fYxrAv2TOv3CJ/mxcvhC8fuws3ezgi3OYFe96Ar9G1hakb/Z9QtrpOj7VRnl0o5tV14ZnsOSAEpJ1M6ut1LooKYC7w6NHkqsmvvCfsUmQk+YqzKsWG2Z6iIMjDyVYn1q+EP++6AoqyTgpF4ZXXC86KK8bQsBBo1b4htO3cBNp1aQJtOjVC4G0MMXGSyGHYPxqCkSV4fHOJYqYUgHnPaZVXCYBF8EXvXvNqDn8lxWW4/eJR2LL2oHBs/u8AnDhaM2lTyrcZ/pTKbUa/UcmpMOqNb6BxnyEQjdMY20RXCyEuKfmKPSuVl+WvrKQI5r39Evz+wdu6Z0uztA3q4ww+fwkeS1k64rnl790/e9o0AFvKMKWMh9CYn8cjxGDlUKoTjnyWXmL9+nDts29Cn3FUp4wl1hkIT9fCUo9s3PVvL4JvOWLErp++hsWPT4Oq8jIbO5zBPi0wUpMCKz+6V41eRFQYdO3dHHoNaA3nDGoDnXo2hfCImo0pqGWpBW5q/IjXRAA2yp/4PA+A9YKvEn+nT+bB1nWHbIC85iBsWnMAynDbRjapyY+9lz03W16aoDX0uQ+h7YXXQDDabEsE4dTQar/dIvPQ1o3w8b3T4CD+NZJMyo/WRT2Hx1Psuyx/b8rfO8SoJD9TAKxEjFWa3vM6Qm82ykNAQ5OVQ1GcUnr0m3YpuuaZV4FCSRpNvgK+J3BC84HiIGFb4U0z3oEVLz3gADRPyk+UFw88CGQHje4EvQe2hs69mjkAVypjV8GN1RcBsCvlZQHY3fwRvaKCUlizbA8sW7gdVi7cAcePnFH9eGHLyJ67Ul6BFtaBvvc8iwE8HhT4aBhaAc0i0JJEb1cLH5NsGcVzPfWtsrwcfv/wbZjz6jNQzpnpz9J2WX4AtJZvvEi3jvhnhxi9WV7DAOxN5ljD0nPuo/xR1H9h4Z0bKoeTGKT0GuA2gTe8+C50Gjyc+x4t+elxBlo0pNfN0CPA3YvAe8q+omjt+y/Af+885SDrSfmJL+GBL137YN5t0H+Y8gQ2T4Bbt8Q7ZSJX4k92I2ZIAdgT/PFa+gd3n4TlCMbLFmyDDav3Q0W5voATxL879XvOHU9Cz6kPCmJJwOH2tjhBKwQHgPxx3TCVIfPAPvjkgVtg+wrFXmJ3ym83hsJte8MNN1hxIj7iRvIU7EoraeGR/hk5+CYtYlrMsNfrAD1aZE3rCjwKvuS0xky9A55b+J9fgy+56e0FNeC7eca7PgO+rO2y5x4DN+ZFRsBX+qjH+OOMIbfq0AhuuGsEfPrbXfDn1mdYUSmeuxN86SVr/vcMbPz8TeF9eTicsQ2HM6qC/SNiFk9IDZq3hEd/+EMInMPuSkb3u1l+bTAO/dkvvvjiMpEXk3NeHEWpA/7eSW16yqsbgPUQ4xmNUl4doEdr7CgGq7B9oJsrh4NeQmp9uOfz2XDl9BcgMiaW+x4lHYj5ZlqqajTN0CPw3VkYBLn2ocTdv3wHy1+iOPK25Cn5Scvh0+CGjPo0f5wJXCTbqNiafaOlsmZ/e0q/q996Avb+OUd4XWF1KGwtDBbmFBhJZuxZjb4r9GgVw9ipd8LzC1ZDRscujtd4SH5xCMIzf/zxx2ct8FXTqPyaXnzTBcB6icnZ4OfUAXq0g9FbeAjy9VDlgJ6jx8ELi/6DrsNG+W23GsmHwHcHtnxzsZVC6fT2DbDkiWm1PuZr40b9X6+0LJEFfwRfdcnVXPVU/RDegC30xdNvhlPbNgj1EDfIgq1oaxRJTU9yBSx59N1Fj9byP/PbMrjgtvuw7jtFrrUX2+BXhoRZRh9BuA/5dFyqSuuFTaU64O+d5GKkvJoAbISYHu3UAXq/oxwQPWzJE86F9ua9+slX4M6PvoXYpHp+Db40y2o3tnxpmRGl0rxs+OOOiVBRQvuKe+7jxfY2278+DW7Ioln+qHS8MVqjS6FEWbn7Y8Nb+iVbWnj/NVCWb9uFiEB4B3ZHa41MuwsspfJz5y5OoeERcNnDT8P9M+ZBUlqaw6RdsRcVfzUZX7DQ8RKdP+qAv3eShNHyqgKwUWJaOqkD9GhB+1hRDirGrCUq7nWi17xLD3j2j5UwavItwqxOf51QIhZwHwbYoOVGYlr+wn2Qf/ywcOoJ+bGCNeus3A1GSvTM8ueQH2eMlidXVi7suRJ/ZsHc2/o9e/QgLH3mDkexaNvK3dgSFqbZc5Kvg6+Uv04Dh8Iz81dCd9yy0WV7YWTB0BuBl7dwxMXNqgP+3qncZsqrCMBmiHG1YM+sA/QobE03UQY8J+dK5QjGsZ+Rk6fB9B8XQlrzVgEBvsdw+8CTkv0TDi75DXb9/I0gQnfLr02nxpDRsr6TiZrVh7vBSI2eWp1SuyaTn8IYrRoN8Zoaf7L36CHoAf3y+GD1u+fXmXB4ec3uQ9kIwocxuhqb6Dl3tlS9QS++Xirc+8UcmPbOpxARHcMWSfNcj/zsRDrh3+NaBOuAv3cSgdnycgHYLDElpQQ4vQuw3AV4NBHLb8CYlUTmlJ+c1gge/v43uObJV3G/YNy5KABavgXY/yd1flUV5ba1vlhyd8ovJjYS7nt+Anzz1/3QOKNm8wnWOetSBN5kBIyOHz4Dv/2wBmb872/44dPl8O+SXbiO07nj0wg9vTzK5GeBr0N0y5672xHMhTKP4kegOPeAzr0Blp6svwMnXgPPzl+hua+31JZk9mKXg4q9NcRrZ/Fw9PZJ7w1wfy8TiyvllYUtd4WYjDPMCHB6tJPR/+HhkKMJY+aJzZHXts8AuO29LyCxvn2MJwDAlyBoF85GrZJ0j+6Y8wXkHdrrVvDt3q8lPPf+NdAw3XnXJ0+D7/qV++Dtp3+GDav2yXQbG4/j97cMgUl3j4Co6HC3jtHSy2T2Z4Gvkw7Ixnb+OAM6XGbbf4B6oPfguvOuuK9wWJD/tXx5YE4TtJ7GCVof3zcNVv80S2aD0gyZveBFnfUjDm+lgB202uM9kWaA+3uZLF0tr1ML2FViLHcBTu9lLC+t0PYY+I6echs8PPPXgAJfspEDOAGmpKpm8K26shLWffiSHDzwXp3OwMn0gjEG4bSHx8LHP9/hNvClF1TTzFmNMdVPXvsTJp8H1kvDAAAgAElEQVT3Fhd8iUbB2WL48OX5cPXQV+HwvtOa9JwKpnHCc6Zmx2i90jIXxKkwCGsvK/VgPPH2lRCXgJv+MolXXi16RGLdRy8D9biIqQz1egDn/PlbtzMPfMUy0ZLEOz74Gq5+6hWgLUh5yaz8JLRo+jXt9vEC5QW4v5eJ0B3ldQCwO4hJOQxwem9jWW0hduyFdoMxO8RHs5ynvvEBXP3Eyxi83155AqDlSwWkyS+nyp3H3Q4u+R0KTx6VGbgeZ8o+RK3K12bcCFMfHAsExI6ELUFXEum3Wjpjh9Oy/Pr/FsM7z/wCVZKPC6V37t+VCbde8j7k4raAQuLQU3qWl69kf7x83vPSPF8BX7tY4NJJ58LMfx4CCvAhJl659NpL/rFDcGjpHw5a9Nzp4gqnrmg1cNMjP18B8/Nuvgsem/0nfsQ3cGLbFflxyv9ISEjIh7t373ZcstYNc6TEyRIAOMDBUlZsF8tLG1g7xQd0pzFTtJunflkCAy69pobvAAFfKhDNepY6Svq9Y7Z8iaFeZypVLnXvfvLrnTDkPAxQwGmpygxBZ4ZMvxywPLgnE16f/qMuiiK9owez4I3p8zwGvrqYYW7ige/xw9nwv2d/gcsHvgz9m+Deuw3ugQu6Pw3P3PUdbMLdkdQS0ZPJDx8wqt/05inwxR93Q/uu6W6ht/PHLwW2BT5wT2lKFHtcSAFU36g4NIz13J+roXWvvrbicT5GjerDJii7uJBeVVXV1GXLln27f/9+a395qXA0fge7CEYy8gFOj3bKnsQaHysEs8bcfcQYePqXpTiBomMNyQByBqew16/Qvt6XCkhyqijMh6OrFzuJ0Iz8omMi4P25t0D7bhlc8OWBAKs33rnsOQ740nMfv7YA/bh2dAeW3vxZa3Av3iwuqPD4YfNYenTdjPzE56TrhqklT93lE/o8B5+9uRB2bj4qdKGXFpcL3eezP18B1454HR644TMoyMfZTEwiPqpoVyhOPpun55y6od/9fho0aJzodLuZ8h5e9ieUFxc6wJcIlqD6yEb9fWkfT5ZJOJFz+txFGLjjXtllM/ITiUjtD0H4yo0bN/6wbt062Tv0ZgQ4fsjEEJyTU7O3p9VtIJOPNIOaNxTb2ZHc5fyIDkW0ufvTHyA6XuJcAgh8qff2WEnNlAOh0mPL4+i/S6CytMZ5m3EGJL+n37saOvZo5lHwxZ18ufv50mYDi3/brGo8dJFnL5WVVbD4V+1necR59MzIj2jTc1LwpfPHb/kaPnzlD9nMbZaXP+euh+tHvQH5ebbgKVJ60o4IMZ99Xs+5yF9yaiw8/+F1DlmaLW8l7ip0/L+lslcfq6BVBvaWsOyqcgbx4SvdzjwuiT8q1mUPPQPT3v4EwqOihdvMyo+e5dkfRs2aiAD8K48Hrby6Br5UXodHtMBX1TwW4dWLpHfwjM+MMdNkCVq/RxFtgoIkc+ICCXxRcFkVFAbQ1hoS5GTv9svc9K9DrGbkRw9PvHEgDB+PS7Cl3l6hpaqqZclFnn5JPbx86qKllqFa4j0nlpdalkaTGj2jtIgPNmLWl+/8BfNnr9VNas+24/Do1BnC/Tx6Yr5ugpIbWXrd+7aA8Vf1cRk8Tqxb4cwOzrcoxVbwGduW07pZJf58HXyl/PW76HJ4dNYfQHHkzSYN+zsf6RqKmlUXwZcav4LHt8BX1QyX49Xh0js0jE+VmPRiYoM0eGzOAiGWs1NEngADXypzpt2pScGX8rP3bRdEYhZ8E5Ki4dZHzvM4+BJ/PL0T72dO04ZXyon3nLS8WadoSaX+pEVPPyU+WGafLoBPXq8JWKGX3tL5W2DFou0yMKfnzeqXnmU/DqgpN/XB0Ti7V/LBqpdJvE+UX87+HTVPIfiK+Zll+lvA/ga+QoGxeC279xbGhZt27GpAcrZbddrfCLx7mR7idRV8STbBFviqmshqvHqu9A6dxqdKlC42adcRJ1v9gxWAJgxJbg9A8C3F8tF2cCz4UqnzDuxxyTlfdE1fiE+ULFHxQMtXCzwqK5SjCuuxF944qZIB6aGn9CybT+Xigdv8OWuhqFASoox9UOV8zucrnT6GaBmUlvxUyOF4LIIsp2ejSbMUGDBSMldCjYjkmlR+ZHtCkoAvneZV0jI5bYL+Cr7iGDeNCz8x7y9sAIzWLqz9DoP2NwAfUx0QrsvgSyINxl0udAufvTHAhUcDc32kZTZofKy4HOedBw9Hw/8bkhvisooAB18q9GlsUQhBN+zdzlLBlOTVzEFQFJjCBdLH0PPb1VzVAN8g6bIkDk0t/YZgOFAjSYueEVp0rzvpKYEvASZF7DKTiL/V0mfxPDY+EiIiw8yQE8qbWE/YzdOWGP2OvEjYZlt3YuVXght/sOBLxEg2Z3DIRC35O/iKZYuMjYP7cAhs0OXXqRVXuMbKj/J0fFz1wNu4kxwCHD9k8uSV15hHkZDkEQsgMF+DRe0slaBJ45MpYfAV1wu7l0TGYLzWOgC+JIDsMj74kvMrKzDW/SoKVNRHvaTtUFGOjlQDfOm55BSJM2c0o0e/yakU/Edf0kNPHyXbXe6kpwa+9J6Tx3KNsCbcK/JXWFACebk4Hi7RR/M2zmtQ9RAX6bUQn2X0W156Atq0PaSHlBN/0gdK889yQYXuyVYZBw4U8BVlERIWBje/9TFc+8zrQPsN85KL9ke+lDaqcaQAxw+ZCJXKy5e27HHnDCViGo8pXvYxekuR0V5SZl00PoEU0bj4vulw0xsfopHj13UdAd9yXMpSwMQ/FgRi7/bT8QUtVYVDlmJmdXUx5J/5C8pLdpHPV03SQA7SG/XoNyIqDNJbpKjSFy/qoaeLEN5EkaDM0qNn2aQFvnR/EWdJEUtHes7yV4QgLI3ANfT8mo3j1eiI16T0Bo9F3y0FX2ydFudvQZ0vgdg4aSVSpszyR3eSHNRsLx+7oTkrqIRn9E64Ckfv2gD/aRsdAl1iQ6BXvO2g35RH13wp/OWYm24XomeFRTjbjZL8lCXOvUIb1axMTU214k4kJYHYWDUMwD4GljJNu8jffCQ4SErUHcYXhvt2Tnv3MwGA9VZeWcE4GUacAedxWZYn6OUh+EpjPgsvlYy5hUUrt0plDGIGq48jGEMwOLgKis9uQKe8FOVrjyzFeXjYBV1kz7P06DGeYx4wogNERuESFY2kl54GGeEy8ZHWxHnNq5iv5/mGks0nxOd4Y75mw1USTV55g7EbW5p/5dRBCJbyjwFeGaTPNUqvB2Mn9nKAeWVlAZw9s1AAYPqCPbRXWdcibR5/on7DY5R7NOgeitomTXrrBwFvs6hg6BobCk0jgyEhNAgi8aM7GGc/0UG/KS8jIgg64/SFlnhvhOiJa3kOSJ9xlwgzpOOSbR+bavLj6U8jr192dtZff//9t+O2uj4HyRAAuwhuMt34GD0KLD5GyqQ7jI/GWB767lc49+Ir6xz40sdGUQXTSmEmvETZK7rMODgZPH0s//uMo+VbXnoc8k79BqWFFBJP3jpq2qo+jL6EhqRsiUePB74U0nLqg06mweGOD0Y8etyHmUx6jsCyzxDJGDeVisbSdaZ+Q2ueFekhgZqndXTbq71KSX5sPo3jPvKa0xJ6LlnpczTD+Ym3L8cNK8IQsioRdDfDWdRtRVmW49lli3DoQSWxfNCtUvlF4RZ+aqmwqqZLRS/4JoUFCa3d+mEEtcrJpg9EeFRHMpa1Iz5Dz/pCEJA2vfth0I6FkJxGmx45JyP2xz5L+qiqgmEHDhz4edeuXdbqGxSQbgD2MbBkdetqt8Z3SJC2FXQkrcorY4CTQUE1HkbwbddvYJ0EX3IuxRInxpvwkpDRiiM5eZaSPn79PhPX4NY0Vaqry6Ewb60AxDROyKYHX7wEW5VJ3JabknOZcv9oIQSiUqLnlPhTekYtXwqWE3CWtzATGJMSfzxa9MzF1/d3POeNlq8af+Ou7AP3PjfBOT63hHGp/MIjQoXAKn2HtYMK/KjKPfU7AvBWLH/NbHPS+S+oe6WkRx8JGS2VHhfyi+yv0wu+adj0bR0VIrRy1ZIUfMX7QhCc2sZFQFoE7W9gLOnlTy9VotewZWsE4b+gQdPmjsfU9KtFW6oPjJg1btu2bXOlsaO1nmevBwoe6QLgQCksq0T7+cf49wrpNT2VV4GWIzs+JRUNeAG06tmnzoIvCaNYXM7BtHxFQSW31l5KoqaPfHTEn7x1WKaOyoqz2CW9GAqyl0Flec2konr14+B/s27BvYHrOT2j5Fxo68BbH6W4AvwkOD/O5gtK9PhUanJtzhm/XOwt1ZbtGwqbERild+VNg6BluzThudoGX7F0N9w5HD6cdzu06dTYSQxS/XbDIBufY8znMRe3Rt0thvxsGlag7badE+mcdM9LavYivb9eG6d5ljJStBRJ0C/N3pd2PHC6ian1moHdzVrJpg85Pdp0hfimLusk7J7Wm/TyZ4ZeSpMMeHT2AqDtDY3an/R9PH1gxKwJS5Ys+UIvX9L7AgmP+PtUSUobSIXlKJv2sZyiZSxGjY92Hnnk+/nQuG0HXZWXwxc3y5OVzfFCjnPhMsPJ5PFXXo0EQ0K4LUQi0ajXubDhk1c51GxZvMrL6uOn705C73MT4dzhyTI6ZSVHoKzkKIbeS8eZ552wzyceaGbtjL/ug49e/gPmzlgBZaVyR96sdQO4++kLgcaNlZLNmcq7hFn+lJ5n8x30mG7iB164GGizB73Lg/oObQv3PT/Bp8BXLGufIW3hh+UPw7b1h2DV3zsh83gumkeIMNZNXebN24RBWdF2yM+i1q1ctkRn2cJsIJ3zkh57EZ9r2MPWQ8CjQ3nlCMB6wJfGfGkcVyvZ9KsMvuLzLaKDYUtBJdA2iWqJV9+o8e3ObmwKFvTorD/hpSvPh8PbuKuJ1Fjk1ntJ/bgeH6avq9tViUguBhoeqX5qBVphGSXTfr5u31IwNb2pYLCpGc10VV69hueNyubuykv01haEQYVKlxwtQ/r83MZAsXnZZMSZRqIDfGtGJ2jXmT+pizCtCme2hkbUh8joNhAWieNbGFuSZuyuXrwLDuw+CaUl5VCvfjxQK6xDN/6uOyKPUrBct3IvTB1P26Ia6yYWafUa0Bo+/e1O1ZZqOU5me+3RufD9p8uwHHzPTN3O1PIl8KUxVLMt3zEdn4DjR+Tjq3r18ce2Z6BRuvxjSKpf54+NapzFfgJKCndg2WhjCtYSas53bMqHeydth2Kxf1hyq17+6JEQnOk7ecUxCFOYiEX8hWOXd884iawVwK0F2l4KjvmqJb3gK9I4jeh/wNF9JKfsbX9QkJsNL185DvZvXCtnRiHHgD5oP+HHFMg4sgMRjxRbwIFYWImCp+Jvt4Nvw5Zt4JEf5mOAjcYW+NqdVRV5U35DRlBHeGw8pA8YCQf/do7fbqDyCnRK0Fk9cON2ePnj9tChq/PsVhv4Ehvo6EszhSM0LAGi41rhRu8tYNSE7hLT0P7pDB4190u+7LWJMHdogWVYeIgwkemyGwdgq30VrFq8E44fOiNQadS0HvTH8dIJ1/X3uW5nniBE+VVXluLOSgegtGg/VOGQQTAOf6qB77aN+fDIzTtcBl/iKWPAKFXwpaAxTrE4FMCXWr/13Ay+xB8B+jEMTM1rBXsbfImf2MRkYV/hN264BLYtX8JTq1Oewfr7KD58HA/qkeSmQMUjLgAHamHtmsXAwc6KNmgsXAOhcRLqdqYuGz3dVlwinMzaqGwcNhSz3MFf2/HXOAGwWX3QmOB92Dp6/PXW0H+orQVWA741RaAGVnVVHhSdXYdrXjdipKYMCI9uDmHhGDBCDQHoOd6Yqj1fUUh6LjDdzkpLg2hM+IEXL1akyOXPQ7OdFZlQuVBdhTOai45hN/MB7PrHSXLVVUL/iBb4LvzlNLw6fR8+I2/9m7GXthdew+VS+IgSI7YJtoDnCuBLBJKwp4HuUko2fWh3O7PPE02inckgsDvqm/RdRujRxjH3z/gR3pg0EbYsXcSy7Dg3ow98+G08juDxM0s4kPFI1m8SyIW1K5b29HV8eJg0Ficbad6lhxBT1QJfFAvjrMI0AI0E2XzEeIhtaJtl7Ko+qGty+m074cv3jmAXLHU7OzfAZc4euxmpFZZ/5m/IyZwDhbmrccz4GAKt3NErgRstUzKbZOV1ASyV+FMCcz08y/jDhwSQMpRw3+ey0yjbdXDm+DycXLVckLEe8KVXfYoTrl54cI/bwDe+STNoPmycrARO4ItXBSehAr50OVFlwpRZ8BUZo7XC0mQELJ0eVDgxQ4+2MbxvxlzoMYo/MdEFe6Hp31+zrAY6HjkBcKAXFpVLX1gYA9KWXDAWh52kt+8ED8/8FWKwi8Zq+congIQEaTtrmjTSfdI9WhM22LqpeI5rDeHzd4/AvTdsw7CKNWPLMvBlKFRXlQndoQU48zb35BwoyFkJZcVoMtUV/JavC2BJr5bZnwv0fA18aTlYWfFhKMxZBTkn50Le6YXY47ALZ4zr18eRg8Vw93Vb4asPjqL85eqWyQ9v0fNx0G3yfRCEE7+kiQVfuobxRDQnNDkCaDDsuQq+RE46qdoMWDIsycpr1l9RYKG7Ppkp28TBrD4kjNHYEX6Z2VIdwKOadcB1oLCbUK1NROW6wVggrUUrXOf7mwW+JFQFZ4WrMzQTOZcOl06ChPTmTvfqcaZKxEm/m9eehZsv3QQ/fnMCqjGohVY3p5SWDUAOIggvg+wTsyE3kwBkM44fn0Qnj81qF8BSEBfbM+ACPV8D38KcFQi6s1F2y4XehSoc69XsiZAIn8bDv/34GEy5aBNsWsOPFS6THz6vx14SmraCDhMny+2Ms1FIqMrsfZEAjQGzyR3gSzRF2r4EvmJZQ8PC4W4E4fb9BglZZvXByg7PcYca2NqoUSOg/XLFFKgRswTzqQPguwCL6VhP4g5jqdeoiTDmm4BLjsx+SXKMT3AigURPY36KzWmi8wvGCt3vfpqYbkt6nClPfpQn1W8hLuf4v5cOwi1XbBYA2WiyDQlWQTlGYCopwOUx1DqmrursBRgcYiN2i1J3tXwZk9p7ePZntpvY3eBrk7v8q8mIPoRoVfYmK/0xAr4EuLdM3AwfvX4IZ6XLhwFY/Ypy1svfgEdeg+DQmt2ZhOc44EtBY6JUupeV9GvTh/ExXx49avT7sj+g7uh7v5gNLbo5hc4XiqJXH7xyY/3omJmZ+ef+/fuFy4EKvlS24DoAvu9jOUeKiuY5P6PGQvtoPjZnIdRrnB5QYMmrDNI8M84Aw+EqJtb5NRt6HrQac6mrlVf2PnrP3h2FcNe1W+FhnEW7b5d2DGEioggewRjcoiIbAXkHFGD8aeqy1pt49kfPKuWr0bU5e3TTdrAT7nVDS5qFX6P1Q+RZUX6c2c47NhfA/ZO3Czravb1Qsdg8Oenlr834q6DpYJqDaUus/Tku2INixOgISiWdI2XTh3vAl3gpw54AX/8Yj4iOhge/mYf7mnd1lqvjzNgPUb8YLWvUxo0bPwtk8CXJBAd4M386lnGaaAKuVF6RRjzGj33k+9+hPoZo8/XK4Qv8xSJY8ZKS8xvw+NuOCVm859Ty9Oh39dIc7NrcKADxupV5iuSMgIciEeaCHv700nIr+OKEs8qKfCgpysTZybgkCModbOgFN5ZvvfKjD6PHbt0Jt1y2GdauVN8G0RX5xTVuCgMfe9O5XAotX/E9sSF825WWVZyU7W7wJXqF5XIwd2eQDaVhI1aXvHPiT/Qv0XGJcP9XP0KjVm3d+vGMIDwJdw16iPd+PXn+0Lh0tE8C8EuDor8/IyrKlcor0ohJSIKHv/8NGrVuZ4GvwpgvWzEwxrywTEPqypTAV+j2S0qB0W9+Cz9eOxyqylU2ZWVeZES/BA4ExHS0bBsNE29oBMPPT8FlSLYBPb3gwZZV7VyNPwqVSbOvg0MiMVZyFDZicdelIAxNGIwbEQSH4zmFKbQd9A7B+VVJuhZwTBpzIIRmY+MMNIRTgZXqqgph0hONZ1fj3yqcZFZdjTK1/66qLMaZ4gW4BrcE7ZlWSdsSTUYT32PPMvRHS34VuEHHPwvOCNGslMZ42ReqyY+9lz2n4Y3Rb3wLEfFJNeXSAF96X4wOAM7FsuAugyhHOViK4SVZfrTORTDPo1BcYtJZ33i0pWDpKXoUevdBjHv/3IThcPrIIR4bqnkq+n0RH9yDx1xVAsxFfwBfavwKtTgAwZeK9QkeQm+ainIZtSmfRkTH4PT7OZDRoYsFvgacAc0kpa48HIoVkhr4inpq0LUPDH32A/jrkRudu1cV1OOKfqk7+qVH9gpjjuOvSIPhF6RCoyaRTh8MZERGJnCxbGrxRyBJs6/1JC1w00NDeg+PHhVe0JPJRLPQpU+L8jtzqgx+/v4k/DbrFJw57ZmPKxnLCKTDnvsI6nfpLVzSY390H7V+9QwBZ5dXQiP0ok6T/bHAroIviZ/AXUgG6pvtgZp/vQG+In8pOCT3yA9/wLMThuEkPPlGKCxv4rlG/SDz+RIP3QDsL+BL5Q8NUPDdhWWLpwJqKFe0AdW/NO3+ga/mQZve/S3wNeEMUrBBV1Cs3/mRMihQQsGJI/Dv20+q6sYd+qUXZGeVwxf/O4Lrh49C6w6xMGxsPRg8uh7UbxjhUfBVLRxzkQeWrnwcKNGraQsb4c52r6APCfqezS2HFX9lw9I/z8CGf/Ns4TENkHVVv33veRZo7JeSXvCle5PDtD9AiF5JRQVkYQjQVHG2oRvAl+RHoSiF8WUT9U0UrzfB1/Hx3KyFMDn16fFDcVeymlnMSirXqV+KL7sdjw5KdMR8fwJf4jkU+9i1yqR43UcLOxsZbkNM61SuYvlEGlNef79ObynoEJBJZ5CCzuxgMT6s0e3HKqLntEcwRnQZrH3/efaScO4O/UoJi/T2bC8AOj564xB07B4Hw85LgYEjkyGlPn5JGEju5E8JLM22zNXoGSii061iefMQdGk8958F2Qi6uYZBVyTqqvx63/449LjJFnHWCPjS++vVTJTmikMKbsdxIDgZ19vRloKutnwJfGlA4TjNADdZ34jh2gBfUVAUFfDeL2bBS5efj6sH5DHeTeq3PT43D4+LuArBTB/FIwe7PP50zPPjF5dHzAfAnCZd3UYcu1p5xVJPfPhpGDnpFqvl64IzCEGHkoM7Dsni2ipsUSi1uMZ9huCykVA49t9SJ0N0l35Fokr0Tp0ohX//yYEfPj8Oi+dnweH9JVBRXg3JKWEQbo/CkHm8FP748ZRp/tIaR8DYi+s7PS89UQNLdjmxIhHJBS16s788AYX59jEDPQTxHqn8fp9zClYtycENHYoRCHQSYG5T0ocuaiiUfvc9D/QBR8ko+NLM/SYRym9iwQ2Hz4VtN1MjwyHYhEKInnQMeV9RFRQhTV+ccOWQioY/SGnSFBo0bwlrfifMlCeT+m2HlLAvDVawFH0UjxxsKvFnCoCViLFC0XvuJnrU5TwfD6wDaB1MEiqhwTT4yhvgqidessBXo7KpidXhrFAnOTWTa3GQzLb/qdqz4rVGvQZCUov2cGjp7zhhCPdWcpN+Rfp66eXlVMDOLQXw9+9ZMPOz48IkruNHSiAvuwLWraqZUa2Xnvh+NQDWAks98pPeo4eeUQA2Wl4tnl2hFxoZDSNf+wo6XDZFeI1R8KVnmkVWC/MWeIkFX+EerB9lOEmOolqrhaZUoicF38PY8j2DY7/+DL5iOdPb2fb63rHyH6eiu6JfJDQcj3/x2CcSdRN+OHj0Jj2VVZo8c/HpZj4pBHuB3AO+7fsPgkkvvWOBrzvAF799UnFSy1GcpSss2zAAvqIVthp7KSQ0awV/3DoBCjJp45SaZObjSnzarL3QrGFau0qHNJml50TEfqIHLHnPKeW5mx69x53ldZVedGpDOO+9OVC/sy0whBnwjcRZgzRkwktK4CuCJW2cUFZVDbSfL+6AzSPhlCdt+VK3835s+eYKEdv0f5xKCWrxp8kQc4M76E249zE4dfggLPvhK4G6G+yFlip8i0c9oudNsGTEo+tUiz9OIDVlulrElJ/kX3EjPdqkMsUNyhUYpTGMez77AZeEoHikddFNYOSQRh2iR99F6diyMAO+JC9yBimtO8JFXy2G1A412wfWBvjyrdktzsVB2t1gqUavtKQSDu4tgtXYbfzjNyeBoofpSe6qb+K7XKFHoHvpDytdAl/io1F4NYKEvPR6wSgHW6+bsfuewJgP4zbaUvDNwglXW/CZQANfKinp9KbX3odOg4a6A3xFxdBWZ+tbtWrl9+EqOaYmNz7KcSNYCi9wI71PkdxkVyqvtMS0o9HTvy6DpDTcsN0CX26l4VtITa6iswoOhQ2FIVBMg2YGkgCykglcVRXlsP6TV2Hdh69gl7S0X1s/UXfZi/hGV+glJofBucOScW/iUIjHIxaPuHjbERMXArFxtM4FIAwn+tA5JVqzHGmP1k/LfgoLasJhluKAJO0KRUd+XiUUFdqO3DPlkI1HDh7UnX7mdClkZZZBbrZxGbpSXp6WzNKjsJK9bn0Uekx9SGg5UmLtxfE+jZYltX67xeF6aoZBRXvWoEfLymlLQdrViFQlxnYuRfunIBtncS5BToV/znbm6VApj+RXlJsDz14yEo7u3Oa4zdWPZ2wgfX3xxRdfSwT9dTWPLgB2I1gKwncjvZuQ3EdmKy9rMLTf5fS5C3Gtb2e3gS91SR05ehy2rVgKBzeugcz9uyHvyAEoysmG8iJb92VYdCwGoEiGxPQW0KBlW2jRsw90PHcwNGnYANjNDMw6A7as4rm36WXjLuc7nHttlVgT8tWcafaebfDXw5Mha8dGVRrsRXfZi0jXomfXEytonedm5ZeMPSLDX/wUUjv2cLxJzV5475Gy2AH3SUtiup+9XT90isypvCEYcCUePx5i8IjEYZ4I/IKIwImLodSDh6kSAZCWFNPwTwn6owL8ADiLGYj/suTJ8mYdPSysESp9lesAACAASURBVM49lWmr17K368uQ6jE0NHTKpEmTPvWBCcAO5o3gmyYAGyGmR3xupleIyohm32vmyyoIjfXez2fjFlujXAZf6sE7fCobVs35Frb99C2c2rbeiUW9/FG3WqeLroZ+E66AjPr1ICYYoxxxIu7425jR7qIg0BOHQY8zrcRlDmveew42fv6mrshZPCesVx+sndG5Rc/74EuRrbrfeB/0vvUxYRMPMemxF54OKa8ekmkX7YxIngQjBx8mh6EoSEgy/pMUXIl+QeLG8afepVCFCMRZiMJnsAucANob5T2weT08d8ko3FWsREkVqvmc+lYQHh4eV1qqvNxJjaCb8chw41IVgGubOTXB4bV/URnnsPeYdaaXPvgkjL/jAdPgS6NmJ0uDYN/hY7Dqkzdg+w+fQmUpzZh3Tmb4C4uKwe36JkPfG++C5k0aQn38Shei9JisvMSRNyqbEn9U2TfkBwsTVpSSUWeaf/ww/IdBO3b9gvMzqMuakziV121f4uLrzOhXfNbiTxvMmw05H87FHY0SMlo6adiovUgfDkMA6xZb5egipmu1WT84puvIom7sNPwnFdcpV1ei15GaugHwlb6DRqszsXl8vLgMN4CQXPGQf1kx9zt4//ZJasXkXlOpH+vwAfmWTFwqNZm+gG/scIeDO19gTkV+L6EyLmevm3V+3UeMheufewPxwvlLUk/LksDkKALvrrOVsPTz9+DXOy6DE2uXY+WoGZMT+TTLH41zntqyBjZ9/ynklJRDcIe+wmSm2PBQW/xfVhAa57XtXOiDPQot70w5//vPjDONiEuAFiMvgqYDx0DOgd0YReuwkxRUKq+GtPiXLXraYMmXnC3XqPwolOSo178WAmtEJtAcnJpkxl7Ep8kC28RUY+hJZ3q+1tNEfBLwtsYZ1rFYgarcBL5CqdGHRWH4j/o43kX/URe10sdzjZSUf2n5Fxriy8NuaGoN600a9tII6dAEgMV66fkKvnE9oK8wpyBM1EUQzRpx+ngwC260WPyZX/+BKHTgjqTjy48+PLPKguBACXan7tsFC+69CrJ2bhZIaBiLQrGUs1l6KW27wIg3voH6LdoIM4vTMGgAV5EcklqVg/OIapYr9A6j7HAZrVNyxZk6CGELeN+CH4UIWmd2bfG4Pui9Zu2PnmX1a9GrMYl6bTtDr1seg5ajJpCgnGzFISfOx67e2fbpkQAZNDvfnlyxZxlzmOEOejSu2wqBNxr/Ej1PbPwgbUkX4TsOlAZDKb8jiVdMw/KrLC+H5y8dDbv+k8XUkNHXWT9ogSOBsCbXvoRvMov2JeZYTSQmJkJeXt4hzM+QXjPr/GiDhad+XozLjiQhRnWAL0WJ24PjmGexkUuO/m/cNECcUKXTWNiiKZ4r0QuLiYPhL30GLUZciLMsAStotTDTUi25wxmwcnelpUA1ZVdhELaEbVTdAr4SBoneiTXLcHz4DTj0zx/kDYWrZu2FnlXSh+S1hn5a9Pj6aNijP3Sf8gA0G4L793KA16FHF8A3EbtxO9K4r90L+lr9oDJSiMsWUcEQjEx6A3xJFjSGXIV/9+Ns+hzeTC0FCzcqv9zMk/DY6D5Af5WSwfpxFOmkK9GifF/DN6dWpK8xxwqyvLx8Jir5XGm+K850yqvvQccBw2rI6QBfAosdCBoUem7njzPgb5yFW1lma8YZNBa2eLJzNXq0Vd++BXMhOrk+xHfoiZOagoVu3WiFQQWjlUPGDJPhDnrk93AFDuRVYoAO6vZywZmy/Ap2gfTiGqZD6/Mug+bDx+OWfFWQvXc7d3iAfZ53rqYP3v1aeRY9Z/ClCVVtLrgCRrzyJS4rehASm2NIdw+BL3U5d4jFoBc+DL4pAviGeB18yS4J8JNxg4kKrEe4ik0zmfEHkbGx0BpXfCyf/a1QN9lkon5QNMROeMxiadG5L+Kbw137InNSIYaFhU2prKy0BXe1X3AFfMfcdDucP+2emldogC+1nWhDgQN4kKls+/5jWPL4NPwqtRmOCWPh2YgjTxc9rBwUnjEyMRlScYwMN/QRwuFRi9juVwR6ZiqHGnPupEf+NSm0GrJLK4WZmE5JY52lEo8i+EqvR9erD82GjcPJbJOAIiYVnT4JxWec4zcr0aN8XfpQI8Bcs+jVgC91M/eYcj8Me+FjaDv+aiBdqSWefoX7ddoLfaR2QvAVtxt0pz0TG+6gVz88CJoj+FI9Jnqe7nYWW75Su6R3J+I6ZqqXNGNaKblS3nq4hWFEVDRsWbrIibwL9YO6M/fhYRsPtFP1VXwT/LSvMidqJC4uDgoKCijYrrDFICWhEppMbXr3g4e//w1CQ+1LGHSAL3U5i0tnqNuZxnyFWYiYXDAWbgmM0gsKCYExb38vtPIopWKxWkfZIvq4Ujl4zHmKHm6rCjvw46ZQnLum05myPBpxztQa3vXTN7ALezKKzmSypBznRvWhSMh+waKHQSnik6Dl6IsFwG3Y06lTS1V8RvTLI4S9udAZwVfcPdBT9szOTtYzoVPkl7qdW9Yy+EplR552b3EltzvaXfJ79+arYfXPtJGdW/wpRRqIE8vgy/gW5MvMkQD79esH//333+qqqqo+okBdAd/ktEbw1G/LIDG1gY2cDvClLmdxI4G8w/tg1iV9oKzgrPC8rzhTCuZx6axVuGlBW4Ev6tptG4ULDHCRvivOQJQ5/XVXZRNpsvToc2Z7Ac7CxLkUPLlKeeH9NuucaRz7yPIFcGDRz3Bw6XxsHddsJs7jwxX7q8v0YuqnQcbAsdBsxHjIGDDKEbmKp0tenln9irRog4UOOONZjEjF2p9wn4Y/4PEl5rmDHk246hhriyVN9Gqj5csrIy1V2lpQJQTycGd5RVolhQXw5PkD4djuHbLXm6xvKyZOnDiAImTl5NTsS+xrEbOCkElHgX2NOfo4+Oyzzx7BrucXpEqXaUhnRjC2FB/69hdo32+Q7QmNyiZ8+WHL91SZ7XYad519WX+vzXamtxoxvpT23TAe7grcvi9MeC4lpAJaUUtYlI9GedXE6A7nIqWvRK8aw1XuKgqGXPkqLjX2bHJy0xgytYwPLf4VDi75HTI3/es0PmVEHyzDdRF8k1q0g6Y4karpoDHQsHs/nKca5tWPK1EHSdgr1BYnXIljbkr2Z6SlqseejdCjetoRB6e9NduZ1+3M2qz0vAjBdxtGGSK/6An5Hd25FUF4EJSV1MRPcKW+YZSsBydMmPCqwwYQjH0tYpYDgH0RfGfOnAn5+fnUnYBB4oyBEWtI5PzG3X4/XPrAk7ZLOsCIxntxq1dHWv/xK7D6Ddpy2Hdavmw5+z/wEnSdhGPbdjBqhMssmkZgldFRXpaWeO6JyqY1e/ogLlE6pjNYjlBJ3QS+VGYpvaKsk3B01d9wYt1KOLFxFeTs30U3KIlKMb9OgC/WMQJcAtqGPfpBk/7DcTzX3tNEkvHCsAJPAWkIvi0lUa5qw555fLF5DXF/6XQ8iD9fafmyPB6hgB24eYdW/WWfUzuX6mPhFx/C10/eL9zuCvja61tRbGxszJgxY3w2VrQAwL4IvkeOHIEFCxYsxK7nEe5QRrPO3eHxeYts4746wIgmNNESGTEV4hZ4347tCOXFhdwveDcYi5ONmqVHXdFX/bYJolPSHPTaoPNJjTLfreupyuZgUEEfFKiDxt4plq1S8iT4Or3TDh4lOVlwcsNqOL5uOf5dBae2rtMMgRmo4BsSHiHEYaYlQw17nAtpCLoRFCTDQx9DPH0o2QXl0wxn2tu3Ia6TF5Ovgi91i3fB1m8QfUuS/KQmj+XQG16SlYe7wbwSJ51uyC0FjF5ZkxTqL8sL75zVB52/PeVyWL/wd97tuvKk9Q03bFiMGzYMmzWLOzFaFz1PDtMKY8C+1iynPvt58+ZNraio+JAkZBaM6FlSBq33fQbHfdNatNbVEqR1vpswVCJNwRfT8hfvg80z3vVp8BXL2+W6O6D//S86eA/Fbr9uCbhOuOZ7wnFN7QdbOYR73VjZ9NArxCVKuwpBWPbFJm+DL/t+OqePk4LjR4TlTacx5nf2vu2QvWc75B7YJXRdBwr40szx5FYd8GgvgK7tdwcIicAuFnvyBX2IvNBMZ+pyli7L8wV75tkQ5WXgIv4GOPnKl8FXBPOT2Ao+Qk6Skgf8QQHunPTo8F7Cpg1Gk0J9ux7pzDBKi+73JPjaxWeGLdsznmLur7/+ooHzbHxLkqvgS5xOfvldGHzFDbqMhSB3K04EoiAbYirJPQMzhrZ0W2xnka6CsdS82OAvkR7Fjr76z+24PAn3rLa33GhpUkec/akXg33JWdG8j8MY7vM4dkmLn0S+5Ox5airNz4Mc3K3pLE7aozjV+SeO4IF/jx0SfleaCEbvKXsh/glIac10bKMMiGvUFA/b34SmLQWwpcAvaslX9EEySsM9fanlK67xJb59yZ5ZOdJyqK448cpdsZ3F8noKzGlC1ibcv5hcpJExbmm5tfSxeclCeOWqcYYaXyr1g7AEnaGx5Cl8E7mgnmfbBprG+BLu9iRzGO1qDr7CLeDbc9QFusGXynUaw0tKwZfydv/8rd+AL/FL3eT7/pgDHa++1dECy8Pachq71evj7GitpFU5tJ5nr7tKT+xKrIe878UJWoW4h6qvdHOyZaVzKm84rm1sgGuz6XAkyRgozbQuOHEUinOzoBS/+EvysqE0D//ix57jN+aRUy5DMMfmNNLFvWPz8wVytAsU6ZkSfXCJuwKFx8UD7ewVFBQM4RhelZaoUezkiIQk4YNM+B2fCJF4hGNeFObFpjUW1kbX1hhtjYBsv8yCOS0xorHeBFxXLk2u2h+PP3cOy9CuRv4CviQLCtJRD/vMT1eSnen9pK+Roh59dBkyEkZOmgYLPnufFT/3nMeHYEe2RMHDcZcWuIr7MCfTk/hGrxOHfY1LDx/2JHM//fTThRjxap5EeBzxqGeJykhKS4Pn/lwNsUn1dH2p0YLz9WeDnPbJJD7m4sxns1sKspx2ymgM1w49F4Z0agcZqbag8odPZ8PSrTvhy79XwLYjx9hHNM95xpeKWxle+r1znFVa+9gzvmYmKI+wnsrBe04pz930KrE5fAhD85zE8eEq6W5KtTTBhy23WfBg6YjnFj27JFT0G4JfaI2x1dsYJxtKW730pLvtzxP02mFr3eyWgqzdEH+eavk63oWoUYLzybcXccaFWIaYcyPyoy0LnzhvABzevkWVKs//CfVGni7ErJ/l2c45nsQ3epN0zpVhAPYkcytWrIATJ04cQeE10RKS0nVRGfT33i/mQJehI3WBL9FjNwcgJRZlHoUZw3HsWKJQBeUqsSTkR4SFwsvXXQaThg/Er0bnW2njbOK3EscMP164FB76chaUVehbh6NofEhv0rIjEMVEFcqIwmCpNCuak4xUDs7jsixP0iuhbmmcKZ2NQFwdjJNXWKHKuJFnCHr0kQlDcu7scx8s/lRb5tQr0hSX2lHrl02etD/Hu1wcAw3BdfrdYiUdkUjPVyZckfzUwHxDfoVTY4WVP3tuRh9Hd22H6aP7Ke4fzKv3Kv75OPLUmOVLeu5JfKP3sBOeOWarzJ6nmcvMzPwQhecy+FIJRk+5zRD4UhCIk9j9LCbROR/DYP7uAN95j9wJk0cogy+9NwSBeNroofDTo3dCeKj26ICq8WHlOfbfUpkyT+A4qizkI95lpnLIiEsyPE2PJpTR7O4uCSGQiJNXjCZRv7LnVFpasnuZ8lpgjgLxkvzisXp0xmHpdhhYw1/Bl7qx40MktutH4EumHyfG8lSrGPZrZv1Bk7Yd4PJHn+W+QdX/cZ8A2rbwXf4lz/bs0jtZ8KU83QDsafD95ZdfgjDgxhQl4WjlS5XRsHkruATX+xqZIHASJ/mU27s0pc751Ob/HK9W+bJSZe+V6y+Dc9tjK5pJYsuXzafu6ZeuqwmQwl6ncz3Gl7nxX9mjtLnJKcmHBt1gtnLIiNszvEkvzj65jBwx/daTLPC1S8lLYKmlEyP6oMYiRbOicJLxIf7fkxMjArCfgS/pNFb68aCiZFf9wZgpt0PrXrgHuiTp8X8KLN3Ky/c0vvHAl/jQBcCeZg7jPENJSQkhnS5+WAFKlUG/r3v+LYiMieWCFPuseC5Gu2KdAW3uTsks+NKY7w3DBspeqwS+4o1TRw2GDun0wSZPeo0vB5fC8FKmPbIXXXO1crD0a4MetSGoK7ILOuUu2CpKVgFiVr8O/v0QjFjZ884Dpbw0i789Ai/pOEllImFt2B9P7kp5LH8UetJoRCopbaKn1k2sxIdSvhF6Au8aiS2vcDs+ZqRxRJMKp775EYThunPhcc5wk2Dn+hJhzDrprZ7GNyXwJR40Ac8bzM2fP59avr30yc/5LlYZQ66cBJ0GD+cqSYk+RleDIjx4zoqWkRhQruwVNOGKtRct8CUi1B19w7ABMnpseekGJf7yDu2VPU8ZVFba9MAdlUP6Al+gF4etovbopLvGYShOjIAULBE+T78C/xb4cu2EzfS2/Eh39dHndsePKtq9iOKbq7l8X7A/VmZa9SMSPyz8ZcyXLZs39x9v1KotXICRDI34P5ZfyXkP/H09nXsD39TibKgCsDeYmzt3LsnhGRVhKV5ilZHYoAFcPv05rpIUieCFLJrIozAhp+QsbcJkLhF/Qzu3d3pYD/iKDwzr4vwsW166Twl86Vrp2VxFxk/R1oWciDtGvkylxH3N+dF+rxSIoXd8FbSKBhwntCZcCfryg4+NaOzazMD4Hj3iqoRdvaIVupp92f7YiqdUP8Jd0EdttXzFsqkNASuV1xX/Mu72+6BJG2efqOb/WB0w5y83bty41jdqUARgb4AvfRlkZWW9goLBRYjGEg+Mrn/+bYjFvXGNpuwyZedcXkShqI0nkb8m9ZIcDxsBX3ooI6Vm7TivvFrGp8Q7PZdbQk1gSbkMdgtJJeKJyuaujwNyEvXDqqBLdLmwAbutVWzn3gXnZ024Qhm6UX40nNgAw6V2xdZuD1wql45LczAssq7ky/ZHBVDjj3yC0UT0aht8iecQtmvPXhC18vL8mFb5RXq0fezkV98T1rlT0vJ/anSRjwY46fcl8R61bmI1OuI1s3jJ1b5ZYkqMatC7U+k5pXyeEnuPvRB6n3eR0iOK+WU48aqYNqNlk0nnQmSk/IlGYhR8iY6Ij7zymjU+4Tls+RZVBdXMhg5Q8BVkiOUlMKcYuzhhWmhR0VrodjiNNiUiSLZulDUD9lyUH5vvTjASaJu0P3/ij4YQ6YOoDY7t9k4Ogda45YreiXSi/EX91oWPSSozldcXwFdm//YMT+ujZbfeMOzaKa6Cr8AtTvq9G4c/ubOTlcrHy9fAN94jjjwZALtCjPcmDXrz8BlJqHQeBec8HhhFYfSf655/U/th5g4ylrxS3F6LHcCXOD/a3MBIYvk7lp0LZsCX3nn4dBa3O13GrwKDbPhAqXOm32cxzrLRCRHSV3m6sgnv8sDHAS3xIsffDruoz8EY2W0RAOg8VOGLXiyzVH5OIq8DYOmu8oZVV0IqyZ5AF8fpW9NGITgQqiV7non7q/1Ju2HVNhphy0zl9SXwZXn3lj6uePQ5qNfI3GpVxj9HFBcXz1Ebo2V1wJ5r4Bt7u+zcCYBdJcZS16BH76bIJLoTC270ICn9qidegqQ0/oxhJeKisdCEJKfEONPIhEQlErJ8Hn9LtuzggqjsYSaD+Ptrs2ubU0dgKEIx8cCjqBIjB7kAHu7qJiYevVV52fLS/rApOLmHxov74HhxV+ympsAOiZjHxhK2up1RWAbtheoELR2iKFUdoyqgZyyOyaN8kzCPehJZfWjVC6k9B4L9YRXUlXwNfIlpaTwBb9ZfanBNfuU9XXKT3sTzz9gKvhjviTdMDB/QwDddJB0A7A5i0jfqoLdRF4f2m3jCI6V3OHcwDLlqkhFSTs7eaZcdjnNJyGili7YSfxRekiJcGUlUrrKKSvhy8XKnxwQQNZASmtnWHvPAl8iUBpvfHD0QnJ9MlNjaJrBogn0yHbGFRq1jaqlRcP+YIOzGxutOiWMvMpqcDCV9GAU3kbQv0aOPljj8qmmEMmyPnUd9EnD8PaYK0sPKhXW7Dhl6oGfDH8Fc3FSIYyaOLF8EX2JO5N2b4Cv62W7Dx0DfC9VjJUhlquSf7fcsVZM/75oOfOM9JssTANhdxETqOujRYujOMm4UMpSEF4Jdidc/96ahFiZrLA4AVnCmic3bKHBVk63EH91BsZ0pvKTeRPxVIGB/hM/sPHrS8ZhR8KUHk5q1sXWvK4QzLMFxYKOJlZ/wfIA6U2odJ2Ng/2bh5QgiCMjYZdoJJwk1xQlC9bDbNCpUNoKjKU5fAkses0b5o4lS1H3fHFu1tAa7D46vd0E50TnJLhjtOSA/1njCwzyj9aNEGs+cQ5Po+VK3s5RF4t1oeTlFdMoyQu+ap14R4j1oJTX/bH+2G/6dqkVHvK4D3/SSghB3EqO36qRHuy3j4hDtpCa8UbhbxsDLrtUmYr+Dp9xjZcFQGay8WT0t5dm/4EfFd6jxJz60eMtO6NumJTRvkKJIhy4QfwS+S3BjhmnvfwlV9hav4BRNpC7X3QnJLTgfEPaPDdrVpJFCXGje63jyC1TwFfUhBQ9qvRHgJESEQipO4CLZpSH40PpUWvYUgc0/ms2LuwCj7uQSFPSo8DHEsyM5Beccb9ILx4LFYxkpCEYDbN02wWVCBLL0l7rwafIUyUbaS1DX7UXQlsbHKc3ST6ZdUjiJ5Oer4EvsnsD5M4XltbeaIio2Tthze/uKJRzp2bJ49UrBn/bBJ15TJGS/oBPftMg4roe0aNHCceKlqdhP4wvH6uFQTXgxuJXa3Z9+L2z7picpOYNj5aFQLetbrKEYlZwCG794i/sKNf6kD1AX9KyVayAxJhp6tGjqFBxCvI/4o27nDxcsFcC3HLeho6RgLFx+nDKxTIMefV3Yqs4pSVr61P5tXLOfuipNJfn5Y7efakHtF/WWlwCXAhIQABEQ10dApvHOhvg3CWNUUwSnGAJnnIZNgfcJl53AWaHnRYtHwS7cCObUdRyB/BGv8VgOiiyWSjsMRYdBC6xi6WgnVDYCYNvHhvMYOcuvXvmxzymdByo9GkdtyFlvReX1ZfAl/g4UljnbssbHhpJuKd+sflt27w0r5nwHRZx4DXr9s50vcpQ0VviPEp/uBl+ih+7BlrwEvvQyXcuOtIQ38aGnhG0G9SQ15VYR+HJaKyLd6JQ0qN+pJ5zastbpVVr8sXzR7kb3fvYdfIJdyxThioJsNE21tYgPnjoNizZthxlLVrjc7Sy+N63LORCVnOrMBuPshbKrFd7+tJr8eHJgy86e1wV61KhJoOAfJGF0VkJLGgHMdo4TWPBHBY7BU2xucsK0FJ1+V6ILEK7hbwFj7dfpI1EEbqJXgR9oNuo2IBTWZKJ+CUjF9pSQhQftVUEtrZrf1TgzP0jIpyMc/U5wtW2plo1D/JfoCPbiyNH9oy7oVyoMV8pLOi9EJTtiQiNhoufr4JtXVo6x8yVScNiLcYNxRX5hEZFwxfQX4N2br3ayT55fovdopPvw+rO8ezwBvjk5OTYA9iL4voiF05xWrCW8xq3bwbBrbuTJSZbninJFYm3HX+0EwFr8yZiQZGw/chwe/PIHp1tcocd7F9FrM+4K50sutLSsMTz3ztYNQoSMQH3Qjk62pOkY8DbbPcr2TFsy6qHj/E5lesrDMjybc1AVPzakrNSSc+bx6YvlzUIUFgHYH8CXPg6E4EViqmX99h1/KSz64kPYscrWeHXBn9KyEQLgx6W24ynwpXcEexF86X23SQvG+61HeNc88xqEhGFfmEbSU9mwx00ztb7gCkdXrh7+NAlKbvAEPep2bjn6kpq3KIAvTZBRS3rkp/Y8e82ihxKpZWcl1YmlD9/QxxlsSlbhB5a/gC/NTSGeheQj9nzts69hjw1/X3CSq4F0t/ReT4IvvSfYi4uQX8f34TxJ5aQHjHqMOh+6DBmpTMR+Ra9zCdGxo0dkYj3ocOlk7mxrg8p14ltPeTULKrlBpNfhshuBeBaSAvgKl1T6F/XKTy9/Fj2UlI84K9KZpQ/f0QcNN2SWVvl8t7PYLX4KW7/CGmAfsueMDl1g8OXXydyRCf9M06pfJkKeBl9q/PKn38mKIc8wwdw0OZWaHD1gFBoWDlc9KchGNRlxLqE6uu2IXtcb7pJNaDKhXAffesqrWkjmokiPol91vd4+zK4CvvR4mH2Mkn2PEfmxz/LOLXooFR9yVpY+fE8fx4tpQpNzt64v7pJEMw9O4seCL9rzJQ88AdHxTPAhnkPSzrstOTnZKxs1mAJgE+D7Pyyz4nRlvWA0espt0LBFa1XxGXUuURoSEEAWxzxi6jeEnjc/5Hi3L4IvMddr2iNAE8fUWr5iIXhlNyo/VWXgRYseCsECXy0zcapXdXHOQRkuejhWagdgtBdfBF9S0rGSasCN1Hwygll8vVQYd/sDgi256J9jzp49+7ZolJ4cpkVVG0smwJdeUIIHN+azXvClXY7e/HcHfuEoz+Ey4+yPlATBYeKOk0TwFS9VVZTD3KuGwOkdhoJ4OVHWW14OO9wsKb3U9t1gwjeLITgiittdzhJoGkVRn2q+us3Ij6UpPbfooTQs8FUzEadrdd1eyBl3wDBicTi/hecntARJ8vPk7OlCnIa/o7ASgjR61pT49IZ+y8vL4KHB3SDr6GElNlTzJXIvSUhIiLrsssvAk8O0Gu0/Z15Ngu9HSMUl8CUuzr/lHreDL9FV2muUBV+6Nzg0DEa++S2Ex5oKHcqtVMJ7TCZpJaVNI4a//Llu8KVXCnvk2pM3KocFRvoVbekDZVXHPl6qsbwHSoPBRIA6j0/gokli+zFsoC+DL9lLBMaFuOjuR/RXNMmdzEdPZH5+/vueBF96tW4ANgm+9I4beNLgfeEpgRF1LYy6kaJX8pMrzgp3Vs3CCwAAIABJREFUpZMBIw98hTfjl19i01Yw7MVP0RD1zJ+u4ddIefmldM6V0iNehr/0GSS2bC8rixIt+tqmIBGUXJEfj75FD6VSx8DDKi+vJvDz1OoH9UIT0Bn5LCd6nmz5Ei/EU1kQf5Yxv5Q1uWrl5flFV+kNwslYDZq31CLjdJ3HB27UMNkQEcnNevHSEYhD7UV6iXFofIB5svVCvMIqgS/RHHfHA4oxP11VLgUioJaguCuSGviKfLcYcSEMfuJdWPKk8keBVBZGy8uRo1OWEz2cyTzo8Xeg2fDxusGXiMWg5ik4g6vyY3nl0aNty06fyoIThw9C5uFDkH38KORnZ0FB9hkoys2GwpwzUIznNPZXYo9oU4VdSeXFhQL5cGzdB+MEPEqROMmCAkREYhCWGDyicWgiNrkexGHEsnqN06F+egY0atYcGjRIA94Mdx5/FniwWlQ+t+SHstHxcZWbeRLysjKFUImNMG5BeCSO92DSI78cXBd8KKgSmkVqf+QTPU+CL/F8CENO5lX7B/gSv7RHwMX3Pgbv36EPP1X8Mzmdd/G4g+jqTUbwkhpCqskIMQ6hIsyzWZ79okphOY9j1A50pG+u2sENOanHmLlEmcyDOA58DMeB9YCv9NGdP86AJY9Ps0U5UniR0fIqkHFkS+lRy3fgo29ChyumGgJfItYYBwWaRuL6Q4rQJP3c1uFclHgsKauAA3v3wIFtW+DIzm1wYvdWOLN3F+QdPwyVZaVKj6nmm5VfSHgExDfKgJTW7aFRu86Q3q4jtOjYBdIz0iEiVOLYXCivu+xPFIBFDyXhx/ooLSqEBZ+9D0tnfgkn9u122DWtT23RrZcwjNZj5HlYVyUdjyrlTcHWQfMoBD6FGuJp8CW3cBjBN6vSf8BXFFUVRop7eGgPOLZnp4L0bNk6/AthGBPPV5mkUbxU0q3wBqPEGLaexPOnpHk6Cisr2fXPvwWjJt8iy3ensyrAjek3nkVzMxFb98BfP8OihyZBeWG+jEcz5ZURkWRI6dE49LAXPjHc8hXJ0b63UTSf0ST4UqTq4ydPw/a1/8HuNSvh8NqVwuS0ipJipyIIHzUmkyfkFxoZDfU7dIP0Hn2gda9+0PGc/tAIN8mgMI1Gkjvtj95r0UMhqICRlm5qW34Ht2yA/91ynRPwsjyTPXcZMgJufe9LiKJ5JDrKS/HEW+ByBRaGPQ2+tNzoAHY7+1PLl5X36p9mwbvTrmGzHecG/Mt0fOh5RUL2C2bwUtHtmCHGMHgCz3E9jC0ZKKyDDHUpvr5yG4Rha0aaPFHZ1udWQrFt/4OaV+mc7Zd3aC/8ec9VkCWZHW2mvE6FZE6k9Gi284jXZkACbjfIe48aHbpGXe5do42BrxAsIK8QNi1bAlsX/wGHVi+B3AM1X/k8PnwNfFm5iPwltWgLTfsOgQ5DRkP3QUOgQUIMOjzl5An7c2dPhMUf6k4HuClp2Kj8qLX7xHkDuBsCiO+Q1o/09p3giXl/QyTu5sOrNyxfkRgsqFV0METbgwZ5GnxptrM/jfmy8hLPSU6PjjwHDm/bLLuFJ3cVf3UKCTSQEZFkmMVLLgCbJSblB39/KJ4bLKyDzJTX/g+GXn2jU7mNVg41odE1kd7x0iA4JG286QRfkT450K3fvA//vvMUVBQVyF6rolzZvWyGKD9qvXWbdDf0mHI/BONvnlzZZ9lz4qNZeAXu1iNpmSo4KxoX37N3H6z942fYvXQBHF+7HGhslk08PtxRXul7vEWPuq4b9jwXWg0aBb3GXgStWrXA3X9wI3k7M56yP7M9EawuLP5QIgr2zMqKd25UfuU4tPLYiHNUuzp59WPEDTfDDS84lpryWHHKI/trEB6MW2DiD9opjem5cse6YZr6dQJngZ0o8/3Zznp3YVs7/yd4c/JlzrLkRADU4V+mIJFPeYpyBS9lAOwKMQlz2/F3ezrnGZ+OwkJqelN4bcVWoOhXYjJaOXjCkuZJ6VELb0NBMO7Hiz8Mgq+Uv6LMo7Dx87dgx+zPHZOI9JRXiVeSH8V2bj9xMnTDaFx6g2zw6BEfYbjlXDfcMJ0mYAmJcVYEunsPH4N/f/sRds2fAyc2rKKvFB452+PmjNlv6CXhzPK2510K/S6+CtogGEdjt71T8DQvOntFodkveLJ+ON5tlddJDctmfQ0f3OncSJDeoOT/KP/ZP1ZC8y49tNTquE76pS0t0xCI64cH4RIWVAb+7yr4UgQuCi9JEa58NciGWfsjmVHvxP6Ntt3slPShQwm78J527H2u4qUTALtKzM7cOPz7M/12obAw7Z1PYeDEmv57bziXI9gKPor7A/P4ZgXPngsgKxlDLsk9A3vnz4bdv86EzC1rVEGMpSWcYwWlLQXbXHA5tBo7ESISkm23ufBxQPylR+Im6mKPvt2ZFlYFw7Gcs7Dyxx9gy+wvdPPLk5OrHxusLHyGnl0fnSZcA30vmgiNEuOElrHeL3FeuaxuZ9+MqOTQlY6PjScvGAR71/3LqtdehZ3cq5AntefuI8bC/V/N4z7LZrL+jz6g6yEQp0aG4V7UuleTOsgSPdpSkHY1oo0VfC22M1tem0DN2cuGRfPhtWsv4vp1g/7lfOTjd1GI7sBLh4W4g5idsaX4d5ArzjmlSQa8gTOfaTo5JXcqQ41eVXAotoJDcJ9L5RafKHzpX0GJKhO4is+cgmP/LYXMjf9CzoFdcPboAWHZTbm9q5qCaEThMpr4Js0hqXlbqN/1HGjca4Dmfr48Xnh5In9hOIbUPbZKmHBEw93ZVWGwaf0GWDvzE9iDHwoiPzwabJ4r+mVp0bk/0QvBPUibDh4L3a+4CXoPHYYtEtuSLl65eHnesmfr44AnfXmeWX3Qc5NbJEEZM/HQiD0//dsyaNXjHDlTkhwt/mgpZRwicixW7Cis4xGIx7b9n23unZYBEsBSCOdi9G35FTi5qtQ39vPlFVyrvLxn1PKI3vRRfeHQtk1Otwl+0VhajLcPo0fchZeChtxFzF4W3Dtc/ctPq8zX4naDY26yLb3yhDLUWh6Z5UGw17b8VItN4bqgRBXw1UVEcpMn6bWOrgb8aIYTheXw7y9zYeOXb0PWTvkEBS2eXdUvS9+f6aW064rj8ndBvwsvg8Yx1BphS+d87m17VudGftXiD2WC7kvPx0vuqUy4rWuGTIhG7Jl2dnvou19lNMQMX9YHLleGEydOwXbch/foru2QuX83ZB/cCyV5OVCM6/mlDQxavx+ZkAQpLdpAg5ZtoUnbDtCh7wBIq5+Km8LUFN9T5V059zv48O6pjheZAF/h2bCwsKBJkya5baOGIDeD70w0vstZazJS2Ki4eHh33T6gv55SBjuBQVrZ6JtoW0EQ5OHyWK3kSbB0ereL3c5EiyZQhhSdhfVzvhaAt+DkUa3ica8bcS5cAkxmoNCLrtcAOuJ67H6TboMWqcmQKp3kZi9zbdizHh2I91j8oSR0gi/JjFq+1AKW+jcz9vzEvL+gbZ8BMlX5mj6oYzAX/eL29etgzU/fw/7liyBn3w7Z8Jpuf48NteRWHaDFgJHQe8Ll0KFbD9yvttw5PKMBfbAClMqvEuP4PzCoC5w5dtRJX+wzWuchISEzL7744ivF+1zdqCFo4sSJjne6QiwqKgpKSkpoDN+pDaBbGXYuLrjtPrhy+gu1Ar6iIEqwq2ZTPk7IUumi8AfwpZY+TarKzsr6f/auA8yq4vqf7X3ZQi/LUpbeRFEUFazEFks0xR6NGhNNjJoYk3+6GjUxtmgssdfYo0YRC4piQUSQ3lkWFnbZZWF73/858968N3fuzL1z73tvecDO9+0Hb+6dM+ecKb87Z86cgbJn7oTVLzwCrYrzym6djj/3M7k40d4f6dF1kBO+fwUcfsV1MLRvAQzA/XY60hRvk6ncLj38oUZ8TPZXHVQMNTvoxKX/bZTxRx0Dv3lhjqVJ4qU9aEFCcRLKqmvho2f+DStefhxBNxDcItrjtwAdHsedeQHMOO8SGNgrG/IRSRJxG1JVj9x/5d8q/b314N3w/M2/lV81/h3koz03NzflxBNPhEjwkiqlxW/S+PHjGQOREkMSf0GhZ4nSeAXfJLwF5KfskHpOVCM0qRrDabDR/gkGoIEq+pxQpHgHX9rzqcP7zSp218PKp++Dr27EAAG4B+03GhWpQDUIvLavqMr9lR4d09rx9aew5JkHobKmDrpKpgLtGWcktIPl+mUfkz3Xn9f+rOjClqweetTBzczOsi6ry8tg/eKFEY2PnRiiddyMmezkB6V4aA9a7dJ23Dflu+GNe/8Gr/3iAtj0wZvQXFPFeIzF+CXaZZ99AIueexQq6puhc+RBkIYhPDNxLlbsaspNEfqt01/RuEnw/pMPQVuL96h8gryJ7e3tSUccccS8aFzUwAA4UvA96aSTYN26dY+jBkK3IfuZnI88+zz0fD5vr4Ivb0VqdDwNhw4L1naOZ/BlX6vobVG5px6WP3YHLP71BVC54G0GvH7ag0sei8Emj579jT8GxIs/hWXo4FaDhqGukkMgISUZsnG/iyIRmuwxyjqi37rJpYeeSlv2vGjrr/fgofD+E3ThmzV57c87MUY6XSIQbf680iPgLW9NgHUNCfDJS0/DG1eeBVvmz4GOlvCdrbGeD6iubV/Oh2UvPAq1iemQMOZQBvhZBkDsJG9qejrUVe+EdRqvdbkN+W9ZXqxjxPDhw+9cuZJO23pP4rZv0pFHHhnxfYevvvrqGZ2dnVdwVrx2Pl7uirsehtzC3jjLCEL5/DIlCk6NIStVpUa6LagF7wjDKzBZYnLFqcNVPfJYhTEyNr//Biy89juwY94b0BmMv+y3PUhmlZ566Kl6izqvs62FecCv+u9T0JrdGzqHTcKz7eSshR3bY4q0P8vV9dCjDh7Zx1BWrzzmgFQuxBz2Mz6qtpayfeDegwbvtflvF1r8VjUmwAYMvvP6lWfCMrSetTdRKORw6s75oKOlCbZ8MhdKcVWcMeVoqM0sQA/vBLYiViWT/kzOX3MfvZ9dkmGSNPLmIvguxPLrTWiI78g+V0lfffWVVxqh9zkxZOZ2FH40PfDT+ajcxJnHwUmX/2yvdT6VEmiKLEAQrscLOps64hN8W5C3KjQVlS9bDF/dcC5sePIf0Fa3JySO3/YgAprOp1KVUd6BTK+toR5NeG+g48pcSCgeDy2FRZCOK2Ha6jBJJpOLCR3+Tg891ESE4MtPUwwaNRY+eAaDJOEHeiTjrWb7VjjyO+eGmzFK/IUIaujRFYi04qU4CGvf/S+8dcXpQOF15bS3xm/99jJY/eoTkDloGHTh2GnAPWm6Rlb8hjXtz+TcW44XxJStWi6LZ/vtIm8mFviPrZBDhgy+ZHk2HP52qpzY+++/D01NTU/gG0mRdD4Ky9a3aFi4Ik1nsXNizzFtDHtJew7tPfRO6YKWto7QSjj0VhS8ky01eqBH5/pq2hF899TCN7f9ApbdchU07SizkIukPVw6n11RLjk99AIfpw0V5Wwyqa3aCSmTjoSGpDTIxsmEznLqUjT7M9XRQw+VEMX5he4r37FxHbsBzG+i8bGzrBSmzj4F8vpgCP0o8sd40tDbhXPIqoZEqMdgHJ/e+ktYcOv1uGUVNjdzefb2+KUtnY1zX2FOpL0POw52tiVCOp57ptWw1/7cv3gEfPDUvx2bykDeEiTwF0ciwkMV+NIessOw15MWiaH5+fd4cfGfIpnsKTj5TXM+C6+4NJ1Fz1H4idfGcKPJ6ZH1eQt+IZbzvukBLMU6mJ4iMGOTdb4WB00dmpy3f/gGAu/V0LKz3CZGJO1h0Pls9TllcHoD8lOhqE8aFPdLg6H476DCVCjISYE+aOvvnYtmWVwO5tFFxZhS8fM2K3gfakNzB7SyUD14DAL3A3Y3tMMu3JzfWYuRfOraYHtNG2ypbIbNlS1Qiv+W72qlxYhxipW8IgOq9sjuPxhm/vGfMGzWyex6yMFpGFlLGpGx6s/xss0jN9K+Km9l6Wa4YdYUHNoG5xclocX+N+PM78Pldz8ccx8B2ustxWtYy9EficDt/RsvhXX/Uy/o9tb4kPsG/11y6vfhuL8+gh7SKdAPF0dDU70fXbr57BNh5YKPlFV4kPdGJHCrkoiQqQNfesUzAIvE6uvrYc6cOetx0IxwY0L3nIS9+JY78dKFHwVeiUPwFSerGjR/bGhJCYRu0wmlyY8UfFtxP7oa92kaqiph+W3XQPncF+PSTJyJoXimjsiGCUOzYGJxJvt33JDMEKBS5DwvXo1cnQSqGMTHlmR6TRhMfuWWRvhmcwMsK22EZfjvV+vroc523VV8mNlLTvkeHPmbf0BBn74wIqMLeiUHvh72VTA6UB3CKCY0xYb2kuTJnk6C3PHpStwLHuKFDHvXtL/Qt+xKjHVAH/EEvm9fdQ6Uzn9bWZ/MH69H+bJBZrToDZ15Mnzr3hfwgzVgjh6NQYaYSdoQP75442W453LB3B/k3SN/G7GYI/Y5gS9V6QmAZWKvv/76SS0tLaHYmAb6t7xCwqaim/ndi9ZCZk6esfJU9Zh2PlVZVZ4TvRZU23rcMzEJ1sFpRwK+NB3voVUvflxXfvI2LPnjZdBSXRE34NsHV69HT8iFI8bi35hcmDIcr/PDpZwJWKp0r8ozBV9VWcrrwE/+5QjGC1bWwudr6mDesj14TMt+zoy1k8/kcfBaaqFLNo79679h6FGzWRCP4rROSMTA+z0r1eidAzWdnFXN7zQf8Hav2LyRBXvoaLP3KxVNXX/hsRBUZXR5JvxRWbQ0wwp0tEIjEtuzppXvmv+qPxp0/Ol4cMuPNr2Sk7/LVsIJiYnoS5EAY7M6IQNPGqjqkXlrxw+Pq6cOZ1tBPKnKGcwHtI2rWBaYRZg03gOWwZc2kBcuXHgLVh44SCxL6PKbCzsDnQ4OO/U7+wz4Et/0pdUH4/9S3NVa+op0mbMjAV9ysqpEJ6uGxiZYecf1sPzv10EHxpD22Vm0reKFHoHroaNy4Ecn9oe/XlQMf790GJxzZG84bHQODESzMtGKJ/AloelLuT+awKch32dML4SrTh0Epx5awEzibbgk2F7TykDab/KiP1UdFLZv7ZvPQcueXdBr6tHMsS4LJxVy1GLJ8MteRdt0claVVeX10FO3R3ZePlRt3QKbly1Rqc2S59RfaC/5hIt/DClp/NYUZ3Km7dGEMLEc93u5IWgB7vmueOFhJXEn/pQFXDJjQW/X+pXQ3twIQw4/jlkkKbZ9Ad4S5eRPwdlMTEpC8K2EdYs+Z1kR8DcKi78si6/CS9W5YaMVsIrYc889B3V1dbQjatZLBA5FYSkM2wgMRr6vmq3ohBLdJbwdNUGxUeUUCfjSXi+tsmvXLYfFN54HdRsC584i6Cwye+y3CT3am6QV7jkzesNZRxQyMFOlSFeqMs3uore7vg1e+7waXlxQBfOX13oCYxP9yXI5/e49agIcd/vjUIhh+vrjargIb7BKjmJEoB4wd9K+9ZkpuPFSlaWb4LoZ4zGWQfDsoqIqk/5ywZ/vwHj4VylK++MPd2VgGYJvM53mwLRhzsvwzi9CERUtRE34c2VMeCHW9I677TEoOfUHbB5Lw4/WibgSpgsp3NJ2dJz75ZETla8ZrHx5Obog3YKBKrxUgS8RcAVgB2LXYvk7lNw7ZIqNQWeybn73i30WfEUxabhVIBBXYHNQ+EdKfsGXgHwXroBo0Gyb8zws/fOPoaMpcENErDtziO+gcKMGZcClJ/SD7x7VBwbj6tYpdRdYynu+TjyJz0z5I9P0i59UwSPv7mBma6cUq/agG7Jm/uk+GDn7O5CZmgyjs4AFIvCSvIKHG+0eeqghA0vEvVecB5+//pJSnab9haJi0V4wvxFORcy0PWh1uAzvOm8Mgu+eLRvhxbMPg1bhuCKnb8qfih9VXnfQS8nOhe++vBByhwxjLJBn9MRs4c5zFWOYR/q76awTYM0Xn1je8AC+vNzP8T/30A8HvFRy4TikXYhRhQOVVDWZcmN8++pfQckh05UrMA2JULZp53Ojw59HSo8+uOgmHIr9W4j/0oqRzgnaTLEu3tMNwXO9bbiPtPKOX8LKu34NXRhInJKsP8rz0VlCKtHRS8crk76LJuW7Lh8Ot100jK18c3Wn34PUTMEtVLnLf/YmvWz0viYT+49PGgCzD8pnGzzr0P2dTNVi0unPRTTtY5EeO3bx7mt47KIe+k0/Fna2J+HXvTkIR9qfZSZ76KFGDMCX9NanqBjmPf2IrEJP47cRbxMqGjcR6IyxKpm2B+2q0OUyPJgQ7fu+9ZMz4+qcr0o+VZ5uvFGkv50rl8DYMy+kSZJZIuvQWbZPCvupTFx/SclJ8NWcN0Lv+JxP0YEJHnHBSyUfGvaMkJzmJW15uTZZeSkYH/eexRsgJ79QftX1t2nncyUUfCGW9GjOrsXOQPsvTXhPRTN6MhMos7gewfrpK4gAmxytGvFZ+64K+OS6H8CORR+HRJD1Rw98dhZGU0WvEL8gfnxSf7jy5AHQtxf2XsO0N8HShMVo8FdT3w4PzdkB9/1vO9svVukv2u3B6Q2cdjTMvvNZyCjsy+4eHo4en04DL5b9OaRvQzBStc+BwN9N3zkBVn06P6wuBRK49ReKjEVbdHLyor+NTbg9JoQ+XvnSo/Dh734sk+zW/myr3CDDZLyRQ9boMy4IURuIi6FheKpATqL+WjHa1jXTRkMDXqHo1h4yHeF3F17QkDh79uxQlml4Z+U4NkByOv9EDlhGSaU8Ou925X2PG5UXX/LS+UyIxwM9MjWvRq9qOhZAN428ecVpULetNMS+Sn8RdBbbYBvWLx2uPX0gXHhcX8igC4M9pGiAm7V9zY4ambIYbf5a8PP6ufk74Y7XtsGarU0hNqLZHkRUpkfmtVMeeB3yh49mgTvGIAir9rnioT87tc2Bwt+S9+fA384/nakikvF7+/ylMKhkjKWfOd1nLuq+GrexVgt3m5OD3zMnTQhdqMDfjYQ/TiM3Ix2+NXUSzBw/Go8dDoKi3oWQm5XBHteiA+nWql3wTelW+HD5apizeBkeCbQH+xB5F/9vyh99oJ779nJIoxM1wTQGt24K8awwT6r+99Qfrod3H3tAV71rPvGH1xT++swzz7yNXjYFX3rXZoI2AF8qdy/+YbgW96RT3kW33AUUyNxLUinP1Cykqice6NWik9VyBF9aIW/H4P1vXHYKNFZuD7Gr059KHpM8kd7g3mnwu+8NgX9fPRKmj8mBFHRg8JKiDW77Aj1ae04qzoLLZg/As80ZeMa4EaoxGIjfZNq+LbW7Yd2bz0O/yYdC+oBi5iWdi6NXBOF46M9OejiQ+Os3bAQs/N+rGPw/cHuQqBf548pJZ2kZmRim93j2ihf9UXjJlbjvS2ZKnhY/dDts+fgdS3Wm/c9SSPhRMqAf3HLB2fDQT34I5xxxCJ77HwwD8vMgMy0VjyImsj8C50GF+XDQ8KFw5vSD4acnHwfD+vWGNdu2w6564QtBUYkX/trRTyYFj7WSxYgnur+YTqzQyRWd/noPKmK3JPlJnD/8N2/s2LEPewFfqs8y4xqCL5Wzr+sV3OuUN2B4Cfztk2XKL0MFGZalU96+6j1NMtF1h+vwTB7t09BZvHloGqK9P550+tPpyC2f0yPz8q/PHgw/PL4fDpRE7T6JE719ASxt++8oULQduGhP7ekPK+HPz22BrdXhtnPSXSTtm5SaBsfc9BCMOu0H7Kz1iPRONsHsj+PDSYf7grzzn38cHr7uSosYXsCXCuYU9IZ7v96IF3ikerolbhV+1NPlCjy11tfCU8eVQEttTSgvkvklIzUF/vC9MxiYJiclsv7XrrjgIBkBWFUPMdGGnuL//N978Of/vA7NirPTqnJu+kvrVQAXvr8O6F5ungpxN210Zqej/n530gzYuGRRWGEG/5P5y87OTsCTQQYlw6+EVsAewPd3WPwYt1pk5uh9rryTr7gGxkw/0o1E6Pm+MNhMzUJcKNqX2YDgS18yy5/9F3z4h59Al3B0wUl/xooTXiR6tMKlPd5nfzUWZozLhTQ8MKfYmnIl3wO+ARURmCehTg8ang2Xf2sAc1T7Yk19KGymkyL9ti/1kY3v/RdScYLpO3k67GoPTH45eN9wT9AOsyAMcrvEan4ZOGoMfPzCk9CMEQMpuYGHzBf9bsXbiMgZa8AIDD0sLnsc9uApvnOZZOGlm402z3szVIXf/kcERg7oC2/9/lo4bdoUSMSPQD/gS3RodXz46JFw7KSxMOfrZVDfHN6s9ssf3aCUkd8b+k+ZHpKVvL+zoB3jNoSybA517a2tsPSDOcILzv9V8YdBqUgAq0u1M5mACdoD+BK5+/CvrxNdFXNi57vktn9Cdn6BE4nQs1gNDtPO7MakH/7IMaIM47BSWvSvm+HTv/3aUo2b/tx4kp8TvZMPKYAXbxgD3zu6L6SnJEZ9JRjtleW+Ri8FbVwz0Fv8BzP7sFjUK8v0x5ei0b5lC97FWLjJ0P/gGbCnpR2PrCVAPu4Nsw8qh8lZ7hvybz/9WaYh/j6Q6SUmJkETrohW4zEXP+DL9diEx4WOQJ+ZUHJoX7KmrWpMtIXKnfe7K0J7v5H0v8nDimDuH66D4r54bSwmv+Ar9hEyT59zxDSYh/vDlXi5TCT8Ed2GynKY8IOAoxnTO55GqetIhH54pl43PgrRDD3n4XuM2smBP/IoflCUze3/iR7Bl+hNcCLqwBwrNmzSVOg/fKQTidCz/W3w0uBYiate7pW48N4/w8J7/mTRhZv+jBQnvEQBMx66aiS8+OsxMGJgwCliXwM3U5njYWVOl0w898vR8PrvxrEoW3KKZvt+cfcf4PO/kz8khihF6/ca/LCjPb99eVtG1pf4e1+cD2ad+0MWKtFvov6y/ON5UL2tLEDCAXzphe3YD3iwDV5n5bJFzLmTUiT9j1a+b/7253hxSsC8Gw3w5TwSCL9yw1WttHabAAAgAElEQVQY4KcXzwr96/XjZde6FVC1akkATIMX37Tg5EsRBXUfp3l9+xlZZV30d5CNeZeMpOHDh4deMdhA/iO+PEtH04U5Vuyky66GUYceoSMRyt8XB5uucUkoOnK0GsGXhx/+5K/Xwdf//rtFDyb6c1Vc8AX60iOv5hduGMvOtPLUA75mGowUzEvwY+cSDGBShzc50UUQZD2MZvuSFERvx5LPoaVuNxTNOAGaEX3rE1KgEMPx0bE2L2l/G29usneXvFkYnnLTsq9h+4a1bizZnof6C3bGjOwcGHvE0Y4fV/SBTz4lwXgbIXpLHrsTKpZ+EVH/oz1fMjtHc+UrCkztkZmeBtNHj4D/fLIQI9EF3Me8gi+nSYFshkyfZdFpI1qJBuKNa2Q2V6W25ib4+j31pRT0vuH4pak+fP5MVVEwjxa/oU8zA/ClYufo6BkyB9NOOVNHIpTfXYOju1YK1CJ0+wgH38/u+C188yQ5koeTqf5clYcv0Kr31d+Ogwd+UgL5dGYlmHrA10R7ZFaLzlEoul7x7suGw9y/TIAhfdJtlfudXIiQ2F+WPX0/0GoYwyaxqypXogOOFDPEVreYsb+NN0dh8WF3y3vcBZe5sWR7Ls8H8//zJLW6EgR4YVrhtYhuz8EHZZ++pyznpf+Rw9X4IYMYRSrn1eHKJqCQIdKbNnIYXHf6t0L1OJVzerbtM/v56daEJAxoowZfonXoqWdpI4/J7UHva/T3XSe++DNueWYAbAi+9Oo4FXFT5kYcNA36FYdX3Cpa3T04VDw45XnljybC5Qi+dNyIEu35fv3vv1mqMNWfE1/82QkH5eGe8mQ4ESM4iakHfE20Fz3w5bURmB8xthcs/McU+P7RfUJMaAavEZOq/rIYrSmLHwxcTUq3Zq0wBGGv/dmNwR56qCHJTDz5mBOBQkuaJlX7Vm/fhqboD7QkyMKyLehXIr7UWFWB5udVtnJe+h8dNSJvZ0oiWIpEnbydbZULGSp6V518PAYCClvtnMqrnpH+qtEM3VwjHAELRiAsb0GnRVUhzCOP83EzZtqeqtrDQX/q4NICVXHbN9ED+Fo9hYIEvTB3+BnOHwf72+AlUxBNhBhEiaWlj98Vsz3fNHSsugdDR7722/G2ixJ6wNc2ppQZ0Vr5cuIivV7oIf3Iz0rYfnwGmoj9JqfxRqtgblmhPkchCJ1WwvvbeHPT6d6Sl/aAZ513iRt77LlT+3722gtaGvSB3yzd5kXyln+J1lDqiEJyAA8l/evO+Jbvo0ZKgsFMFfjSo16Z6fCbs09zKqp9xvXXhSbscoyrwJIQ/rcJJ2UKU6lLh512tuWRU3voaGD+dbpnss9Vou6WBgWBgF1AeOCFOXr3UAfz894aHAo5lVle+WPeiAL40jnfBbffEI3GtfFHlyS8f9ME+BEGh2BefkLqAV+bupQZsQRfscKLju0L82+dhIEI7CZpJWNCpsl4++TW62HtG8+xUvW490F9kLZA5OS1P8vl5d899FAj0spX1NGsH/wQklKcw7u6te+it/8LbS3S+aJgJTtbrQOfgSw6INXglX1i8gq+FESDPJR1YBnNlS/xyemdN3M65GDdXpKsvxq6PU4Re3+nEJpTpn/oqWeyM9eUZHqUZ6g/G1ZSWRl8afEb2gOWGVH8tnhOeWWu5JDDoXDQEAXZ7t+TUTLhkOl1cgkcBQhcJUhkyzGm84e/xwP5wpeoV/3p2DtqfC4zOU8daTfZ9ICvTmvW/O4CX94ek4dlwaI7p8Dph5nHQTfuLyjMB7/5EWz7fB4TklZGFOZUXBx57c9uWuyhhxpyAF/SH3nZHnziqVpVmrRvU10tLPvIvrdJbUthJ3ni4Eu/d29eZ83XcqB+QOElyQErVnu+Yq0imGfhXcizD3K15oaKq/S3e9M6JYhSACTJWBCik9UrH8YfNUtZzhB8iVY4FFeQsgp8afFrCsBnIZ3Q55tKWDfmpp+u9t/a3wYvTear8TgId7gi9/+3f3o20I0dPPnRX6iw8J/LZveHd/40AXr3sl8T2AO+Ko3Z84zBFx04EnofDIkl50PixGsCf/j/hN5TcfINR3Q1pUdBO17Ao2G/OD3g2GLnLJzjtb904u1Zc675AdRsXMOIUF9cg96xlPa38eakt3iTd8Z3fqBk10v7fqG45pDCLbYHP+5F8KXK9pSuD7W7snKXTIrt3N3gy1maNWG0C3eBxzr97Q7KLhOhbZndKrMQvkj6OwydseTkhm/S+zQhh2zoOvClMqYAHFpS64SVGRZ/U5lDTznD9sr+OBlsQkcIvCyHpcbqCnaxQrTCv3EFkhf9rRcVw30/HkF2Eptee8DXphJlhilYQko2JI66ABIGoSNK5kAcNTi+6A//nzDoeAbK9I4xvSA31I63/7AY7r1iOAsrqUp+xhvRocD7//vxt6Fp105GlsISrsewu14jtql44nn74/iNpbxTjj8JAxBZrR5e23fRO29AKx6XERPdokZJBl/KI0ckj+BhoU0XK8gpVmZnuZ6JQwfLWbbfTvqzOGFJJem0gJx4f546+1SLN7RP/THMdAJfem4KwOyeJSdhZWHE30XjJkF+f5y4hLQ/Dl4K/8aDbNAqZO4150b9ViO6rejZX46Ba88YZL9rGPXbA75OPTH8zBgscXWbOBwdM9Idgr9l9IOE4rNwFWK728SoPeje4Vd+MxboHmIx+R1vnEZt2SaY+4tzGejSeNvR1A7bxP0vnIO66yieW6vsj/OBLDPtLU47ObwQ8dO+zfV18M28uRbSe3A1pwJfeqm10fmyA5lHuf8N7ROIeMXzuwt8qb5hfcOnBlR8uumP7tLWpT1CnGx6R+x/mXib0oiph7GiPsGXip7kBr70kikAF7kJy7jVpMnHhe9JpFf2x8FWhaveMnRx5+lTdLiivV+eItEfp5GFE/Srvx0LZx1e2AO+qJTu+NhIKJziDL7B/tye2gcSCqx7Vl74O/mQfHgPHenoTmZK0egvRGfbwo8wWtZvmEMOpbLmRHYJiNueJXtZk/bH8asRlWVHU94Z3wmElIykfT8XzNB0+XwDNW2wfS1yoANSa4O3ywF4ec5fdkY4mlt3gi/xkZsZiNxnkSn4w0R/bQ6yN+BHCz8hoGrfSXgDVQTgS+N32LPPPhtiXXfayASAf2kirEpJPG/KsWEAVgm7r08GtejWvh4nNt5g6/73H/jmqX+GVBKp/ohQXlYyvP3H8Ri4PK8HfFEfXsBN7JvGK99goYR85dH3EElq8/aOQPSDhPwxoXw//B08MhvbeAKegbTv6UcyGSx94m5Y/84rjDeiswF9FPDiNiXIi7pS/X9/HL8qOXletOUdfdiR0FdxJthL+371zpvQElzZ1iMCd6G1zZYU3r+2dzQZqvmqu8FXwxrLVvHnRX9EA79boAHnbV37Tj5e6cjsxFboGeevubn5WsrUgS89cwVgvO3lJLlWL8Jm5OTCSGE5v7/tQbXh3LuWjnoE3eqq1y6HD/FaQZ6i0Vl656bA3D+PxzBtOT3gi4r1A27UHl7Bl7Vhut5TmcYBB9/AuwGTWST8TcC7hudgWw/AaGY8eRlvoULB//D+9xHetlWzMRAPuDMxGZ2yEvECB/lt59+6yarHjO2sN7Eduzo7YNppVicfr+1LNyQt/eAdBh6NbQpvIgF86dYsL0mer+obG0NHg7zQoXfZ+PB4RaFYRy2a2+Uk88frkd+j3+KVhKrnDXhfqQ6PiidMwW3TAapijnkifyj/iU7gS4QcAbi4uBhQf5bjR147C10mTeff9sfBSxM6eZdSoG9KHXhG771fXQRteDE0JS+dhRVQJArg8Obvx8EUvPKuO+63jQQ8Diz+JPBlbdcVlY+DMYMzYc6fxkO/vMC4UXQLoyyx/7U11sO7110A7XjvKuW3Yp+l40mBnutObn8cv05Sx1LeI07/Xqhqr/MpL/jVnDcYeDTKH1HSyjclM8tJTMsz1XxV9tFbkNBqdfoyIRgp+OISHzZ/9D9X/pz0l5qVrWWVyjW10+a58IrgE0G6mDjzBG151QNZf52dnTPffDN8BaSqjBaAaQO5vLz8O1gotAngJKyKOOWR+TmWnTlU715wKNmIHs97AltrjA26VrB6zTL2f7kxKM+r/jLTEuG1/xsHU0f0gC/pb698HDRXs/YUE5tcgmZnMT+5bRe2u/y2+2/VynwkXuZAH15iLG93SuE3VP2vGoMyLKSY0cFUh/PPJjRHu6X9dfzq5I61vEPGToCBJWM8zwciv8vmv4v3h3eyCzhCSWF2Tse7cU2Sqr+QHpaVlUPiF29Dwu5KEzLsHTY+Ilj5JtRUsDq/2VIeqlPHnxNTOtnZPIwfL02i8UCBHxRC1DRp+EtHDLVZkEWaSgDm3lsdHR3H8Je9ggeVY18Rs07QLvNVTLsJHOvBwepXNIbM1050utoheJSWzn8blj37r0BxxSzsVX/k7fxfBF+6Y/bAWllG5yIE3l4qcKNnpmDeVbPC0vRsclGBbxIOpd0BE6/cV5x+O/FHATuoD5DznZekGle8/y198h7Y8knYi5a89iuwL+tSvIy37uSvo60Vtq1eCV++9RosmvM6bFtHsZSdL0Lwyh8ddfGbqH1rq6pg8/Kvw9sICvAl+nnFJa7VOPWXD8t345m2RkhYNBcSli9At2p1JC5eSUTg29LE6kj46l1W5zyqG5MTf07CqWTn4EvlQlswmvl+4iy03uKd227Jhb9AEG0NERsAi67TXV2dLKKHV/DgdQ0ZNxF69cHjG5plvoYnbXa8TAZk9iGnK56aqith3m8uZ5uMLo2hlU18QEdCH7tmFMyc0KsHfFExpmApK9cJ3BTfSHJx9rureilAU0Xg/w7gm9BcGXhXSUWdacLf4WNy4JnrR2nPCcuUXfsfVvrBjT8KnQ+m8htxFdwkmzJJdnxXt0emqkfmRf4d7/Qa9uyGF2/9Pfzs4JHwmxMPg39eeQGe0T4PbjxuGvx82kh4+e9/Adp/NU1O8h4yO7JYx8TD0nnv4v3POFlowJfeyRs2ypFdVTuK8/1bW3ahlzU75wQJ2zdC4oLXIGETWvkUQOwbfNHEnbBxGdL+L6uD6qI63ymriWg+zRtmDeQhgi8ppaMLdacBX3pOUbHoAiGn5KY/LDvTqbwFgEXwnT9/PulhvF/wpUonH4M29P0MfGm7dx2F9hNimX188zUs6IZBYzi1RejZXy8q7jlqFNTG3gRfxkJXB3Ruehm6GndoV74EvvQOvWuaTMCX0zrlkAL454+Hu5I27X+NVTuA7qPmibryWvRlEIeqE3io6nFjLt7pbfj6S/jt8dPg9Xv/BrXVgeAlJBOf/2p2bIdX7rgJbjhmKmxba79dSJbfTV6a2PP69ZeLOf6W9f7NhwjAFKHN4WuyoGSClqaqnDzf16OT1wsbwvpAJwJIWL8EEj9+GRKWfQJkLiag8Ay+BOhYlmgkfvwqJGxYgogY9uZ+bv1OBGH7V6HMn1Y4fFBQMj70mJWTjmp1Yp6bA+EkBzO0if6QgYOceAwBsHxouKam5kxk2rZCdiImPiPmJqH5OZQcvjTcaLp1Zrfy8vNI6G1pwduNhHm2FJ0U1r/9knIQeOksnEe6xJ3CEyr63l5dCYo69AIesu5Vv+OeXms9tK55Brq2vY/hzbZhOCm02eJfcst2DPT9PnSuexqgTX/oX5bZj7w/OrE/XHP6QJlU6LfhZBB6f92bz8PmD8IOInR70pbgfnAk40PFYLzTK1u1HG4/99tQta3Mwr5q/FaWboKbzjoBKjbjSk2TTOSlG5IOOv4UDQV7tqp9Ny5ZBI0Y8cwpDTx4Btlwba+o6KnkpYJ/X7oV2uTgybjHm7BjU8A0/cFz0PkV3jm8eTkGpcYx0VALCQjUyWyBiUDbjuOlYQ8+K8eV7jeQuPg9SJz3fKAs0kAzi4W/FryxiOqUk44/+T36TfplsmNi5RTnpDuT3Y/iTRaO0Ir1eNAf7R9pzzQxA7cMvuQ63draGuBerNXw/8RcanoGRhM5NFBiPwFfCvlWLmyBtNbtgQ/xeIeHxnDUIJmc/3nFiB7wRS3t9ZVvsKXCYNmBJuYl7I8S8UcWLMeUmgsJuSPxbwRAaq9guMou6GiuhcTWWuiq3YB/GKsXwdtE3tsuHgary5pgzuIaS7V++9/8m34Ogw6bGTquQVGyeuGMkJOAaOzTckVgNu/ZR2HFx/NgZ1kpO6/qxF8aeunSXbkTjj4Wjjn3Ehg8JrxqUenWBNxU5XR55BX+wM8uRXyw6tRpsqcV8r+u/iH84fUPbbJ54e/gb50G8555RMdaKF+nv66ODtiy4D0YeXLYq1omllHYFwpxJUjHI3nS0ZPL8t/r9zTBvcu3wbWT7KEh2fhAPmDXDkigv2AhAhYR992GCq+L6N21bCtsrrPuNTu1h4rvwlETgZywdOAbNtuLHd1OadjEgyAzNw8aawP70fSGV/1hkZn4N8dOHY8hqcA3eEUh2//1mjhzwyYfDMnJeJZxPwFf+kZbhysEsbk+u+M30FiJX3xS8tpZqDid+3zyWtyvUXytmkzOMg/0289KS0WH5/XQC2jCtT0wLnTCkNmQOPZyFisacobhWYICBGy8VaYLpyb8P+QUs9jS9E7q8NMgIQ0B2iWRbwD1keH9w9e0+ZgMQrXUby8DukOYJzLJrUPzDt1jHUqG47cNLxt57Nc/gxvRjPvOv++DrWtWuoIv1UEATe/OefifrOzjv/k5WjnVXmFewE2QQPtforfwjZegdAXu8wvJZPyuW/Q5O4srl/OyZ04fHenZzud03dq37GMrDyphBx8e9gNyo6cqT3l/WlQKX1Raz+Wy+UBRQAZfxSvKLKK3oKIWbvna3RKhJCBkDpkRjGSlWPly8E2kCl0SraRLDgmEpaRXfepPi6WJaGoOsSAdGsYYfN6SyNyoadP3G/AlLWxG8CXTCE8VSxfCqpcetSnIZPDKhdJSEuFFvBmnjyICkutkLxML/u4By4Aiult/Cb1KIHHMjzAs5WRkILyDQ/1C7T2Ne3h5YyFx9MWQ0GukpjXD2XQs6YUbxuAVcYl+JwNLHcueuR92rvw6tFKgPl6Kx+tY8gC+t597Grz3xINAF6Hz5HWy6sSV1LuPPYDm4NNsIBwL8CWw/PTV5y368DJ+5z0THv9++EtJTYMJRx1rqV/8YaK/0o/nWnSuIlZy6vdZtgk9VXnKa0bP/3PeXQlbGwJHP2IBvlsbW+HCeatxng33IS/tIfI+8hS0CjiAL72bpFjsqOQfdWggFEYE+jtYRZcWv6EZQgJfGoHOt0dLFGXm6P5ftw1uFVOU56cz62hFgx6d9a0QLrymSWbBbb+0dXy/neVvPyzuuc8XG6q7wVLXZ/x+vCT0ORgSijHYPt2UJCQ9+AogmpiGZc9kVx66pUkYLeuuy+xOWX76H/XlT25BhywhnGElzrH1nQnG4/ep310PKxd8ZGFbng/ooSl/Kz75EJ75469C9GI5H2xcuthSj5vuxefL578PtPKPhL+pJ5ysrNJUf414AqNqtXUFLxPsM34qFIwYK2cbtwcvWIEAecacFbC1viXqK99SBPYz3lkB5Q1h64dpf5EFI+er3oIDVui55C2elOC+AqayoxDLTNtD5iX4OxxQO5jBLc8MgBXhssIukhqKYrbMHP0uwRWwnG9AKqLOrKIfyeAgeuR7QLFzeWegf9e98SxULPncUp3fzjJ7aj5ceqI95Nm+DkaqtqA8v+AW7/Ro5ZswkFYzwdVjkGHqF+qVr2oFi2dNBx3ruBLm+rvg2H5wzpHhIAt++x+xuWPxAlg/99WQimla2tCCUbgkWVRtQHu+Hzz9b8sj1bj3yt97TzzETNORjl+ZZ5le3a5AoBWv/BHdZrxtZ9Wn8yM6qjXhaPsxUa/6Ey99UclLK8ExZ1xgeeRHXiKwbFcDzHh9KSyUzNGRmJ0/RbPzTKS5Amnz5Jc/Kj9WkpXRVBzVQiOSayI+hk2eCnSTlZh88HcNLy9u+yYqwJfeCxu9XVhUdZaBo8ZCjnTvpQsZ9lgeHCzT0Aymoh8NemVojuMRU4heOw66L+75g6U6H43ByvftlQIP/hQnbuucvc+vBFVtQXn7K/hCSg4kFJFHayTgy7WGIEy0cB9ZTrL+aBU8pE+a55WMSJeP38/vuBHam4NnXHGyonPBW9Hj3y2Rw1UkZmcdfTJHk4nXy56qjhbPV80HKWnpEenv6/fe8u2wRnwVDhoC/YrD1gzVfOo2v+xY/KlSdFYuaIYdd84lkJabz95zo6ckFswk/mglfPJby+DWr7dAI57X9Qu+tN1x29IyOPnt5YwmT5Hwl4GOV2PP/qFVBAX40gsZLvFteH9JxT5CMS0i5I9hquxzlRh0uLIyDIAbuO5J11lGTwvYzN0phN9QDY69Db40CZUHTc+8My994i6o3741xLjfzkKg+9DVJdAX4/2KqWfla9ZrZDDipfaG/hL6H+nP7KwTlczR/a2HEFTy0g1Zj1w9Esg5y08Sx2/9jm3wzdP3WVYK5BVtCXWoqGT5/A9Cubr5QFHMKGv5x0hbtBLG4GN86Hjaq/eXSN4l7yIA8+STv3EzjmEU/Opv+yKMUCUlEXzpEV1MMPG8KyMGX14N7dPevHgLTHxhETy0ansgWIfMhOY3Bdl4ePUOmPzSV/BHdO6Kxp4vVUX6IxlTMoWPVw340vvpDiZoGY+4I5bf+R6rmy6DLy1+dYtwu7+5pEynzkLmZy9JFpaV9dmZqWi06G3C1S95hvLO3FK3G68ZxEkqmCJoDLjwuH5w4kGBL1JOb2+AR0gY4T+qyZ4e9/Cn0BYdNSqwHp2hfmFudlbQxCx2tzCurCk5tcesib3g8m/ZtzDUVMO5qvG75NG7oBX7OE+0/ULOh06pOnh2VkUvkvFB9DhtVn+M5oOxRxzlJJ72GZeXjlqVr18TEX/jZsz0Db7EIAUB2rNlQ4hXPl/JzE+88GrIKAjc2CU/c/uta19auf5swXooevoLOP/91fAwgjGZp3c2tbELP+iP/k95BNTn4Tv07tWfrI/4qJHIM/GXWdgPJp57ZTjbAXzppcwkdd9W4cfoaYdH+vFS/NJLL4V445Znsh7IyTVIqa4xOKHRh5ofIVYJG6vBpuJbFp7/pjO/NWgVETvz0sfvhpbagNd4JJNL/4I0uOWCYkvVPeCmawlrvhMYyaZ8E4qR0kvIpVi74e/YaIBvgG/cI0av6M6dX7ueC7/lwqHwvy93QVlVwEPVTW7VOCC+6QNz6RP3wqFX/z5EohqDE+3GsZCXrHFYQaXr6LnxoXvO6YXoxgh8if7UE06B/959m44VZb4s75L357Dzy3K+srCUSXofd/jRrKw4p3idX7Z/tQB6FY2wzFeWqhCM0nsVwPRrb4Z5/4dhcz0klVwyfxQx68WNO9mfWzKh50ZDfM7pTb/uJkjNCR7ncwFfgt6sJHufJrlU2x6jDvP3oUZ8cv4aGhoo/ugb4ravagXsGDrLTXkU+7nv0GFG+tMJGw/e0xubrODbXFOFly08wOSSO5+RsMGXSH93XDLMcstND/iaaTBSsJRriQa9hNzw/h31i0hXvhYec4a7gi+9n4ObWfddicE+DJLb+F36+F2WONFEchOOBVUieQsH2o1lkY4PXhejHUPwpXooJGRub/NVoUp/yz/GKFA+vv74/JdT2BsGjR4XUrEf/dE+MCvncvRm7FkXwYCp5luEKrn88MeFixW9gQcfCaNOCRy3Ujlcyf0Xd29YpC4x8fZQbXvkY9hQU1wTaYry4uVGU2SfKxUAa8//mihvlOH+r5OwqnpkBcq/o0mPbohpaLd25q8fuxPaGuoiBt+TDi6AMw8vDLHfA75yS6p/RwMsrYMtSrcupeUxstT/ogm+jF5Srk0Zuv5y0sH58J0jwv3KVhAzVONKnkzp3uAlj91lKd6IUWh2CMfwuLy0Uphw9DGWd2V6Kj50eTJ/FKgi1h/jFGhhynGON8aF2JX543pY++UX7DiSlyTPV+NmHM2K+9XfdvRkdwNfVgF+KBz710fDK0UHpnXyOhRxfBQremk5eTDrL7g4oo8gl5UvZ5AivolJbg/2TPr4M8U2TleWF+uYJPtcqQBYeRBRJkaVqDrLcIyA5ZZMhHWjIT6PJj2KeEWez2JnJrPzyhceUcpryifpLxU/uW69aGioiG4ydaMZt2AUZPyA4i85KzbgS8EIJE9ot/7yN7Ss0B3SqmQ6fqns8uceYOZoMW1l/hCBHHG8zfrexQiSAXdS1Xyg4kWVJ/NHNGdhaEo5X1VWzvM6H0w90T0ms4oPLi/dkLQRL3MwTSr+xkw/OqL5ZffmdTbLhQ6MehUNh2P+8qAju07yOhbUPIwlvZl/vh9yBxcbgy+x2EvwgFa1hwy+VGbYJEfjsEVylby0ApbVoxqtRfJLKmK6wSa6a8t06LepsKqyqrxo06PVbyvGhxUTgW8rrn79Jq6/n5wyAOiidUpuk6murgMK3FAJ8S9vDFa+oUhA4T0qk/4ypHcaXtgwyNZ1vIxfKkyWnpUvWM/2tiD6UjAaebyR6fSY8y+NCDxU/B130eUwWDDL2oTSZMj8sddczNgTZx4PFJVKl1T8yfPfSjwPbJJ0/FHgIr+J8YcDZcfSL8IkXFaCI2afBZMvDh1NtVRtIq8XXmNJb8oPfwHDj/u2J/BNRn31Cvo06NpDZXkZMkZ/s5SoDwd5bftEMgCTVdxiGXcgpmyDorF6Jr0IqyQuZUabXjt24m0NGPZKSJ0YIWj5fx4yYUf5Dtcfnfn91XeGsHdMJlMVsfgHoyiZdYPC7xPy4sUKckpOUgXZkN+y/6b+bDFjB29Y8tJfbvjOYCjCs8E8eR2/vNw3T/0TOqWYzFua8eO0HceH6LuCs8X5f/objD/qGLtABjkq/sYfNQvO/8PtBqWtr/idD9KzslngIFVS8SeDL5VbueBDVXFLnhN/tP8GWL8AACAASURBVMdIZ4K9JpE/Co/Lkgv48jpm/Oo2GHPmhZYqTeU15TOW9Eae/F047Od/MpaX89w7Fa8hZN8saocrFfhS2SHj9NjGabvIa8NXGYB/KirWhZitDejWiAKFUwa96FVYG3EpIxb0CHzb0PInJrpqkM5I+kmi/n599mDolZnUA76GitwnwJf6Ct5qJKaogS8RRdpewJeKkAn6t98NTORex68oR0NFOax7+8VQFo23NrQMVYj3JOB0QpMVrR5/9czrcOIlV4bM0RalaH7I/JHZ+QSk8aun34CkFE+RcCOeX8bNmGXjUuaPXlCBL+WvW4T7wC34haJJJvPVSH57nIaGnC3zV712mTcwwpXgrD//C4YeHdgDl+lRfTp5ZV5Uv2NJb+jMk+DYmx6EBIxQpapHxQ/P65MSOFqq8nbWgS+VzS3s43iHs4oPhf4sLugyAIdc8QyJWeQcOn6SUhkmnc9JYfKzWNBrQ4eScjnyD04uS5+8R67e6LeoP4pW9MPj+3meTHlF+wwYSZrxCh77orx0pSBPUQVfJJrUsIH5lXhN5x/TF29MCmx1iGUVk4Ej6aVBZyxWLuhdW96SCOQnIZt1KVTfRTffBX99fxGcdPnP2LEcWlnqEh8f9A6Zmr912VVwy3tfwkU33dnt4Es8jj9yloVVr/Mfge/6xcEVqCS06XxFHtmmScVf9eplyvnXiWYi3on7rfteAvKOlpPX/iKWV/EXLXp0ucTsO5+FxLQMz/JmIOJl4/Ejr+DLZdOZoT3IG3Z3R6LyOWAWUcADMUubFSmW6KadT2583e9Y0avAj1fLNWwIvpXfLMRA59/oWNHmy/q7EVe/tDLxM5n2gG9AzfEK5nSfb8KgYyDZ0Owndxrqz2rvaVx91G6UX3f9Tf2F+t+N5wyGy/+5PvS+n8mPgvxXfPMl9B0X9h1pp8AKuBc8EK05cj+nyghMySStS7Eav7JZ3Gklo+JtxJRp7IOB4jur5DLR35qFn8JYPNMrJi/yjpxqBsA6/hp2bmeOWF6CbRB/tAqb9cf7IK1XPlCsA0om8qr0SHk6/nTvu+WH6GG/noL71tOv+TMiV4qyHjdaA9Nw9Usfk9I2iml/KcKQlMs+es9SjUd5LVF7bCtgj8QsjAyR9n+9dD43xdHzWNLbLh6zCE6mK1981IQtx8YY1i8dLjy2bw/4Gmhyn/zYwH3apD0rfU0G1J/V4IvDcheaE9u8Of6J+vv+0X2gZFBgFRzJZLpKcsaiZtzekexbXr8rD1X3ieZ8QCbv0YdGduvNxiWLLGx65W/YpKm4fSuviaySu83PtWvNFwysX/Bzwwhuh2OQjtl3P49HlAJH61Q6d8tz48+tvPyc00vNzoXjb38Cpv/iL77BNxVDTxYmooOtT/Al3mSM8yGvZQUcAuDsbLxEPCEhfL1KUBNeBu+QsdaA1fE62Eg0cXBUY6SfVr73GwRfOg+5fk44dJjcMVS/VY1x3RkD2fEjr2mfBCMUMl5Xqlz/seAPKvAMZqf3c6A68E3oaoWuCnWAfV0/kvtLEnqZXHf6wIhXMjQGyCs6lHB8tOBVhVVt3vq0VzDSycnzY0Fv7OEzbdV6mf82CEeR/PCXmpGJFgTLAsnCj2p+kflrWWcGwBbwFWoZdvwZcM5Ln8MADGzhNZnw54Ump0dBNs5+8TMYiZ7bpg5mcj0k78Dkdmvs5aAPg4pvuTz/TStgnlTl5PZQ0Bkg5oUAuL293eaHb0AszAweaOfHBvx0PgWjoaxY0yvnc6dgRlz7+rPWiceJQXymaozeOclwAa5+vSZ5MuXlYwEePWZx99ZxbQ9cBXeVvoGEJA8+DWnqz1rwJe/M0jdx9VuvKW3P1vF37sw+MCDfeo2avbQ6h/dn9iH6zsuBl4TxQRc1mKZYj1/Gh4/JlPPP+Rt9mDVClJf5j2jtrtgBNTvKI7LUDZ9yiFKtqvlFxV8NroDTDW75cQrakTtkGJz51Ptw3K2PQkah2fxlyp9SOEUm0UvD0Jkzf38PfPvRtyF30NCIwDcdPRf6ovNVKPnsLwNLxjArRYTyhr5eGQDTLQ14SPhiUQ+qxlXoKZRFV2rRHsq+Mti4GaIWPUrq6eSRtIe3+tUnncS1PNM1xhUn9YcMk0snBWq6ybQHfM2aY2/pj/Zru7bNQyZF+5adZ1fw3fY+7v2GHbvsFKw5TvKmY9+js+dek9yfV7/2tG180Jips57YU1azL80HRRMmh84De53/uPDrcRUcieVvCDqvyUluD3qu469s5TcwPF3fB1k5l3CVrH4EwNGnnw/n4lWBFBucwFCXvPCnoyHm05WC0376f3AeXnk49uxLGC/y/GxCh97h8hZndIZvDfMJvkSPnA0HjBhlq17XHrYXAxkX8vxEfkUSEggdEvZIjNEi08m+NNi4Aipp71cC37ptpVCxzCyyja7z0eR35cneJj+nybRnparpykL23tZfV9VX0LUZL7bXmKNpfGhXvmR23vQKdFUtdhc0+IaJvJd/qz9kuS2JhBpV/XnHks+hYUf4Ck7++g4XM/S+Nh+kpKSxe1/9zH9cJxuX4LwRwR4jeY+LSdUeTvxtW7cacqAVChSnuFg5E/AVGKAwj4f85P/gwg/Ww4wbboeCkZYtzEhXghZZC0rGA51NPm/OCjj4il8bX6xgISL84PIWoi7yuVUgAvDl/Vn+SHJqDw1vI3l+Yk1N6HYfBsA+iDFaA0aURPTlJzPaHYO3AxujutNuTlj/9gukCJkl22+nwXEWxnum4BumyWQyNaVF7/XQC2iruy0HXXvWQ+eqhxFIv0IGwiZp6s9q8MXbhHavhM7VGOo0Sitf8WOtIDvZNUY071fa/oy8q/whaB+YQqarUneM32iYnWWwHGHoiaySmfS3aSm1ezD5mOzF6F/a9lBVHszrwLPa5WtXw/CMLstlA37AV6yG7tilyFnff2MJfPeVhUARqPqMwWOnuPUoJi/4QWV7j5kMB116HZyDNL+Hf5MuuMr4Pl8HNYRWvsnoCzGUWwR8tAevQ+zP/YrDAa28yCvwywjQ4jfkctfZ2TnCJzFGt/fgooi+/ERldtfgrWpPwfEXMseHWKDgG27JbXBcemI/NxKh5z1gGVBFd4OlroEibo/2RjRHoym5ciG7UhDoVqMkvNs3eL8v827GIBtJDWi2RtDtisDbWZRBp78fndgfnvygUicuy3frzwTANOmKqROPJBEI98fIQmLqrvFrenREFtyJv5Kph8HcR+6Xi7j+5vorXY7e65R8TvZ0mxwFfKjbVWWr03R+plVwEcZkKMkCWN2AMbw78UPQ48rXVrmQUYigeTiuVgFuArolrhxvYqrZsApqNq6BPaXroXnPLry2dQ+Q/wAlAu+03F7sOsS8YaPwbzTQanfgwTMgHc3NTK4o8sfpUZuMQNMzC4/usz2If7m/9CkayuQybQ/2sjWN5JZnBsB0RRISGy6/ZfqbBO0zpDj8ehSFZURjRG8nXbogpT1bNsLOlV/L2ZbfbpNVCcZ7Pmpc8F5KR0p7f6VauacNPl5RCyu3NMKabY2wtrwZanCDbw9GBatvYiEXICczGXLx/q58/BuFso0alA7jizLhqPG5nlb5RCticJP0Gdf0EFjZfb4V9v5EYKn49nPpLf70d/iYHBiH7UVtrEpu/ZnKVOJ5YBobFMhfTDvQGau/4OclT1bs3RiNXxXfKvnEPDf+RniMRsXEE0wOBJx11VXQC0NL+uVv0KixsPrzjy2ieJnsK0o3srIFGO+4PzoelTcqNusjOLcugiUBKIvFfOJZvuWNBfiS/APwzG8BIVyU+1/vwcWRgC/pqYRbnpMJfJ999lniFz/RvSfeydgKmFKUhY0VvYbOxIDzlSTypvdec1SCalDJg+NHuPo12bPdW+CxaF09PP/xTnhvyW5YWYarNY0ZkTUnCkKATH+l+HvJRvT4DRYgGccNyYQTDsqD7x/VBw4eqY98RLT2lryODSo83J/5uwQjsV3/6CabKkz6My+0ed4bMPmin1toNOA3WgPu5dDl5m7gZqvcJWNv0KM7X7MwIEXDnsDWnAuLStDZiivQvP7e/D+oHi7voNFWAJbnFzeeKksD7UzlhqS0Qx0eg7Q4zEUJfEN8xCG9XATeIgTgWOBHX3Q49puC4y3vo48+gpkzZ0Ii3U9YX29+5EGsmA9esuUXDsb4s/sI+BLfVdYLj0JilX78jla3JpMVBfn+HoKRW+ruyb4WL3X9x2vbYOJVi+HwXy6Fu18vhxW4InIDX1kOcTKgskTjrv+Ww/Trl8Kkq79mddQFV85i2e6WV+bb7ff+zt/3juoNdDZYTCb9WXx/y8dzlWrcifGh9wZYKpnRZJryRzqRgy1oSCrBl+opRwD2mkT+BpWMDhX3Cr5UsBJXwJweGVrGZnYBXUDPUhyCZZAzT/wlYVcuTEmAwekJUIR/A9EKk53QzoxKGehwNRplpgVCLLYpCgcOdg2YYpEp+EMcb4S5tPjlzXKmqoBTnkiMbvKggOyxEFY1STjxRc/cBhst+KrEoPJBgm1NDbAD9zNUScWHanDMGJcLgwqdz15252Rfg6bke98oh/v+t52tYk2TqbwivVW4mr7h8c1w60tb4apTB8DVpw6EfHQC6k55TSwPsg4OBP7643ngI7FvfrR8DxPfT/uWL/oY2psbITk906JC+pgdjCstDDQUTjGa/FR8y+0p/3abD+T3h4wdbzMBy++o+ODzwdY1K+XXHX+L/DXjvikddaGkml8cCQUfVm7eaHGIJbAag4C0ojkVg6iYULC+w/iIwR6tjROXjwMC1yEItiMyEqBvakLoWFFAfx2oryTmFJiIzo+7cKprSVCHS7XVK2W49Rc6B1wwYBDsLCt1IxV6LvcXjLtxBi5+X+MAjMtX8yQTI5v4vgK+JGU9msxUHXHrpx9AR6s9woAsL9HQDY5zZtiCiVkU212TPQ26pz+shBse2ww7azXLfU2Te5FXRYKA/i/Pl8F9b25nN/NccfLA8Bm8YAGdw5CKnpjXXfrbH/k758jeDID9tm8HXjiwbeFHodtz+DhobkV/AQzjk8MdYvdh8CWZ3FbAbvrbtnaVWzdmJm4CavqjFeu2NavYynnn1i3QhU5TuvnFlTC+UFOxHdpwHqNjVSxhe6QjaIzHPeEV9eq5T0c3XsC3N652D+1F9/gSDIcTB0uaF2jO64PfLkkJiTAEwbwa0bisuRPaxA9DnaDBfDfw5cX7FBUbA7Cqv7S2trKLuz0DsIpYnyFDlYPaRVbXlapbefm5qfJ05uctn9jNzyp5dYODTHxn4vEjXeou8CjFmyUuuWctfLbaWyxh4tuLvDo5ef4uBOLr8QPg5c92wcNXjYRh/dPZo/0R3Eiu7mpfv/o7Y3ohXPPwJuhA72Ux6fqz5aXgjy3z3wkBsDg570Jv6JwY7bl198e97sYbUoHJ+OArYDoSVF2+lYEsgTLtzdL/y1Yvh6a6wDWWJvRU7aDLI3oE4NVlW6D/8BLLtiAuHGFyNoIwekbT3r1bihfwHZWZAFNz8TIbiWERfAmX8/HUJ4FwUnAlTaCdiw/WNnZCo+WmHbXkpvhBpQNOxx+pCQm5Du3LFr0cgIMeVM70dMTIccFr8iKsCW1TejT1VCvMz1TH1s8+sFSlk1fHzyEl2UCmPlXqrsn5zYXV7Bac3Wh69pq8yutGn9P7bHUt23e+94oR8IOje7O9Ga+pu/TnF9z2Bf4KclJgGvbRz9eEP8y8gC+12dbP57GmkyfnagTgIjxvySc/7+3r/4o4VV2m84GqLAVaYEBGjSok0/FRX1MN1x4+FqpwNdvRrh+HpvRUPKryRHoVCPb9MTaD/PGSglaKCQjCqxCEa/Ws2do3VJ+LmVjFF+XJ/cWU3tgsvAEpZFoJU+ftS01EwQbzEMnIxUHuf6nYjmMyE2G1Cwh77S+9cdHpllzalwEwNxqx5bBTciJmwoxI26uwTnzRMy/0CJdU5mc6z7Zny4ZQVU7y6vj51tR85aPumJxpUXPDY5vgu7etjivw5Qohx6yL7lwDv3p8E0gLMKXOxMzu0B/Vtz+Db3tw74881nmSAca1IfCFmo2roXl3tW1PsAVXGM34Pa8aN250vYxfN1r0PFJ6GTm5bI9PTCq5nPRXgfuwewt8iW9abcvgy+Wh1eJEBOHBaJDSyhUHe76D0pzBl4KoZKHDFR01UoFvWN4EGIUgrLsTx09/6VtUbOkf8g+tXsMvDqb/cgDuLxMQf7sR61tkvgL2I6wTb17p7abwV4q0ffFnARsiPnOTV1GcZakAuDvAow33Oi69ey3c+2a5jjXHfL/y6og60SOP6YvvXAttBiYhot8d+qN6DgTwJTlPPCjwkegEHrp2ZfnYIDu+Vjgq4spoTwefThwpWB56Hb9ulKNFr+/Q8FETp/7sxo/qeXfQq9yySTmPifxQhKgxmZ2QInjHs34RB+CL1mOYhmZnOfH2JYe/Xgi8ORRiUrHylcvRSrgoXU9Pjoim+3jhdGnbVZcM25dhLudIe+WFCbH8/gN1vFjyozU4OFE/9Go0/kh8UjGRVyVs79wUmCqdg+0O8CDw/d7tq+A/eK7XT/Irr64uE3rPzd8JZ/91lSsId4f+SI4DBXxJ1inDszF4Ct950rWiPp/ad8fXn1tfCJolaxxMmiqKfsavig7Piya9fsMC4QZN+rMTT/Kz7qJXsWm9XLXyN8WMnpzdyWJHxwv4EqOj0fRMx4nExNsXF8ZAB00YnhqAL6fRG+3vGdLHht+LMwoGsAWsLXloX4a5HICVQThMieX2dvb8pYqiOTj80iMX9TqN88F2PH5kKq9N65gxa2Ivi6dvd4AH1fHTB9bDnK/MggbIfEcir0yLfnuh99aiGrjkrnVac3R36I94PpDAl+RNxUnt6PFmUdrkNubtu4OsRTwJe4K0p2ho2IiL+UCWT/xN22pe+rMTLf6sO+nV7cJtAsNEoRppJTwmox3DNkoWwm7e8yWWiYMSNBmLifAjsbOd7fXSH8NmD+DLadHxJUqR4lFOgd3Z1mP7sr0g+5o8yKkpMToTlZHjPKAjFZYrj//rl95uXP3SxC6nTnSUqF5tv8iafREaJgr3F+YPgO+5icWjPdn/GvdTn57nHONXx75p++rKy/l+6FE0rhuf2CyT6jE7BzUS7f7C6R0xNtemc7cMsX2rVi1hnrZyUAcaLrvbpQlcQdjv+FWQYlmxoNevqNhWnZf5QC7sZ3zINMTfbvT27KxwKm55xvWXj9HMpuBqeFgGfagRuvnf04/EjE0BNkRrcSLah7MwyAbt9dLqlyUf4EvF8pF2NPpLenZO6Lw2Y0fhWWrSX5QA7IVYdn6BsvKAlmIzOPyaDfYoJgdS0u5Na1iAATGZKE98f0ZwUuuuldtrn1XtE3u+FqUqflDkLALicH/pno+XWIGbQkTHrO7qL6K8R4xVGry0fMrzAQWsqd1ephz3e1zM0NGY/ERGY0VPPtnhdT4QeZT1R89iTW/PTrMPc1l/tADuj8fJDu6VCCPxMocMAmIPickV4R4yneWlRE5TufhRUJDYDngSKXwMySf4Ek26ny6lCzupuLZCem57vioVZBcE7kiOpH0JgE8TiXsllp2nv6hZblxWj09hqWik9Gol8zPvLNVrl1v063Vw0H2rk4ZlddvKbUtlM1x5v9kej0UwUr/PLzWZDv8dDXpX/WsDbMKzy3sDjHRyqfL3F/4mY1/NkTfYVAI79Jdd0pjhxS0xhyWakY5fmcVY0hNPdnidD0Q+ozE+/NBrw6ApjbW7ZZVZfjvpj2Ia0CUbU3M62dnhgRjTQ3TWUhHm86ntmYeVdDLOTwMx2hXtSRdi4JBUBVjKR41s9WkyiL8O/DjIEOfACPAoO78w0vn0JALgkDHbT2fJwauzVMmpcVX1qGiIeZHSI+wVQxSLnaVmfTh0nJ/BdtDwLNxLxLtRFWHeor3Sog/SH6LH8x6M7ew1qfTuR15eb7TokSyX3L0OnbLsEkVbfz300LKIffUgdMZyS07tW702eO2eRKShM0G5Dxzp+JV5jTW97LxCFl43HsaH3/HmtAr2oj+MJotm6S44BMF4LIIxXoYG2bgJK66NxfnU0lYu4Es0iD7RHIcr7mm5nTAIr7eki2IJLOWVaqTgS/RC+9wRgC/Jq9oH9thf2GVNbDPYabDJnV/8rWPCr5lYVZeXzqIqT3m1GCiAWx3kzlK1NrD/61F5oaomFWd1C/gSeDz2XsVej3BFgvvtL7r2WbCqDp7B0JnnHxN2yO8BS522rPl+VuaThmXC/BWBuNCqWtzaV7YacRo0hurwqF8erl7EvHibD0SZVfNLAn6k5PTuA9XbylTqcc1z058rAekFP/R2V+6AASNG2apSyWtimSTzNCEGXXMICJjk1Erh5SnKVCN+PTfj/ERhH2khQmf9O4LgSw5TtHCg8UzHi2h/NyOxCzIxk27Rks/ndrCVKn6NS2biaIAvKQMNllGxxOZI1l8f+EH+ZJDnp3F5q+YUWD2g/TaurZcEM6JFj3s/y+BL1ezZuDaiL90JQ/HTTUqxAA+6WOG3T5XKVbn+NmnfLHSFPAqPUU3Dj4lR/dJgYF4q5AQ9Ieownmr57lZYU9ECCzc3wIL1DdDYal3u++h8Ib45f797uhROPRQv7carW2KhP4X13VV3fsDNiWi80Juo6LOcb5P+UrNBf+MPeUOzmQVTtMYv56076eX3G+ALgE3059RH5Gd+6alWwNHUHwFnLwTjHHSQCrglBzkPrSxZD5DFEX7bnxF/zWQKo/BWPCG9aIEvkUxH4Pez50tlRf2J2Odz/stLxpTPvjaE5IUY34iWmQuRi3CZH60vZwJgJpfsIIB55FDiN9HgGD/UejtMrMDjHrxCsCrKFysMLUiFi48ohNnjcyGd4tQpUn5mEuRnZsC4ARnw7cl5OEA6Ye7KWnjy811Qtqs1oo8XcXKp3NMG/3prO/zue0Nwha1gxCUrXsBNx2Y88TdB6rOcZ9PJvm7bZhpQZAqxiVsfnE6iOdlTJd1NLw8B2Gsy1Z8p3UjoyQDc3fozlZG/x/lrkfZoowm+tNLPSkHvblU4RBeGZf1l4XWClLzgpVRFXiIWDsem80EsBzeiORPRAstY0GM38cngi1kN1TuBbnnxk2hwUF8Zi5fS8xQr8KX7fO9HcPKSnAZvGn6+/gIvaX/px8Ph9Cl5WvDl9bFvl+AHKwE1AfF/LhsGVx/bB1JlG5Ihkyr+7sNoXvXNis1gF5rxBG4qVuONv/FFmTbsVLWHbnJpb26Cxl1qT1u6bUyerJhO4uRjnFgx4Y9WwF6SF/2Z0I2UnuiEZSKvCU/8nVjSQ4NbIEV55cuPLqXh/fXqpYZeAyp5yQlLNz70lMJPkpKSCoiP0CFeP8ToGJKKuXgabK2IHG14M4kt4R5FXXmpLdskgw+O/miqzWabCrEN6vDvuTuidp9vEa56n7p0GFwwvcB2SbtKdhF8xed0VvBivP3p4QuGQm/ypPCQdJML3aD0yFzzM4xUZbyBm6yGeOSPPPf7Yd/lSdcesizi77pt6rHT2tGJVhK7A000zH5hhv0dHQn0F7OLH3r17eckvuWZH/3piCelpMDAkaNhyLiJlle8zs/8xqV4n59l/pppAzlG4MvbyRZwRNcYmC/zx15F/nIK3QNQ6cgG+cinWZMt37w2Liec1SvfcvkzZy6eBlt9q2JFFXQQqNu6Wacjbb442Ir6BO7cjNXKlzNBzlemyWkyGINXAt53bhGalAMfDW40deBLThXcUjRxUAY8dUkx/AzvAF5Xab9PWa7DiT969/H3K+Ca003Dm/acGyad+el/xX3TYEdNq2+HulocO/0mHWppXjaPoKWJnPRT+TfZPrby5QJlugQY4u+59We5/4fo5+ZBv+LhQGeOB40aC4NHjwO6Z5bAlzywv3jjZbj/qovZ637m5+aGBi14xNP8LFtOyVjZlZik7Jc6XfJ80pOJ9zStmZoUp1Zk+jrwJf05HcGV6Yi/hf6SmdzZ2Znpp3E5wWTsKLK3Wrw1bkMXzgBiElzj6yu2OunK9kwebMXosORn8iPCpiujRevqYfXWJhsvqgyZv0A9AdsxrXyjDb6ch34YC/ue7w+B8x/dDNXM3q9OTvzxEiu2NMKSjQ0Yt9ju3CZSNdWfmhN77oFGr7hfOnyxtt6mCNP5oH77FktZDr6U2YTHkfJoYthHwZdkyMx1jxhm0p/z+vVn4Nq3aHgIaAl0VcE+RDBKywz0f9P2kBuyqW5P3C+OZPDl/aUF52wKmuElmYIv0Uwnl25HBzH9ypfjW0pa4H5zLzxK/SUjGZn2TiVYIxFLDn3mYmacDjbLkVnpXFrTripj/akGG60iFH4orjS9TPZipCgnwir++OClPd+/nzM4qitfmRcC4X9gHZc9WQpk9peTE3/yu3RhgxMAe9GfTFv1+0Ckx603oj68TPbNeO8tTyL4Ul4DrS7idD4IMe3CX0auc4hdt/48dfap8LMHnwGTiZr0J4NRela2r5Uvl48AON4XRzr+yAyd7SEKlxfwJf1Q/GunpGoPuT8np3r7RJD7Cy5+M4gNqwuvE1fCM06MTCUsuXRmJ7ImwjqVl5/J9EIBOBSHwukeYJMkK4/KUD2D6FoOj8nrZP/eEueINlS9jj/O2k9m9YWRQXO5G7vEnwI/2Vk+t48NMkdfcqR9b8SNP5knJ5m96k+mLf8+UOkNRIuImLyAL5VrCo4dGXzpGfnRxZslTDfZy/2B/87I1q+ATfozveMXfGk+Tc92D5ai453qbqpvCD+O4/mZMSnxF3LE0gko5HsFXypK1xPqkowf7D2F/kLYpyMk5Gv6iz8AFoklpyEAK5gz4Im9YipsJPRa0BymCyzevHuXK2mN8li5Qlz1eUleJ3s6mrOyzBqnWq7PiT96l44anXtowGVeLiv/jgR8Oa3zDyuAQsEpy40/rwYjswAAIABJREFUmQf6vby0QXnkyqv+VLTFvAOZXkFOuO96BV/SYfPu6sAKTXG6oDUhRflR6N4e9pXg3ppfdCZo0/7MnaCcZHaa/2gF7Cdx/prr6wLF43x+VrUvc8QySH7Al8hSQBBVcmoPud2TU80WX3I5qjc43tidT3j3hXmSiSWnpMb1ly6eiIC2BP2GvtsKWJZXUB5TWmGOufevn8n+4xW1bK9Yl9z4o3J0zpfCD7qlaIAv1ZGJh+gvPyqwCjbhT8UXjT+SXUx+9KeizfMOdHq87/oBX9IhM0ErwJc+dttwVjWcQ0NN5GXyc2rXcPtGBuYqJywv/bm53r6/bu3PzvzxPWATWfk7In/N9Th+9kHwJVlMjun6BV+irwp54LX/Mf8nl+TSXxgAm8E4vqgilppO5wndJ3eZT6/CyuXl3zp6beB8pVZLrf4uXZVc8mRVKKwiZJ7E334n+xVbBDOSVIEJfxThioJsuKVogS+v5xS8Hzkrze5pLevPiS9x5e9Xfzr6PfQwpCD2XS/tIeuydY/CehTc5iG6LQ4fjjIt3fjdm2bslHSre4zJeBPlauIrUFlY/G0ir8kEL5KW+WtvbY3rxZHTx0EbDVCHRPoz8XbWkUiRMMukPWRabiZouT2ovDTe2HeAfZaUa8LfOmJyJ1UUtWX5EdZGRMhwotdCreyQ5GsI+as6eWVS+QbnXyOZ7NdtUwcJMeWPwkvqIlxxWaINvkQvFV3DjxhhNaFJnU9Wpe332m0Bz+9I9Gcjihk99AJa6Z1rbr2R9Uj9r026wlPe5mkh85NBchq/qn7uRjJa9JKSwyZ6FR9u/bm1Sb11ZMpfUrLR1MzUoeKvo7NDmd9d+uP1mMor8oXB9rSJ6EUCvkxf+MfN0H74IxpOJmhVeyj6Cx2gcQdgJ2JkgvaS/Aqrq8ONXivt/zqkDkWADid5ZVLpYsxS+SH+jnSyX1tuP37khT+K7eyUYgG+3IFrmhDuUNH5nNhiz0j2SPUnV9JDL6ARGvkZLn1X1h3/zftfJwXb4Enl4Oi8iGEl3cavjgddfjTpJWHIQkpexpvIV3tbq41NL/wlJZt9IOn462jXHwe0MRbM8MKfjoaY75cedZ12GqxSInqRgi8nSdcr+uWPaOgsFLr2kGXB30muAOxGLCXNHIAjEVbBvJHynL6kiGZHqzVwhJu8Mh9pqs2E4EvRmOyrpdjPXvmjixV0KZbgS3WODNZN7e4nVWFU/+644jHW57hNZY9GfxHrcqPnJ4So2P9CY0cBvsRHm8sm8N6YD0zbgt7TxSA27c9tLVYA9iqvuALX8e00H3RiRDIvySt/brQjpdcqTRtEL1rgS7wno1u8fPTLySwuy6s6huTUHnJ5/O0MwCbEdF8BcmWRNoZfenQ9llPqFL5STeSVaekmMbfJT6aj+y3GRfbD3yAh3KBYR6zBl+oa1CuyPcYGxVmEAxUsdf1Dl2/S/5w+HlV05f7HAFgDvlS+3WH7Z2/NByq5VHnEXwLGDJaTKfgy+YW5xY+8iS4rYLk9qE6RPwYuhskPf06ko0GPrjvkiehFE3yJXlJnZOFS5T1gt/ZQ6EtvgjYlZmKCjkZjiMx7oSc2okIB0BEcJKbyyjRUAGwy+cl0dL/rgoeY/fJHTlhy6g7wpTpzM8z3sGQeSV4uO3/WA76yltS/Tftfmu4shoKsqv+1tzYrzbO8uG7seRm/ClZsWbGiJ5uAqR4vqT1oXfPLX7KwBy3Xq2oPmb9O6ZY7mQb/7Ze/WNNrDVpQiL9ogy/RSxYdsXx4i4uLT5P2UOiLrYBtyScxGx3K2NuNq5sERGajK290YxMTn9Hmz2+QDVUDRxvMdfL2gK9K+/Y8U/C1l9Tn+O1/0pXRrIK9PR/opQw8EfnDu85Cr8vg5kaHP49EXl2dpu1hAsCR8KfSQTTpkfWS6MUCfCkoS+gSNx/gK8pu2h4qfREAW24q8EpM5WgQjc6nYtZP4zqZoImeyoSu6/gqnloFhI/25Ef0cjPtjhhe+GsQDtRFGyzd6Pm5VlDsfznBFXQP+Kp6nj3Pa/9rcRocQfJO80FSit6/gIrLH79+xq9dynBOrOm1dwRuUPMy3kR+aQ83kj1GvoIWaTq1h6wrBlwOKdb6Y1VHAG4UzjZW4EussdVnBPy14TW2XtpD0RQdFgD2Q4zOmqlSvDRuh3wRQ5BZNqiwg8qTiNfBxgHY6+Sn0pmYx+nRtXHWfG9msG27A+3jBpZu/MjPTeht2624AlImJPyW+18WAnAP+DooTHjkp/+1uHgoyu1B1YnjI8klEIHoAxQv84FOmyr+yMvb63wg0mfHVMTh6nGyb4vQQZScyHRJJW8kYBQLeuwDSNKfzjFOJyfPJ/5kMKe5JZJz5qpjZh77S3sIgN0Gm05AFQDHojH8fkmq/ACZkoJfh4lCODGPymMqaUU3XT+Tn06flC/SEwN9+OFvTUULo7c3zM5rK9RnmFWyq/pf7xyKYKZ62zkvlu0h1ryvfxyI1htZo6r2kPufGwDzsRdP84EsZ2C8qb1hu1xuy1HR4nmkP4t/jEfwJTrtreEPWJP2kPlRWfec5I0EjPzOzzLPIn8WJ27UXzTBlz42ktHJTaVXFU9iHu/PbdLiUx4fbnTwOVsBt6uYMCUmm6DjbbDJJyGYXIJphi6/5o1uoDDbK01o4o3lUZmSgYFIoabtITO4cHPDXgFf4mPhJnUgAplHXf8bFZRdft/pdw/4BrRj8nHQrFkB69pD1nticOzI+fw3+hHvU3u+ITmCYOnnHC3R4PpLDp4j9ruy5CZo0/aQ20F1TCbe5meZZ5G/0NwdA/AlME9KULpAySxZfov8dQgA7HN+7kjExrXdVu+FWFtL+BxtPDYuTcg8yeBL+ckYStOLvHLrVNXZ91lMJj+ZDv1WgUfJwPSI+FuwvgGapInW5FYjHX+mK2mqc8EG51i4VIfT5DIab1byklT6o/LRbI/9iV6Nou86tYfcFikZzhepdWKDxGJlJJslY7VyU1n3ZB3Iv0X9MS9qHytfTpPmVi/tIfMin1CJx/lZ5FnmjwFTjMCX9OrhtkPGpswf7x8R4AczQVs2cb0Si9TVXu40/LcsLMv30Zl5ICwV+BLJtLxCHQuu+dSIuzBYhJiiPdlPEKJJuTIkvUD8NaIr6rsrw5cadAf4EhtvL69ldTslt8llXJHzBC/S7gHfgDa89L+qCIO8pDuMHRpvHe32PbxYgaVTP1M9M5lfmhvcPyBF2nJ/jvSimrYWexQ8L/NzCt1UF0wm8qr0pMvrDno0e0Tb7CzS87L+Vcnb1kbbe958cqT+0kY8hOyEfohRKEcVc37AMhadhfTD5FJ5BKIZIj2vQNfHHPP5YKuqC+/TeJn8ROJO4HEUXqTgZx9UnAye/HwXdKA9p7vAtw2XyY996nzPsjxZkT7E/keXNx05zv0SiUC56B79cmoPP20Rr/TEvuvWHqrBkJ6v/njl441M0KHk4+OZl91b80voOj+V8FKeSn+peJ2gKt+NHJdXdsLyOj/zPeC9pT83Od3atyvR/x6t7HClWkmbroB1+vO7RUFyB/tFI5qggX1meW1crrxWdMWOdzOTDnxJCen59svj3TqOOKhq6gMr4FiAL032fTGa1HgPK0GhcUNilO1qhee+3OULyNm3i+IjzwnMn/5iF2yr0XtAqyYluf9NxBjWvQ3uWo5XcOPKj2f+uPXGpD1UY0K1Aubga3l/HwRf4r/J5TpBLqNOf6rrDFV6FPPEyb5d2t5zKys/pxW4Djz2BUuE5gCLLKblN8lrAr5UyOCGVkf9qe4RcGQu+JD3F8LeROS3UZ78TIjwd+gsVHftyXjhi94luRIo3JichPB5GR4BWB5s2xHcYgW+nO3jJufJEmh/y/xxPTzw0U5YFrxdSFtYeuAHfJdubYIHsS5d0vEnv3/8FHeZ4xncAnqP75V5OfZd0/aQ24d+p+dZP15l8EUXLF/bRryuvQ0eLQYmaCf9ZeaaWXB08nIHV7/zM5mg431x5MSf7ECr6oNinhfwpXJuJmi3/idbKNz4o+dif0lISGxEAO7SXzjrQpGItYsBx+PwSzdBXr1JsWt1ZjSV6KrBVlpJh7FVbzvneQGPHxzdx5lY8KmKPz546cjJtS9uhQpp309H2A/47kSnnhte3gp0gF6VnPiT33eT2Yv+ZNqq3wcivc2V1otISC9eJvv0/PD2jQy+RCsJB8a+sNJS9Uviv5EutHdIqnKi/rysgFWTfcPuPZ7aQ2Y1PRtvQhOHYhzOz078qWcRWcrAb6/gq6YSzlW1h7ytKh4Tc6NHz+39pbPJsgdsQoS/w4mRCZqlOG1cCzgqAsdnDygyEtuuvMBkVaqYxNwIep3sD8Y7fccOcXZI0vEn8lKN5vKfPV/mCsJ+wJeA/afPbYFKhWct6x6KrxTdZE8m98nD9NcoetVftNtjf6EnA7CuPXTy8rGjAl/W5orxpqMl5ptMfiZ0+Dt+6dVWRWbJyTBcAev4q9+9y4uYlndpvGX3Evxb4nR+DjEdIX+mZmcTheraQ/6YZNZfw6Sa/zo6uhoJgL25+mEBkVjjHuwkESrPyQxhKF/oNVl5ifwTSzMZ5A4a6lqFSnl8stqMK2AvyS94XHxcX201TvzJhdbhB8P5j27WmqP9gO83aHYmmus1HyNe+CN+Lz6un8x26Ldf/ekIHsj0yHrDk1fwpXK5g4sdHRxN9tjkdpHHL3u+l+aXumo1AJv254wcdxO0k7wNu2tk9Rj95vxl9coPvL+X9Kdi1klelV5VNMQ8oucXfFUrbC/8NRh+IKnkCo63egLg3W5Cis9lYvU1NXFtZiIvM6cr03JwEnFKsrz0rjhZ0R5woxBv2YlWJJP9ZbP7Q362PbScG38qfmglfNmTpfDQx1WWM8JewZe8nR9dUA2XP1UKRFOVvPJXmJMMP5qtBuBI9Kfi7UCmR3G6K/dEFus4eyBajzSnC6jd2djzkLxMfiZkI6VXW2335PfSn7Nynf0Y3PjzswIW+UvPzdlrHy+q9nGTV1XGKS8S8FXR9cpf3a5qFRlLnkt/qfEEwCpidTXkXettoBGHXoV1k1RHLzmZwhnq+css6MuCcaiSqhzVIyZyFFi5xT3iU6STPV1McNWpA7w0rkqkUB7t05Jj1rfv2wAvflXDzuyqtm5V3s4UZOOVxbvhrAc2wD/nVUZlz5czdvVpAyFbin9NzyLVn6yMA50e9VnSgdyfZT3pfienZ0CmaOLkLwqWpmSbA4aOWvfNB7IZUc8RQG1VpeWxyXwgFsjr119LXjdfifyZTPBiBTJ/ZIL2Iq9Iy4Q/rXCKB37o6WftQH/xu/JVsOcLj+pqnAFYbg+qVxpvu2lJZbQC1hGrRwD2mvw0hlMdTvRS0Q7WYIv1JVBDcM5BM3TNhlWWKnTyqvhYXtoAh5Rkqx6xvGhN9lefOhAeeGsH7MT9Vi/8aRnDB7Ry/evbO+CeD3bCESOy4RAM/DGqXxoMxONPvRD06ShAHa6WyvFihdU7muHL0kZYsL4+4iAbKp765aXgR8ZA26No6Y8T7qEX+Gj0C76kx9xBxbQXZW0raZuHTgeYJKfxq+rnbjSjRU9cAav4cNNfrz5qADblz8vcquIvMy9POU90l/54PabyuvEl0tvb4Eu81FXrAVjVHor+YgbATsTqXb4CZKXGojGc9pBDdz7KjAi/C0aOtQCwk7wqMt8gKOlSNCd7MkHffMFQuOL+DbbqFI1re0eXQfLSCvi9VbXsj1Kk9OS6TOjdenEx9MqUb3+K76M80WzfgN67R95l+NHoN1F/yR8xxlpc4WMRiLLuXIvpfFCxeSMseOU5WPXpR1CzvRyS8YhNn6JimDTrBDjq7PMgPRvNrZhM6TlzFXhas30b+4/X+YDTzlesgL3wZwrAOv6y+R6wibDBd7zwZ0I2FvSiBb5ky4yEPx326dpDoS8GwI47/W7EdEwoKotIWL/0Ugy+wgtHT4QN77zCqnCTV8XHMrzwQJViMTmfd0w/eBxXq5+tDh+RMAE3FX9+5dXRioQeRfw6b6bV0SwW+ovlxRlcL7E+F+6kf/GZk/5WOHw0OtHn46OgZFz4NQX40kO3j1+TyY/Owv7n5v+Ddx69H+TAB2WrlsPid96El27/M5z3h1vhqO9eELVzrxTlqKZiu6/5gCumV1+rL4OJvKLuTeZWp/kqKy/ohOXUoMIzr/y5kY2UnmxgIXrRAl/iPVL+VB9ITu2h0BfbA9YCsAkx032KSIWVmTelZ3dbkikBFI6ayDJN5LWXBli0rh7apQ1Up8lP7lgqmnIep0dlH75qZGilSHrwm/zKq6vPL728rGR45GclFotmrPQn874vgGUk/UUlL4UlXWxwUYZcVmzfwtGTAo814EsPnT5+TcZva3MT3Pr9U+CtB++2ga/IGwHVg9dcBv+55bc4qwpPcKz43QOt2VEOXZ32WOam442iUGULoTpN5JX17QbAbuOtVx+1M6NcD/32w5+KDs+LBj1xg4PoRRt8VfS89Bd5D9itPRT62k0APEfxwBiMTAA4Go0h8uiFntMkwGkWlEwwllelK/IoXS6sKGINHsP6p8N9V47cK2ZilfyU56PzhUg9hB8Uw/qlh37HWn+8ogMRfAnMl25qAOqzXpLcvgUjxzueLiDauhWw6fh99FdXocl5vhGbxN+b9/0DFrz8TOD9CMCX+KvaWmqrl/JNE61+uc5M5RVpd3Z0ADm46pLcHvSezF/BALs/hYqeH/5UdHhetOglBmOJEz0VWEZ6UYPl+8pHf6nfFfaSN2kPhc7eVhpovRCrd3HFjlZj+G3c1ETnQUP85Q4YDKnZ1jN7cmdWKM+SxU3C3QUe58wohGtONxtgMu9e2lcuq/odCb3rzxwEZx4eDurfXfo7UMGX2u/T4D6/qi1VeXL7pmRkQW7RCOVHl1g+XVzCBB+Yzgdrv/wUPn7xaRU7tjyRv+dv/h001dX6Xvly/nZt22qpx+t8UDhwMCtvKq8sFK3AZZM7f0duD16PSCMlLR2yDC6a8cufzC//HU16dAKD6MUCfMlSEjJa+gBfkpeO4FIyaQ+dvjgAh2wtXolRPEzdtV3RbAwSwA+9dOUnRkAdbFDROUb8eu4z7qCQjrwONir46ao65K97HGg4eNx+8TC48Fh9gA5Vo3ttXxUNMS8SehRu8uYLiwW9d6/+3GSTn3d3+8r1u/025W+BBwBWtW/v8VMR4KzOcire0pKsH79exu/cR/+lImnLk/mrxeAZC996VTkp2gpLGSJ/FaUbQ0/9zAd9i4b5mq94pTvLNivZleWll1T80REo1bsiUS/toWRGyow2PTyDETPwJdb5fcNezM5c5MbaPUD+CSodq9pDoT82ODg8MSj3S0y1GR3txvBLj77CtXIJQQT6HzSd6chQeTZ9frh8D7QprHqxXGmROfGBn46Ekw42c7bQ6sEmjVlGJPROOaQAHvl5SehGElPwMOOM2rEHzElXcv+jc+sfr3COccx1rGvfAVOPcG0GKpsmrIC9jF/ae/1m3rtGdcgvUT1LP5grZ7v+lvnbsXE9K+N3PugzdFhEDmE7y+wmcF17qIQr6D9IlR3Kk+VlD3yuBLmenE6jODKjeEj8sYt0xG845C9Ss7NIrxN/+AFfYpcwz0t7KETcQ3kcgCsiIbYr6K7PK4mnxqVweHJAADaopAg+/aZM9z3YSO4KPCcrH+2QJz9FIyizvIBHCtppXvnNWLj4eGeHi0jaV8VkJPTOm9kHXrxxDBDvlLzIq+JFzuuhF9CIqv8txjPcPAKWrDfxt1P79p96uFNR9iwVg3DwUJRe54PyDWuhYY/WN5TRd+KvYrP9mJ4Twyr+dmxaH9F80LdoqA08vEz2MgA7yauSLb+/NWiP+I5K3ngDXwJzi40lyuBL8kZy33D1ti02tXv8WKsgAsxJOCkpoQI/OoVzBd6+/MhcMmpaYFDGY+OSGRqDN7GkAl/K7z91BgaPR6MHOj94TXxwzF1cA5PwHltKqsnPhK4f8EhGIHsIV8IFeE74H68Fzi6KdXkdvG58+qVHK/brzhgEt6DZmXv2+pHXib8eegHt6PrfHOyjbsmxfbHh+k8+zI0EpAU/7f3MBxuXLHKk78ifY0n7Qx1/fAVsL+GeQ/z1xRVwKPlYWVYJK2A/8hYMUK+AdfJ6+TgQNRBteltWLoN5zz4Kqz75EB3htkBzY+CIpw7cMrKyYHBRMRxx7HHw3YsvhVHjJlgaiMrp9pA72X2H4hLbvW25vLKTno4/B4oMgBMvv/xy+scya3slxr/Wot0Y0aKHAZ1YYnJpYtem5fSCgpGWbxAH3YUfiYNj7teBoGK6yc+NYCTgQYB228XF8BKuLMWY0X4GrxOffunlYoCNZ64fDX+9qAd8Zf12Z395xwWA3dqXxkiaKgSlJBRFE/U7fjd9s1hWUei3G3/0Ym6h9Z5iHTEdf/V4CYKfOMxUD+evz5AgAPsAX6LD94BN5FXJl9/f7qCpkzcewJd8iR674Wr47YmHwbu4/7917SpX8CW5mxoaYN2qFfDEfffAt6dPhT9dezW0tbYylZC8OvAlvapC76p0yfNE/VVuKQ29ynDFeyqjIok16MmFzIRc/vwQo6+1eG7cTPwaZ3JpwJd38sGHHeNJjfLg+GJtHeyupzCRnsiwlyMBX7G20w8rhC/umAxHjst1NNN559DZ7OdEj4JsfHXnFDhnRnhijJa8vN4eegFNOIE5bZN8iWfWdUnuz/SePB8MOmyWrrglPwtN0H73BDct/VpZhwl/VHDohCnK8mKm03xVvna1a3nVC5y/1IxMYGdwfYIv0aZFjam8Kl4oSpipvKp6VDRjRY/A9/ZzT4P3n3rYdvZa7n9OfHWg9fLpB++HS884GVpbWhzBl+h4sXXK/aUaV+eUvPAn8b6FFr/MUIQNwNDYL7GdZZt8DzaJKfZTFpZlRtCZM+kokgv4UhVFR89mVZkkVadtwzBLr32ujw+qoxtt8Cjumw7v/Hki0PnavhjTmSe/7UvlVfK60SOT+L9+MgLev2kiFPec87U1vxNY2l4WMvz2l1c+rQIKwqFKpu079Cj3MUL9IgPwpiWxKsPxS+dfS1cstbFoyh8VHDHlEFt5McNtfild8Y1jedVDkb8BI0ZBAm6A+11ZsihceAxJTm7jTXx/wPCS0E83eeV63H5Hm95T/3ed8ry3F3lFnj/7aB789cbrbf1PduDqMFy5quStxG1Xv/wRrykpKeW0+GUAnJiYWBYJsSpajvsYbP/P3nXAV1E08UkPqZTQe+9NBAUFEUFARRBFQRDF3jv6gWIvCGJBxYqKojRFaaLSQaWDgPQSCISWQArp9Zu59+7l3r7du71795IHZH+/B7m927nZ2dn93+7OzvAamldZb8CX6FUodoRdc3sfx4NPrc49ICRCHFRBLa83GMz52zOEGa+eap7VwVREU6VHs/DhPavB1skd4cXb6kKlSONjIyKaevXllaGQgq/cXg/2fXEp3HstHYcoecpX9WX5KG1wY9/v6/Zl3ydTX5FuyrZvEJ4trdWlB/tqt2tlHMGP3QrOPWDlpiT40qPH9uyEXOe+n0pYlj/1+YbtLnHjSXshM74k7N4hLM+7wfJXt0Vry+BL/NHsij0DbGZ8Jn6qNWiksCpTX16dRHl201P3fNn3makvW5bqP3PqF3Bgzy7HLdQ/FnzpRgH/W9SNnKi+2j169v1G18Qf/hxL0JUqVaJGWmBUSHSfiCUfPwZFRc4JvYnOxtIUVdbql6RKLwR5ogHKlTjgS/eCQjEKEIKwXmI7Gz2rVZZVO9LgRIpjD0KPjqOc74/KkJvHcQjAB7+6FCaOagit6vFDL4p4NaqvtlxrpP3u3Q3hwJeXwgu31i0PrIAd3F98T5NO0ll1Nplp39rYN0ShO139AMGXvM9Rn1OSyfFgF+P5ygx/9LoodD6hgo+TA9d/suNLgokZMI+/ui35nvVYfthrlT+yAtcms2BEBlihGC5Str4sH6JrX9AjgyvW5afZ+mr5VduDlqN//v5bRf944EtlVMNcs/Wlb0z25I+IBpuv8hccHDyP7gV/8cUX7DPS167K5udD6skTULl2Ha++/KzuGfEYZpWFJoBpZAktAF+VRn1chj6y6jceSallWFrh+xmD1LOxe1mCpT0TpBi75DmLfv8eyoQZq5Ng6b+p6EIzEwSrkob1pWMmbdHqu3eHikBONdo3dFiAs3Wl69KuL48HvbwLnb9Zqz2Xn3ngoTf41e1+rVCESjnnNo9rscUk+BLx3WtXu95hlj8q2LB9R6HeyowvtASeiAZAMknEHwGw2aQdr2gVQE167SF6R/WGjc8L8KX22LVmhVs1rNRXJcC2xz8rlgvBl8rkkc4KEosfymNOfSbrbNomMJu0/EVHRwNNfrWxCmjtVM58kHhhLI2S0HdqXL0GHvkyTOpVln2PVXrRCgAHG/LXsPcgWPPmUx5fZTw+RMoydclJXQAu68G+Q6NIoB+lZIwtTI4Zdh/Ngj3HsmHf8Ww4e64A0rMKXf6CCbxjcCZdOSoImteuoPxoJk2GXnExxkHnyrq+RjpzMfD39VLl1IMrmdFnpRD290bXDHSjoV5owZfyqK+ZnflSOaKzd/3fClnT/CmlAJpe6nlG2cz4cnz/HqAgEEZJj7+6LcwBMMvfsb2OpVPR+GLEW40GTfzaJkdb3zO4eqomq/Wl8rz2SMStUV6++j7RDJhtD+V5zcdkUsJhlYT0/wwfKQMHDgSa/GoBmFy/SAEwr1LJiUd1Kyvi1KiyonKifBG92NBgSCxQ18VEpQEiq9WEGh27wonNjoGAnuTVV09ZKDDDBrSI7tLMEaNU+zZ/G+wJQMkXs+qP2d/4Y1uqnD+HRGT2fFXZke9n+sBSk1l9pnLV23aG6Nr12eZwbL8wBo4xOKpY2Tai8ILn0MG9Ff5Uxlp2dd9CEo0HIv72b16LMPDiAAAgAElEQVTnUUc2Q48/WgLXc4LB0uLxR3LQG19YGuw1zYD92SbHbSXCOZHzpr6i9uDlq7IqwIHE5X9ZI0Bee7Afk0kJ8azIda85fBxQV561O6MO32u6pMRgZGVTWqayBuy43dajFxPK551Hv0n/Ia5sjvCkOsdXf7rPOIhgOXg4xGoGPLTtUy4/a/KbuqREF63qc5PrSvqE2ibKoMmAL9GPCg3igiivr2nzaP/XKn9Eh0IANunUxUVSbzzgvYcKHtzqnROQeq0doU2N6kr3efyRLU0izsKtJqpX9QYIwGqysA2gFuXxx4KRGT559Gi/WtEji4nXjiq9WnXrCanmcV7J449XX9ZLmfAleEPA3361jCkAFhBTaJn1HCNbWb3Kae8Z0aNVsQjGObyIduNrb1K8YunVV1RWzZ+1JglSMkr2CcrBwyGZcvA10hzHfbv05QxuJ8z5y2GZb1mfcVBv3PdmN8aVQY5ztC8SwTdE9UEpV1XlKaL33ypPH85mBufGHTsrxkcqPZk9X5bF/ZvXs1muaxn5EQ8ySTRencblzfzcHBkSHs+o/NVT96D9HHwJ3Nr06OVRD9kMo/a4sncfIak8Zvorag/eSgm5KZVJOvy5fKVKA7AOMYUXM6b7ZiorU1FZetHa2uoQrhBXA2pd2t3jCTODQVZuEXy66IRCw67BVGWonJ5DEuVg7qGiHhlTFh6HbBxtjPqvR0FNRk3ckomqUceVIwJfMnCMdZk/61F0v0f0KKLarn/WuN0w09+oYIuuVyrlZccDlsOcjHNAe8C8JCu/JpeUzMB5dIz40xpgicrz8lX+KkTHQJU6OPM7D8CXwK3X8HukImuxdTZqjyCcQA258262mOtaa4BlVl9krOQN+OMC8A8ibg2IKcVOHNinhGcySmYraye92BDOugPzAnVwaTFwuNsds4MBFf6IBj8EYn85isKTZTmYO6RyIYJ5LlqZfPrbCa/Al6TTYvCdLtXRA18aJ2K1ViU8hWPy1PFg118rIS+7ZJ/aSn87cXA/7Fn/F56hxXFI29UlwejAlo1ovOTpH0lm/FOr1chLJyBWAFjLX53mrb1yAlLa43MdPDN9zcj7JDSl5BGZ9hj+wMPQpIXYtbA2NoCZlRLy2mU0A5bg7zu1Nuyc0AOhJIgptAh8j+/fqyvI0m5clplKaLDLGG+7PaIdXBr1uQnCYhxh/qwMBkQ4GZf/vvn9JMtGqQZq8Hi5JqMcfB3CuBDBl2r22fwTkJzhCShm9Jkc0zTpd4siKCPwDSQAltzmUempg9+2Zb+7NNMMf65C+MeGhXPhjZt6w6MdG8EXT90PW5cuhnwcl3jLiNpy6t+7/1nlkS07/lFB2s8UBUGg+zLjHzmmMJNY/mgPWra+7Htk+GPL6F3L0hvx6kRo3f1qPVKue2x96QarL92uvgbGvDVRlx7NgGX50xJKRAt1vSNIMvwRyypNFoAV7xxqkiTmel5vGdpKZbW8sH9boUf7wDH0DycpjajZ0wrGvaSm19/m0bicosIskt+HuAydk1MyCF6og305mDvUwF/aNxOPkX202LEFolVQdrASKq/zBvWBkMhoQ/Clx6MRfJ0RJo3Iug1+xNO2FQ4ANsuf9kXqeJWRcgb+njsDPrjnVnikfX34+MERsPbX2ZB9Tj8O8u617kvgZsc/vf1f2fHKjAEWj796rdpyVzyMGkSWPyM66n0z9Mh47rkf5sO1dz+kuxzNq69WX2jZeeTDj8HUXxahQR7OtnRSNkZiMDPzVUnpfSAZ8eek4dYpWQB2+u4SWm/pVAmAzOd5yUxj8Mqzed7QqxjsMckXDi4tb72XfbX0tdoY8Um58OX8ROUd/jI4l4Oloxkv5Pb4ZG4iJJxx3xKyAm6thtwj7B+sU5uKEls8JHm2/ybs2gZnjjv6iHQHYx4UDX60r7tu/k/w8UN3wIOtaytO/5dP/wpST7ufUqDl74NbN7qoiujp8Sfa/2Xrq9AQLIvzfEDz3inir36rdrzHdfPM8KdLyHnTCj0C4Tvf/ADeXrYJbnzwCSWsYERUiVtgUX3pGXr27sefgoUb/oVxEz8wBF/iLyvPmq9yEcaJ+OPIq8TLCt5kd2zoZj8TxNzoH+Usn1hpDA7Trixv6VVCI5EjGiNDZVDiWHPS4BLXvC3U6HA5nPzX+GyglmdWfh8vPQ1De8RBrdrm3EASzXKwdEj2QgZLu20EjuKZ30+XuwOMoucmU1zLDlC1TSdh/2D1vHIwoopBfFVe/1234GevV5rYqvHqS9tk21b8qfy+xtB3TTtdBp363Qid+w9UYs+qNixsvRz90Fh+zbp45wRE9j0i/gICA8GsFy5ee4g+DlgZ8669pVeneSt4+I2J0NgZQ5bo6YUU5PGgl0f0cgvy3d1QCj6GeHSO7vGcZIrag1ce81yTXLrvMQM2ScztHewStLeNwVbADnp0FCnMuU6mdFIB+KpyaH/Xkywbutc8+R09kwtfLz6JsSs99+P0iJWDr0M65eCrpyUl90hfzqHdwVS0O0hMKQlAwgMjGYod7nzCsH+odMJwJKlgsP/L67+4Ewfr5/8sww73GV5/k6kv+R/et3EtzHh9DDzdrRV8cO9Qhb5VemERkcAaYPHqawRucbXrcuupZurxRxGQiA/ZZIU/Pdp20avgPMZG9OwGX6Kn2REUrkSI6skuQeu1h4CGGIArVKjwNVtIRpnVMinoD5r2XyjZ1Rgqbbvo0Td6FVyGVuplAL707ka9B0JsPc3BdpUhzv96jfHpqiTYuzsNCnjTHQ6tcvB1CKUcfDnKwckifcnJLYY9qGNfOc/90mNm+q+WbGT1WtD42kGebxL4Uo8jRzeeT7tyRP2XHF/Q7NNK0utvZullpadaBl96V/Mu3RRHIGoS1dfIQKrNVdcIWTeqb7urxb66WaJW+WPpeFtfHj30fKvorS/AlxZoclTn9yZmvsRn+pkkSEs67WLZqD14dcM8t+ALrhkwBQeuXbs2lXF5j7DSeRN2OdyoWdngFjBsO5hXCcFT2BLgS/yQQ452Ix8TsebKN2qM0zgz+QJB+OihDGVZWS+Vg69DOuXgq6clJfdIX/JxcYV068tVyZCEukbJSv9VqbYf8SgEagBFyReAL92K09n/1Rvs18+fo77S1P9G/c0UMXzYW3qtrujpeqVefXnv0fIqOhfLK6dt30Acp2SP83jDH0+udtOLQFTyFfgS/9nkhMMk+FK5hJ0lFupG7cGTE+bRyO82+isATOBLwYE7dqRIIqCcJbLaeSmYtT+DL9UrAr8x1GVol6B0BpeWN98F4RWrCGQq33m/W3sG9iVkw6nEkvOOLNFy8HVIpBx8Wc3gX6v6chJ1av+xLJix8azyoNX+S2VDo2KAdN4t6fSPcFwyFIWb1huc6cztetz/NZssDn7C19hBr9UVVyn09erLew/LFO9cLK8c2759Rj0ItZo0Z8l5XHvLH0vQbnpBiE/BFNpWC1MIlqKQgiw/7DXxx4J5Ls6AjVYiWDp0rW6xyrQHrzzmebjQClTBVy0QEBD4L9u4AmLc7CM7tnoIz0plibjdjavSC8DGraL9YtcZXIgPioHa7o5HuPU10xi5GAH6w2WnIelUDqQwFqqO+vpP/FheZcs/DhxS8bePg5TkXDiDOkW6lYc65k3/JX1uM+wBCI2OLVEBg/5Bs1/e8rNR/6Wzv6w1Mk/vtHlm+psRLbpvB72ImFho2O4S28Yr5VzslT0V9mX4a9ezDwwb97ZhdY3aw5AA84Av6EWAb8GXFDU3wDgqHk8WR7ZvlWoPXlln3r/svUCa+aqJ4hNiIOPN7EOy16Qs+zetLXncwjRfLeyLxtXOzKuox8QMBheVHzLGqlC5qpsoZDoHK7slGJlm1d5zkHg4AzLOaQ1lysGXZOVv4Ma2n7/xl4k6dDwhE/4+mAErMQKXt+BLwNvhzsdLqi3RP2j/l00y/ZeOA5lJVvqbHn276LW4/Er0PhVo28of7SWPxnOxve96wONcrLZ96Z397nsUnp72M4SEhulV1baPA/UlMu2ryxBzU6WnGmApt22e+arLzrxADEa8En/7Nv7j8ZjJ/rZFS4Amv649YAJfZ4ikDzzeIpGhKvOpI/H4VYven/wYfKk6UWixGYUhCnmdkFdd8gjU/i60CnUmXjnZxnjnj1OQgS4qEw5kQG52IXaOcvAlsfobuLF64G/8ke4kIPBm5BTBO2j5LKt/bL3oWtVnWukJi63seEQCfKPwIGMkY/0sMzhTHFg6DiSbvOlvvHfYSY+Mn+zedgtEcB352iR44/e10PfeR6B2s5YQWiFCsXKmZWoC3gmr/oU78JkLBXxp2TlK9eTiA/ClZexsfIfbJixPOZg80ueziccgiTEWtNDfXDNgdeVZOQesAV+6JP5om5o9oiRklVXmg1s3QOfrB0uDm5awTOcVMsK5oUevengAHBJvx3pQazviEdg+7SPIPltiCac+ZKYxTqblwycrkuC5vtUhfl8G1G8ejRaU7uL2t8GeFUY5f6xE+Ne++rjKR2e2Rw6cwxWrYvh4ZRKQTllNav8Ni64IbYc/7CAjAb70YHVm9qvX37TjxMofv+H6XebVgR1f6Bkz/Y2laTe99j3R+pjZs7Rr242A9/aXxlvas1TlZPfHgS/pKbYEPgJfavdMyVMoqs6o+rxPu7JrXf8Ud2/abd9ABnzV9+5mlVZ0zVPmfRvX+T34Et/VcO/KTOQ02gvueO8zHqKwMhjM3nQWNh3OwmANhRC//5zb8aRycPMQMTfDV+DGvszf2qMA93kPo87kYZSjzUcy4ZctDsMrlm+Za23/7XD3U0AgrGftrKUZiJ2namgJ8siCLxlfrZrxrQx73HHESn9TX8Ybr7yhV691O6iiPbvr5yt//rwyGYpzEAplaafBFQvmmfjBKpu0+rx/c8nWqkV9OUTvZW2uAp3LzixP4qCYmidFyrx/kznPUURStvOyjIquZejRagdv/4pHUxE6Hl1qM/R+qNigqesRi40BdBTtpQXHIQ2XEWkp8TDu3xXiwOpvgz0ri3L+WInwr331cUAzXpr5ks6cQ48Cry48oeiSlaTtvzF16kM7PHokC770vqp4nl51rS7T31QeNy2eh64njxmyLBpfDAsKHvAFvY7X9C95Wzn4CiTvmc3Tl0j0pOZL8CUuZH0hsfzt2+DANKvjPb56HQu+NPkVLTMbArCeMsejJbQ2tJin+N1z2Moqd0tJmWtwDEhYflXwpfzA4BDo+qzD4tCLxlC+7E+lF8B49JBFKQcH1MRD1oxofDXYs3IoB19WIvxrX7WHAr44883OdJzzfRv3fa0uPbP99/Jn3oYg3F9k8/k1dORWD3Mgv9n+u/iLyXpklXs8PrT9jbxORcTgbF0yGdGTJON6TKXXvpfT+UUpjVcyfJptDyOapUWvYmgIt91l+GOPGrEzX6JRhPsEFITBKLH1zc3OxDgHO7za9ggJCdnEGjzT5FcEwG7eOliGjZS5MD8fDm2TM6ZmK6u8qxSVmSK4RLMesTUV1oKvml2/Rz+oe0VvVizS11r5LUeL6IXb05QoMlk4sB7CaxpoZZOvBnv2/eXgy0qEf+2r9lBnvqQjlOb9mwpLd+lH9+Fz6AlutTr3gEbXmrPZoD4T7fRYZGZP8NC/mxQXkHrJaHwJxUhlz89YAJ/vOg4vzVuuGClVqlFLSNKInrCg4IZKL6ZKVWjcoXOpjlcCllzZZT2eesNfLGMHY0SL7lN9ZcCXnsUAYYYGWDz5Hdy6Gf2Ee2djERwc7DJu1m77igCY+OX2blll3rdBv5OpwjPTeY0ahCc8GTCvpdnH0r6DB77KfTRQueJ/k5TZsNnEk9+EP07CvtOOCBE0u4lHEKZ9PqPkq8GefW85+LIS4V/7qj3IfWn8vnTIynCA776TOTDxT88403yu3HNZ/SNPb93+967pmUdtnP1a6W8Lp7ynyybLHz2s9ENN6nrTbRBVsbJyRKd5lytg5OvvwUebD+Jy/Gq44ZFngHwiq0mGni5DzE0tvaaXXo6e8gIvGgMpRRQ+mhyF4t6v2xEkiUYxA75ELsNgYiPS5/2bzW+pquw79SW3Xr16ihKzNld6ALyBlYEZZWatxlhaosraZT2ovE9SWeIQR8MZSeiBL8mhUuMW0GHUU2y1dK9F8stBi9anZx+DVPpEw5SdRSCcjsHEyRidn3w12LNvKwdfViL8a1+1B+lAPNoH5Dh1IwP3fZ+fe0xxuGE28fSv7e0PQ9WW7U2RIs9XlXHlyOzHc9LRI0D7v6LE448FXyrb+877PUjQmdgmGN1o2Itvwbt//wfjV2yBW557GRq0Je9+OBA4E4+eBzFBBsvfFbfcXg6+Almx2UbjfYwSSUs+mQVfoqxngKXH3wELNk30PlVf8EjZ5nbt2nmALz2jB8CrteJglY/u6SkzzYAp4ggv6VWW9x4eDW2e1/Sw7WtpzrEr9ZLwFd350XEKEMskXr208juBx0jG/proMqihPeGD6LQjB8GYTb4a7Nn3lIMvKxH+ta/agwyt4vekKwZXlGiIenHecUhMNb8cxtO/yBp1oMsTr/ArpZNbM7QQiopQL7XfABIfu4tw9ltY4KnPSt00IKm+mje+UND7Ru0xRKJOonK1mjSDGx8drcyK31u7G0aNnwwdrukHQQaB2kVkWf4iYytBxz7XcfkW0dDWy+zHix5Nr8c/hnhZ0DMDwMSf7LKztmoiAyy9+iLIwf7NhiZRHs2j1Rf8ew0781UL6AHwG+pDrPJRPq9zuFU2LcXlO1Obr1dZ3ns8asZk2EWPjlNgqGBHvSTAl9gIQu8zV738MY0eumzy6sWT37pDmTAZ3QmqKR+PmRzC2U9mRrnHLFbAF/rHAS0307IzHTVSdA1V7P2lp+AfdLxhNon0r8e4yUAOZswkmqhUDTIPvmT1TGd/eUnEH+9Zo4ADvPGgcq3a0OuO++DZ73+FKduOQI/bRvJIC/N4/HW+bpChAwweQR5/sit1FzI9WQC2Cr75CKSuKEgaQRq1R/z2LZCVnsYTvTCP1ZegoKA1gtNGujNg+r7NYYnRW3ngweNm27I/3LKNKsujoZdnJz0aWGqRVack+Kp8kQFLq1vuFrJpVn7frTsDszaWuAelo0mH0VlH6tlc+hgD3jnyCx2MWOFe6PVNwfjRjrPhjikmge/crSnw4wbz531F+tdswDBocPX1rGh1r6m/1QrOdx80JGa+RHT+5AmQn5frQV/En8eDmEFWz10HDuHdUvJkxoOoSlXg+AEl3oxUEvHXbbAjfrAUEedDMvxdjPQolnSYwSSG5GIVfKnsOc7+r0x7/LvcHcOM2oejLwXR0dGLROX0ZsB4JivAYx9YFnzphVrmZSorYpKX7wt61XBwocHdLUl4BOo2ejxE167vwSanMaQ+XsjAZg26qVRTER70TDiYCQnxWQoIa9OFDkasUC/k+ubjIHEqMRv9hGfi9k0J+K7Go0dvO4+rsfLQuxbpX2S1mnDlmEl6RT3uUX8LLS6AGtogJpLgS7PfVTO+9aAp4s/jQWdGrzvuUdwx8pLseHBk5zY4ILmkKOKvUo2a0LJrdx4bwjxZ/oQEmBsXEr1Yif1fqq+VZWdVbOmMzYSs/LaZAGCBvmxNTk4WNisLN64H6dBwQEDQGm1JYtpMOoDWYxToWraysrR9RY9c2tbW+jSXAF/imRzY937nWyV2sJoEjSFVRRp7x8xNhO3HspXnSez0AXc2OUdx2KFaSF/IYHSxzfRz0EP8EfzoSjrpaHNqd5r5bkMdGPPLcdPONoT6hzONXm9PhfBKcVK66NA/UsACpW+4PMdJgi+Vn/fhOx6zXyF/Aq7I33G/e/lxuc2MB8umfSl4g3u2Hn+X3zhECb4gm8zwJ0PzQqNXyWPW4y4Fb8GXqKVpAFhWfhmpZ4GOzckkHX1ZrVeeq0UuR9HBwS+phc2CL5Ujg4sdq5ebtpbUY1hWeHo0tPdYevSFH0ojnyT4qrRqdroCOt3/P+VSpzFk2YIs3Pt7dEYC7Dqeo4Cvmmg/+CAa5uSjYY7Eqo3H+8qXsR0i8aePl3Pn8Pz37jTISC/Z6ycV3I9H056cdRTISt5M0tO/DhjVq243+TPsSr9H8CU3geS6VUkmwPc0BmdZPXOaG/t6/Inq2WPonXjWt6bHbbb/6vGXk5kB//w6y4MGm2HEXzc8BiWbzPAnQ/NCo0d6rrf/S/X1ZuZLMs1DGhj7Rklm5Ldj5VIpf+UG+rJUr109AFjrLqt169bEdqrSCS2m7TSF1xY30XnZV5oRHluWd82jRx+2dSOCuCDKo6HN6/TwWKjR4XKPx6zKjyImPYYD8CGM96pNRXmF6LAjDZLxPKjhyXJNwXLwdQjDn8D3JH5gHcIjZ6qxFXFIg9KRs3nwyI9HIR2PHZlJeoNB5aat4bInXpUmp+it0yaibrjTb7rJ/vvja/9zm/3q8SdijM77XvdASSQy9Tle/9X7OPjrpx8g+xzXvYHr1Ub81WzcDBoaWGFb5U9U/wuZXkVcfkaV4iY7wJcIq8vPZvVFZvnZQF9oOUsJwCBKbgDM+qrs1KkTfTHoIriIMOUTc9tW/FGy72my82ppmxWeHl90T49eTXRPGanjHYtHm+iRMK8Z/3VJODfne3jPy+SR/Ohs8GMzjkI8GuZQosGZZr40Np44lqUY6+idF1bfUw6+Dkn4C/gS4B5A4D2Z6L6vT+1LH1z3f38Ezji9XsnoCj2jNxiEREZD3w9mQlBYuBQ5LfhShJpq1B9M9l/yCa8996vHnx5Tl994C9Ro1MTtEb3+y3sPFV4x/Wu91+jKTy3Ya8Q93OdYwlb4Y2lory9UegTAvET19Xbmq9Kl5Wez8qPnd6zWhz6enin9piSt5NVNm+cCYBZ8NeeWdBFc9AKVudRTJyFx7y7TnVdL16zwRDyp+Yb0UCcayo1TCklF6M6ZQgwaY/We4NgPZhrDiC23+9rGTcYjKfd/lwC7T2R7LDvTsuX+/9KU/WFRKgdfh2T8BXxTz+TBXmyzDPQFrk0EvntP5SjgS21uJukOBrTv+8YXUKlRcymSWn2mAvUroH7jSGHGSQ7RmP7yaNfHty5/OlxRuQGPPOv2hGH/5dCjj4HD/7nCsXo8IcNfcEgoXDlkuEdZNsMKfywN7fWFSo+gl2eARfW1C3xJjuloUGL23PUR1BXCLlGS0Rcsa4idCgDrgC/dnoo/U2vQLHPbVy4x1Xm1lS4r5YvFSC+VJTxNsoMV8V63ay+49KGx2mqY+puVHxVOyy7AJckExSiHTeQnOBFDGx456DkbLgdfh7T8AXxppYKOlMXjWV7W1ajD4CpLAd8Up9crtp1F1zx9UfTSmTre8yw07nezqLhbPqvP1AdicfZrBnyJ4Lp5c+DAFschCiP+9Bhr36svUMg/NVkdD/QCQMjy16nfACD/z3rJKn8imhcyPdr7DWYMWewG36zCIrShMH9uXe/4kay+YJsaRh0JNABfVS92iBSEzecxt33VEqllG5ZWWStfQ/zyD9IJGMwOVi7+0YCr04NjTZ+zpPI8+amDKe0JP/xDAqzZz3fGkJ6Cs+GdOBtOcixXl4Ovo0XKGnyp/ahN9u1Ig5TUPFbNlW0FOmpEe77UxmaSnr4QndqXXw2XP/maFElWn0n1G2AfMAu+ORnngPZ+KRnxp8cYlR3y/CuuR6yOB2QItvG3X7mvMsPf1cPv4dJQM63yJyJ6odOrxCw/U33tnPkq/S4XDRst2CBtX/4nt1lM6Es8lwCTGcgLkcQp+BsnzyNLxNzeDf+Y9ibiD8pH/qGtBGogOdAxBTqaRIYvskkkP235bJxFPTX7KMzeVOKsQ3ufHHckYpD2fQjEZF3LprIGI5Wfi+XjgIJrHNpzDo7h2V6e/2YC31mbzsIzc44Bta2ZZKQvsfUaQd/3fnA7Hieiz4IvPVcbt2EqhARzQVREh/LnTHgVzp5I5JZT3iOZug66VfHlTMmb8WDBx+9yrVmN5Kdls2rd+tCm+9VCzr3hj0f0QqdHy8+VyPWgM/kCfAnMU/F4nyvh62Q+JjPRi+OBLZ7uJ83oC77TEDNp8uvaAxb5qnQyb7ieqscchSfc8ufCEkEY/OVPylcHvWOhUbRb4g1WygPM0SU6H3zD5/Mhoqrn8QlWBHryY5+lc8LjMRbse0tOcc+H0hiXiY5P6bgSgbFqpFUOvqwk+dd2fByQG9Gj8ZlwANsgE/dzOY54FOvPSdiGE/7gtyOfO0eukb6EV6wC13++QOq8L0+fw1Hn61QwfxqA9lmXfPOp1+BLPptvGf2yUllvxoPU06dgzZzpHqI0kh9boOfto4Rnf73hj32Pt/U9X+jR3m+Ic/nZV+CbjwOlKwKSJPiS/Db9Ns/DZ7lZfUEyuvu/6sqzAsAG4KvoBP6EDjFlmFs3/yeiY5j8TZlpGa5JRLHLVJ43WCmVEpwbjqpZF67/7Fddn7sy8uMJbvr6s/D4zKO4P1xyVIXAQzvYp6BF7f7/UiH5eDY60JeffajvswOMtLxf6PRIxqdQ1vvQyCoVLdeLcVLLA1+KavT4rARb3Uuqcg5EY6G+H8yAig1KwvLx9IfyePpMHwbNooJ0t1949Cj4yrdjnuDONpX3mEi9cLm3esPGXoEvve73LydDfq67gaLZ/kZOQETLz/42XrEi9lf+4kIds19fgS8hVipZP5NATIAvPb4W7Re0yay+YFnaAxTOOLXbvoES4KvyssyNK+eFLHNkiEWeRfSSvyoLBR6vjkeTeIOVUh8B+Kp1rdqqI/R593vuUqCs/ERyI+f8I76OV6xnWfBVywSgFiafQlDYgUCMZ4eLeIjAecGFDpZslb2pL8mUZLtnWyqcdn7siNqD4vlSm61F96Jmk6G+4KyCjsLVvqynIWmRPtfEM3gxmuVBQ0LOB5Z8+znXzaPyHhMpLCISBj011mvwpTO/y777yu3NhvLj8HuSsNIAACAASURBVNnt5mEQW7Waxx1/Ha9URv2VP9p2oeNHxJ/de75aeqn5qHcmwffc2WTY9fdKV1tb0RcsvNpDWZwZrM1VoChKA4fAYjbPDHO0DL359wUsCde1vyqLymD98CLFF65HMgBf9XlyfE9HQbQu7MzIz+O9moxENL6665vDMA8Hfzap54Ypnyxv6ezwXjQGolka7ReLkjdgxKN5odIjC/Qz+PFDM16SLV1TEoHvvH9T4e7vDsNxm0IKsuDWfex70PS6W3lN4JYnAt/w0BCoZ+IInkqUDJ1mj3c5znO9i+XPkDF8oP/9jyuAZ/boCEt72XdfKq5w1WS1v/W791GWtNcfByxBfx//7OSvCn7c0aTAl+BbhHPfdOyLMnu+2rYgYz01ZKZVfUF63OVnFnxp8svsbrJq4Xa9Ba+ohylrB1aYK8BoKFfcfLvHS+xsXCLuC3qA8U+j8KstOd+xdKJUQhJ81QrHtWgPFSrHwZFViy3Jz0Nwmoyi4gC0pM2Ag2ht27lBJISHBLqcdrDlaJk0Ew20yDIXrfQhDPf6MPCG67ELFSxZOajXVupLjjSSTuTAsfgMSEcw1S7v88CXlpxfW3QCvv3njCJzs0mmv13+1OvQYdRThqRF4BuA+twSoxOyNg9GBIsKC+H9u2+FU/EH3B61Ar7kbvLRKd/hwIlDk/b70ORMJjcrEz55+A7IyXSsMsjIj1fPNj16wQ0PP+1RL28/DrQEfTFe+TN/dTH8UXAxbpsx7RtkcjxVZUjyY8E8FcE3pci8DcOMN8ZCUsJhb8fnfqwu8cCXJr8m/T3B30i4u1Vl/m/Nckg/k+R2lu58Ur6YwGIgL1nHaYXforK0HvoA5Gekw7r3x3l0arbRZK+17bFi7znYhcDwyg01oUtDfuQYlS7N1pLQuQf9YmJDoUr1MIiMCgHexLjcgMshteysApzx5rrCQ7JtxAPfzWgI9/L843CaY5XOluddy/S3S+5/HuhnlETgS/pct0IAnvkVr4rwaBM9OmO7d/1fbretgC8RGDZuPEY8quAxOJudyfz+5cdABliUZOTHqxvl9b/f3QXm+TReuepk8uNFKwu76xuKU98I8C340hQxXQFfUavy8wmb9qxd45W+IOVtLHUR+NJzZmbA9HwEKvN17AtkOxsZadRs1AQatrtEIWF345YGPXJKkAYhkI8zTrNJHfxqdOyqNPLxjWtccjBLS32eN7jQbOs38o6FDh061o2AUIG7N+07c3MLISU5D8+pOmZzoWFBOAtx1PFiB98C3Es6i8ZsZFF+Gj9ucjRGb1oZsuBLZ3rfX3YaJmF4SbPne/Xal+1v7UY+BhQS0yip+ufxHIJvNC4LNtMYG3o8w8kgeon7dsGUh+90sxpl+eMU5WY173IFAvCbOH5q+pYF8KBl548fvAPycshznGc/leWvZqOmcMdr77polMb4YnbPUivI84G/akFFEK1ZbaP62jnzVeV3JLcYzC40rZr1Hfy71GOn1WH7w9VYbuZHmOsY2PEPPfCl0qYAOC4ubmN2dvaLWM51fElWmVVWqVN0HzLivARfRVmC0UAFAe00LkWbmSuwg1+tS7tDcHgEHF23nNuKMpl6gwvxthMd/S/Ynga1K4ZCwzhtnEVP6ip4FOBZVHJveQYj8eTgUSYC3zA8k8IZxzyJaHKsLOvqESxtevitCGnoNIN8NR9PyIRzafke3qu0/LLg+zeGFnwaz/ZuxCVqM3qipanXvupzHe8dDVc8946e6JR7rP65CiD4BuOZ9TZRxXgsxJCM6wGil5eTBe/fNQTOJB51y5enUvIk9aunv5mDq2MaYycL4EsU5056A/34LvMKfInO0BfexMAL5+9kwd/AvBjP5TasQFtjTkXzAfgSmKfjBDuJDLBMJNLnGa+NQV1OcCtlFt+wcG+VgBH40nPSS9Aqsblz564pKiq6mgpbYA4tzFZBWtJpiMINaHYPwOwyk1rR0v7yoz2yJughaF+W3IglGvw63PsshERFw+rXcZmLRnATSWZwJnLkU/jZn45B75Yx8OQ11aBWRU//mix4ONoWzxKn50HWuTwIPBIAUdEhEF0JPz4qhkGwwYy6tMHShNiUR0X8BeDeeDoCLYFtWkqe9LEtrfzIuOpDnPWuxLjNVvqHWheZ9r0MPVx1esDhcUpPBiL9U7dRGqMuk9MZ2aT2t1lvvQjx28k0xJG8qe+1dz8EtZu1KmHBIviS/97fv/rEa/CtUqsOdL91hMJPaY8vJUKQ++t84a8yjhuhPgZf6jfJ+eYiiJH8Uk4ch/2b1roJ3II+b1YJyIAvPSsFwFpigYGBcwiALTCn8EYGGxsXzXU/V2exsxG9slK+qrgXTF9aJ90jBaryd/2vyMkZqMHtpnMPuc2wByGkQiQsf/F+KEbZyCSZwZmls3R3OrqwPAd3XF4FRl1RBT0cOUZcHvhSWa31NBkYpaflKb/jAVkQgfvEUTEIyPgLjwh0G+xE4OaPy9jUNtm4TE8Gadk468/Oyjf7HaQ8T4bPFL952tozyrle8nhltX+Q7A3bFwcZsnZuO+IRtpk9ro30j7xdVQ2V//hT+9u/y/6AJV9/5nqfN/WtWK0aDHxC8yHhxXhAs998XGVjk1n+Bjw2Gij4QlmNLyz/ouvzib9qFFSako9mvtRvCnFWpxw/kkyq/DYsnOt2ft2svjhfN5v+lwVfpyj0OWWJrVixApKTcbMQcCPUQiIhNb30cnjx5yWO0l50trJWPhp8d2YGQBrndBJVTmlEHfDViu/wykWw5Jk7ID+L7+dZfdZwcJZok2rRwfBAj6pwQ7tY7mCvBV8jckH4VRuJ9CLw7GgF/IWEBbv2jtWy/gK+dOwqA11DKoCLwS0yMRoRGaKZqa9WHtS8eVh+wbY0+OrvZEhyGllZ7LwKaaP2DUKnEL3enurVUSN15huDn9+09Cy3jlPysXs28RiM63+F61y/t/V99NPvofN1gxyi9WI8OBl/EJ7v2QHoyKN7O8kPyFSOLLHfX7cHglHW/mxNXNbjn5uQORda/iqgR6M26NzFl+BLLJymgCfZcru/Wv5eGXCVazXHoj4Xh4eHB44cORIk3TsrEtOdAbPgS+eWEHypHG1c9lUomEjq4EKhwRL37YbazVuaPqelvs4flI9WU5pHFsO2cwHA+tA3A75UpwY9r4fBP66CRQ/eCBknE7lSNRqcuYU4mWSN+zoeifnq7zMwqmsVGNA+1uX1yCwYEahREIi0s/nKTJBkQseaKkQEK3vHkbheH46/UPXrl8MPL8urmTQBI3bEXJzd5qBBWi4aTWWh9XIWXhNdbTJbX7UsHSVaim4mp6xKhmNnSwIsWOy8Clmj9g2LrQz9P5oNtTr34InMLc9I/6g5WpgwulL7W0F+Hnzy6F22ge9lA262BXyJvzlvj/MafEmI1z/0dDn4Kgop5zuZp4zs+FwtDIn5cOar8nBG6/uZx5gzT8vf0d3/eQu+RHWDWfClQkIA5oGvxmkHTbVNATA7uKyc+S1aGE7iDjo6clNusY2rZNqoLGbokeFKcxzI/sOZsOrp0WjwE9WvSvO2CMKrYeEDN8LZ/TvdHmPlp8pBRMson+idxL3Ot9Gn9I8bz8Idl1WG69rGGu7v8uiqy7AOngByCPjwR+CWjD9KgfgFHILn/0Jw6Zv+J0AOwalxIM6gaU+ZziHT3/QcoIU5LcYrf2OiJXBy6RiEx8DyEeWLEPRp5kqORQoRCclKOQ+/gMj/Mp3PLcCf0blcomsFfGnGuxBnvN+jG9AEDfASPV+CLwVWIN/OVt1LKoJ0bnuQXFtEFoFzF0K5pZe0/W36uNEub1fe1pdC+414daLj1V723z1rV8OGRb+4VcMKf9F4Tp/8PpfPfO0DXzIZIdeTdls7s/RycSA6R7MAg8Tix4ofv1FKWNEX9VXBwcE/m5n5quWcw6M7xwbgqz5Mu5+4E2qceOARWbEyfLz1EA7G5tzusMJT3u5l57WjsyXjqtc+BYTll51Fkss7lwZL/zcKDi93uBPlyc8bZRHRqxIVDEM7V4JbLqkEsTiLlUla8NU+bwXcqLy/0iN/2z9tToGZG1OU411s8kV7qO+gkIIU1Si8Uhz7Wo9rhQ+dbQ/q8LRqU0VyA0nb35ZP/xKmveBwSmFHfR//4kfo1HeA1/2X9nxfwiXxY7iqpiar/A0b9zae/X0MFVEjWj8YX7T1smO8Kk16NfCDu0FkqOXJFutkQzSTTsSPcPrpJRY/8nKz4cnOzQ3dJOvRxPG0ODo6OrBvX8ec1IR7Z89jSJLgS/xcjr9meozRPdFgT8eRyOqxbss2RiRc91nhKTf8pHOQZTQdTErF87QeyaTTjiD8KCF3ggGBQXBiMzo4YNZNrQ4uirhUK0QNkyq9bJw5bjycpYQ6PIrLypVwT7cGGlqJkr+CpcqvHfz9ezQbPludBK8tPAlrD2VCDsdLia/ag9bzO97zLFyDe74hEeiiyiApfOiALxVvEF4M6G9FKmn72/7Na+HTR+/GlQVaxjeeZYheoOpft0G3wYBHR9vSf5d88xn8PXem65VW+atUoxY88MGXuFCg0Xk/GV+ocv48/on4o+GmaXQorraYMLN3tiTVVxZ8qcjhHFz90lFNnvzWzZ8Da39VbKcsJdJnNExeO2DAgK+JgBnwpefdlqBNgC+VnYG/6/W41hvsqdzy6V9Bt5tu0yPhuscTnr+ALzFJ/NUMRuMe3OtAR0klyST4qgVJjzrd/xxQIIdlY+6B3DRHIAurgwvRNWoP9d0Ul3Y++pWmXyM8Pzz4kopwbasYiMMZsos/Gus5yn4hzHzJmOqPXenwy9ZUiEcHHGqSlZ+rgMEfevRCIqOh11tfQeNrbzKg4rit6IUB+NZA4CWrZ5mk7W9njx+DyfcPx6X+PFvAt2L1GjD8tQm2gC8dafz1g7ddVfKmf9wyehyEhqMXLjWVg6+MqijPiMbnquF4UqIUwJeWnnN0or2J+Fs54zvpOrIPqv2XTgbRPbPgS2VcS9AmwVflhVABD/R6Jr3BRX2annn3r/+gBnrH0ksi4fnrueE9eD4YJ5CuPTe9uvHusYPpueMJsPT5UXDy33W8x6XyZNpDjxBtx15SLwL6IBBf0yIGYjhL1Ocz+J5B6+hlu8/BEjyutTUhyyPOsrfyY2WrR498hveZNB0qNWrOFuNes/riekjz8UdLzmR0VdLjuaSUTG1/y8LtkLeG9AMyVPEG3NT6UjCSZ6bNhbZXXWOLAeaXzzwIf/30g4tvca3079Ru2gLe+HOdsk+ppHLw1ReY5q7e+NweT0iEO205ZAkSPTMzX6J7ALeIzgqOH4n4O3X4EDzXo70lvdb039wqVaqEDx48GEwENnKJQtnoswi+VLQO/rq4qDn/0Btc2GfDIiKgTY9r2GzXtUh4/gq+xHgV3BnPwFNauV64q9QKJCw6FpoPvhOXOoLg5JZ/UGH09zlYYZppD7asek2T3eNotPUXenj6Ac+6bsBg88noKYuCPlTBpWpvjhqVxUyaPpZ3oQ/sef+mwUcrTsN7SzBwO9btBNaRndjbIT+tXIX08IO0/V1PwrUIvhFx1UVN4ZYvA77ke0WxeHZ9botJa/tbQUEefHDvbXBwy0ZLg5T6Fm19KbDB1cPvtgV8D2xZDz+88pzyGm8/Du599zOo1di5o1YOvmIFYe7ojc9V0NDSdfZXkqIV8M1HwBYdPdLjb8HHE9H5hvlJjVafafY7fPjwn62AL4kkwAvwVUXqNl4JBxdBA1DYsY82H4KgEM+9Rj3h8d4jeIUruzTp0elKOiOMR02lk8xgenLrWlj63J2QfuywFF2enLwdrNgXV8IN8E71I6BD3QrQoU4ENMNNxiCJr1479mi1vOjRI+O4vbg38O/RLNiG+7qb0K9zCseYiq1baciP2iOiak2M4zsV6nbrzbIgvJbRFzrr2wrP+sqY1Gn7B/lt//SxUbAeHRTYpS9NL+0KY2b/phhe8uQqrKjzhpY/+jh45YarbJmZN0Mf1C/McUaQKwdfo2Zw3TcaT1vjud9IiXFAJUj0zM58qazI+EqPv8KCfHjskkaQnpwkXV96kNXbsLCw2JycnHRTRDQPB1sxnWZeth6vL+MxR3lGnZf2cDb/uRC6XO++16UnPFYIMpUvbXo02aCB77+MAEBvkIZJkZPBHh4RoUAOt/6yCda+OwZ2zv7Kw0BL+yKenIzaQ49REb2zuHy7BPdM6UcpAr98W9ZEQ7Jq4dCkWpgCyI2rhrm8b9EzemApM1Nj+dTSI69UtHe7/3SuEp7xAPq13oV+sWlv20wS1dcMDe2zInrNBgyDK8dMkrJyVunJ6Av5PWiJFs9mwZfe8eMbY2wF36hKVeDhj7+xBXyJvwWTJ9oCvtQmQ8e+5hBrOfhKq7bReFqRHPSUAvjS7C+J06+N+Nu0eL7X4IuvPoixEdJ5/VpGkDT5dVnVWNlAdr7kS/z/Mh4TsoP90m8/cwNgI+HJVE77TFnRo4GvNQ6ANBPWA2GZwVRbn9CoGLjqlU+ABu4V4x6E1Ph9HiLxpj08iGGGGXoEgJuPZCk/bSIjrtq4HloTf7Uw/GEcurSMRefssTiDroi/mNAgiMZrAuBg7LwE5JSIXgGdBcbeloGWjhl5hZCKs1f60fEgcixCy+P0O4G+mMn/NSVZ/XNj0nlhpr688mwej15UzbpKO9brbupIvaNeBh9ruPUGrVD3DNx2u+SkPdry64fj4c+pU2yTH9X9ngmfQFzd+lw9YmXFXrP99+juHbBgyiRb+Lti8DBo3BF30crBlxW78JptD+VBRn618OiRbCJ6Vma+RP8sgi8OD25Jhr+l0z6XZU95jtd/8T1f8vJlCKsrzwFDhgyxZL2lvqR69epw+vTpNLyO0b7Y7OD3JhpANGjbUelU59s5N1b52Aagg0l7EIQRGzySIieDwdSjkCajMDcHNn32Nmz96l10UOF4AU8pzLaH9p3l9OwF8wAMNt922EPQ5clXpY4XefQrA32hkJktLSw703t+//IjoKDkdupLPzxXO/zlCdxBTE+36R47HtDS4cvoNjBh53ajosL7qj5XiI6B8cs3A1ll+7NNidH4IqwoR37Ksz7+2KDZbzM6lymRqH2tgi+R34V2KBkaIxJWX3j1pQAiL/btKsGd4xHB+Edf+Z77phJUtdu+gV7MfJVXDRw4kM5BuR2kstJ5f/vsQ4/OxhOeRP1cj8g0RmnQI1VsiUYwlZjm8hZ8iXc6M3zZE6/CsIXboHHfwdxBzkp7qHIRKJ8Zsbk9e7HTIzeSN8/+B64YO8kn4EsGV1bBd/WsaTDzzRdsBd/W3XtiWL+3uHpppES8/jv/o4m2gC+9exAGgCgHX6NWKLnPaw8emNeRDK3lLfhm4aqYWfCl2iz69H3pSuuMV/OkiWgeZG2uaKvSclKJLVy4EH3u5ijGWFYHezLCmrRmB1SuRYbVzuTjLzUzFZdVPj2aZHm7F48oodtkh5wMZjJ6tNh7KpgfW78S/nnnOTh7YJfyiNX2oLI6yse+Xur6YqYXVaM2dHnsZWg28A50sCK/PKcKVm1fD0FrjhrFIfg2xQ89ma03Vp/XzP4Opj73KDraMLdPruWHbd/qDRvDq4vWQBR6vTObWP6oPC09v3RDDw9/z7K0tfzVbtIcXv9jLYTguV+Wbxl6PP54YCRDi565UOjFoW/eRpwjiqwcqL7ezHyJXjz6eU9y+n6WlV/ysQR4umtLXHQ0Nszh6YVmPO2PLDgt99ja8a9Z8KXJr9w6AYeellizZs1g165dg5C5GpxH5bKwQQKDg6BN92scz19g4EuVor3NqjhIks5k5HEUwKrTDs0ydkydBtDy5rugQuVqkLR7m2F0JVHjGCifqJgw/2KlRwEULn3wf9B7/DdQtW1nn4FvDTz61hT3fGUM2NjBasWPU+GbMU/aCr4RMbFo8bwY4mrXFeqE6AbLHz1HS8+T7roFUk4eFxXTzWf176GPvoWaCMJsvi4R500ef+Xgq6xsow4God2B/rzODvDNwzEv3hn1yEx7/Pzu61JHj3h6oQHfo1hV41igGmXigS8dXTL/KY5EecSQOTLGspTUyq744RsMAI/byRcg+KqCQVMiaBiaDw0xCLqbmtoAvuo7AtGVXhuMFXvHsv3Q89UpeKbU3HeRgfKZbuOLkR65juxw99Nw+2/b0Z3kMxAUEWl5sNezESDZ1kPvVo3JyYZEYgcr2vOdNvYpt1ioEmTcHmHbNxD3uB+e8h2QcwuzieVPKY8dZc6EV+HIzm1myTmKM4DQuf9AaNuzt+X2uNBsVPSEKmoP3p55dTSaDCsF8CV+T+bSSGpu5SD7XDqsmjlNr7pcfaFMDfjSJR4/kU88vFTPDZueAesQ24gsPYM/SU+zjgpoO29BXh7EYDQSOpfHdmqZ6ppRlrKmR0dEMGIfpBQGQnFgsOX66g3O1Emqtr4EWg+9D0IqRMCZff9BQY67ZTIrB57cGeVji+heX2z0yGlK+zsfh2vf/Q5DTF4HwRRsxMaPK0XYTnp01roZAm+NMGvgS3ths956kR1cdNuTvclr32EvjYfuQ4azjxpei/rvjlXL4LsXnjIsz3uA5Y9m5s98Nxci0ADLbBLxxwMjGdoXEj3ygtc0AqOb6QAw1dfbZWeSawHSOYinIehsv5mPoT+++hi2Lv1Nt2lYfaGHmfGPLF2lD+vr4KXCh/5aAcOqETF8/D38SfcUXmVj0SH65PV7uY45GHbcLs9XZc5EQ7p9WYEYT1huEFUrrSiFyT3kwjw8E7t4Dmz54h1IObTXQ5y89igHXw8xcTNolaH1rfdA2+EPQViMxjurj8CXTnm0iASICpLTG23/oL9nvjkWLZ4/ZgcXbt1EmTx96TX8Hrh74ieiIsJ8Uf9NS0qCF/p0gfQz5hwm0It4/N0zcYriictsEvFXDr4OSZLhVS2dmN8kPzvAl952jKIe4f6vGfAtzM+Hxy9rDqknEoVNz9MXzvg3HQncISSiuSGBl/IALEPM+W6KTm5onq1X2Uc+mQbdBg+VqaPyzPneOegc+b5s/jElnhAUpTAJvlo65OUoftl82DbtQ4y29LdyS689eDwY5V0s9OJadoAOdz6BFug3oQ0Do/Y+Al86ZkQxqK3E8yUPUl8985ASAYYzuBg1q+s+r3079rkOnpw6GyfoLvcCUvRE/TcgIBDGD7sedq5ZIUVH+xCPv5bdesDYOX9wdV3vBSL+ysHXITX6GGyLS3p4gp8rRjvBl2a//+K5/3wyotJ+expsW66e9R18/uR9XP4ok6cvgv7BryRDWRYvbSXm5OFH/H+YsKYSla3Vsh1MWLaBKxSW7oXUOY7kBMCxHLaG7tfegi9L/ezBPbD3l2mw99fvIftsySxDoHxsce61CWXmlmcz/Y0eRSpqdM2N0HzQCKh9eS+vPobYuhq1LxlbNSL7Aame6/5xmpmeApPvGw571q2xHXxbdO0Oz/+4wNb43nMnvQH0M5t4+kLWznTmt3qDRqbIXUjjC1Wcgmqs+PFr5aMm6egRyM3K9JCHVn5haLsQV6cetO5+NdDqRp0WrT2epzO/dPaXl+wEX6JPM9+ELJzjmQBfKjf6ms5wfBf/7DhPXwTj31Ik1YdXT22eLPhSGb7UNNTMENMUE66LyVb2OezM7a++VreuF1rnoMomoW4dzA7EUH+eIjQanHWFxbmppUcOPQ7hrHjvvOlAR5mKCzlxjTk02CzZ9mXLia79hh4iXk10A9oCg2I06T9EOcPry/ZwkwfOpMkzWBME3jgEYNmk7R90/OK9OwdD4oG9toMvDcov/boMImIqyrKmPKfXf/eu/wvevKWvaeMwkb6MeHUi9L//cdv4473HiLhefX1NLx+3n6a/NBqWff8l0AqYKPH4UMGIjOuuGXkfkCyDQxyKGIvA21zgdIPK2bXsTPwWYhCaram54OZ50mDmS+W2LvkN3h3p7upYrb9efTkyug7zFnPyXVlm8VIXgM0S0zBGa0Y9WUbNVLZ2m0vgnT//Ec6Cy1KZ2Xrxrr3hD+0LYD+eF9YGcijNwT4PZ0qHV/4GB3//GRLW/OHYa+FVkskz074S5Lhtrw4GMuXZZ6zwV6lxS2jS7xZoduNwiK1XMnsqzfaIwbOVZGwl6d9AqbZW//ZvXgsfP3gHpJ4+ZTv4VqvfEF6atxIqVpOL3qS2iV7/SD11Esb174pHjk6wTah7LWrfJp0ug5fnrUBvV/I2p3r88d6jyxjTHq5nJcBDRNcMfwS+E24fALv+XiUip+Tz6sXrb62v7Ak0QQpFEG4bHcS1fKZydoIv0TuenQcJzqNHDobB0IMZlXu+35WQuH2TR91l6+ss+B/+39aDiCbDCl4KAdgKMQ0vN+DfC7TMmqysUvRpjBva6drrPepsRvk8CnMy/JXeUVySPpob4Dif6cWeL1tlpVNJ0ss8fQIOL18ACX/9AcfWrhCeK7bSvixf2uuyokeexWpd2h3q9eiLy8wDIbp2fQ82zcjPozAnQ0QvAPeUa+GZggbskTUODW2WVp9X/PAVTH/5eSjIz7MdfOk9L85dAi279jDgyP22Xn8rQLB4Y3AfOLBlgymaIn0Jj4yCt5ZsAHIKIpv0+OO9x4huWdP7+vnHYNl3X+iyyauXopeCdO3dD8HYdydDbY7PZypnN/jmF+bD9vRCcIX8lfx4Wb/wF9x28bQnMltfFMMo/H0rEAf3aK5MiEIuAHsJviqPO/GPVnRhobIKjbhmbeCDFRvdnBeUtTKLGkDNt5u/VNS4/RlFkMsGzfWRgY9e/YpwED+++S+cFf8JietWQPLe7cpStdX2Fb2rVOnh0nJlnOXWvvxqqI9BEWp16QHB4REi1kpt2Tk8NASaoZVzjKSVM6t/ypLjuGdh5YxvlVt6g6mwss4beu1B+4P/m7kIaqqxdA2IGfWPL595EFb++I0BFffbevzdN+kz6Hk7oHeYpQAAIABJREFUjZ1yyYg/OSolT5U1PdrzHdO7s+VlZ1F9aTVh/vqt0Lyl+56wL8CXwDwRlwWPo/WzkiTBl5ban+rVBZL27nCrhp6+COp7CvOFzhS8wUsPc0VviDHMk8NNbrQI2cEgGc+t/rVoPnQfMEghXdbKLGgcV7Yv+IsOKID2URTzMgAwop7D9qAMwJcqGYhLTnXQ6Ih+lPIyz8EpjE9MMYrpl7RzK+SeS/XZYG8kf959trOFVECjklYdocYl3aDmJV2V8I5ux4Z4RJx5it5KrhzokHHd4tEjfquHB0FDyTCC2veo+nf2eCJ8/NAdcHArHc33HfgSbdpbfm1QL8UAi4Kp6CWj/kHnku0E30v73XhRgy+1BRlcWd3z1WvLIvzw/nna1zB2/CTXY74C33w8onlKDXkkCb7E1MpffrIDfInUByJZeIuXbjNgb4lpmWzSpAkcPHiQ/MbV1ObLgq9aJrZJK/hk1WaaRps69yUSmJpvNBgYlWfvlwa9jKIAOJgbDNn4v9nEG+wVGjaD+blTx+Esfjid2bcDzuCXZ8qhPZB+7DDkI1gbJRYs6Xmz+qK+IxitXmPrNISKjZpD5aat8NcGquCKSky9Jqb2AlV6pSG/cPRm0ASPc1BABbNJ1b+tf/4GX41+GDJSzigkrMqPypppD1rqferrOdCmh+PjjOXfqH/sWLUUJgy/0ZTRlR5/MXFV0ep5C8RWrcaywr024o9bSCfTX+g9d1UHSNy3m8upnvy4BZjMZq3awKKNDu9kVF+7l51Vegk4+1UA2AT40gfCI907Qnp8ib8Di/UlM3GcAnkmO/DSNQO2g5iWxV69esHhw4c/LywsfEXNtzIYpGFQgQWzZ8P1t9zsnP45qZloDFZ0/tI5WL60cuIdMqd4uR3Q+PBYLsDxvAAolHTeocjdxzM3hXcE8xjcM6Vfg6vd9+5zUpIVID6XeAQyTh6FLHSsQHk5qfQ7C7mpZ4AchRTk5Cj/FxcV4mwa3ZJiIotjOmNLYfxCo6KVv8MrVsFfZSWIPf1doXJVoPi69O4o/EVgnkey+WPDro8XCp5QGx1m1VU8CXlwbZhB7ZubnYVerV6Apd987gJdK/1NfZnZwSonMwPevWMQuqCc5hbbm+gZ9bcTB/fB5PuH2wa+xPv973950YMvyf5MIrkt9kxm29eTAq7KJRxRsn0Jvrmo26dNgi/xtGDWj3aAL5Hiup20Cy+V7m4XMaKlpbd69WqKFZyCeRW9GQwi6zeDySs2QIh6wP8iBF/20D9thyTgsvRpBGO9VJrgy+vUerzRvYudv0r4CUzLzRVQt63KL3HfLpjyyChI0Jxz9Ka/8fiQpUdOOGjftfutDmdBRuBLM/VXBvQEAmHZZMRf1br1YfyKLUCzcqNkxJ9Refa+v9G7p2kc5GS4rz4ZyY+tk+g6Ct15bjlx1mczX3rvwexCOFuAgXpMfDznoderh7u1g+xjhxTWvagvja74aeye7MTLQDuJEZtaej169ICgoKAPZTsvW1G6JuFlJeyHmTOcIYfLwVcRExkfNkXr2DYYeD3KYyffIcmLHdxc+mSi82p10Jfyq4DLzS0ReFtg+1kFXwoduBzPdb58fQ+/AF+SHYV5I49DC6e8ZzjzzcvJhkl33mIr+BIP5GDinWEDgGblesnfwJLl1Q7+qtTShHfFF3gBRix7UKtuPZ+CL8X7NQu+xOT33063A3yJlEeAIbvxMjAlhSaojkTxCWVMp10FmD94zMXExLyCjzk2pEQFBflaZVkz5W1Iy8039SWkJWuHMvsjPXJL2B4H8sZouKs9EeBL8HBrLj8EN3/mj9zlUuSiDpFFyl6vmS97bb1OHT4Ebw3pC9/873E3b0befuyyXdEKPSoz4/Uxir/pYu02iebjmXzzfnjvUNi38R/2lcJrM+BBdCcMH8j19EQvuFDHA1Z4ba+6xpVlRn4sHd71Fdcgbe1JJWzfIC/GA3YP+Sgu85ntH2fxrPBfU95S2PWyvtlI4jFtvXn45i1eBrVu7TAj9wX4EnPZ2VQPxeNWb21ljP5mhVeI1rXHQyrBFVd0NSrqcf+C72woXYquVBPPjIbhJmIGuknlBpz2onOU1h4y2+4ejcnJOB8+NkKKC6FOeDGuWjjaigKBmh1cqOpk0UohBCfffzucij/oJg0rYKkS4MndW3r7N66D9KTT0O7qPspRQrW+RPeLp+6HDQvnclqTn2WFvzOJCXBo2ya4bMDNbv6pL/jxQCPCKjXrwPLp3G1Mrwz0gnGr4bUPp0BlNHZTks3gm1qIhlcFQVwQ5WuII/fDSe/DiWW/cMuZ1OePkOKf6rt8Ab40+VUA2FfgqxEUefx/CH/GmzLUlhxHtyS809vWQ9Ob7oTqsVJklNdfTJ2NvnIiA4uhanA+UHiwzKJADNnlbIVy8HUKQv8/u8E8GKcIdTH+M20X0GqFotqamaA+N+53KR7u+/fcBqvwbC8FqNcmk4OLW1lRfzPDm/ZZLb34HVvhGJ5FvfS6Qei+0GHePfONsbB02ufS5L3h7/SReDyOVQLCF9N4QAKOrlIV0pJPQ/w2PEmiSd7qy/AHHoKBtzlDTtoMvkUBGG4wF8cuY0/JbnXafvQ0zHvidoxXSPGA3JPJ+pLlc0+Vgq/Al+gHXXnllbYvOwum5eRcuC8jF49Lvc5WjI4gDp49Bz37X68AjFG62DqbWl/EYHTggCfHMU4sHW3JDQiBApPKTLK1G4wuJnrhuBJRN6wIGocXQCy2heub0gL4ZqWnwQwELYpidPb4MQ+1Nzm4uJXX628eL5LI4NE7jv6nD2xeB50RhFf88A3MHv+yBCXHIzx6Zut7+sghBKAt0PmGwY5ewCybWlmJUPsH77SCv9GjQAoHtqyHJI3VsnQDMA9Se3TteTWMnzLVcZzPZvClBjqJM980k67oySh10ugnIWOX4+y7lm2z+oJlKazuMqLhS/Al+hIwxrSA5tICc2QT724VoKEn1dlwKeuGmWthWPcOYsbwzsUKvuyeDA0GNPqn4ISJnHlo/UvrCfBiAkuSg131JYO4WnhULC4EA4bT0S8vBnvi6Z9fZsKPrz6v+HGW6h96jcrcY+mRd6N6rdpB/PYtJqiUPMrSc8nV+Qh5yzp5aL/00qcRPbNMdup7Azz66fe4HO08aG3hY0h95/k2vlAYyhmvj0WXlF+aOu6llTEtOw+77wF47rXxjtUMH4BvfkAQ7MzEvmOycX9Ysw0WD8PtSSbQhAXwJcu9aHq9BXzT5ZpHD7/NrSUeMcHMV/sCMuv2dO6MmdKdDQel4wf3Q5vBI6GSwGHB+dY5FAH5cDCgr6wK2NLVERjo2EsxAjL5NNdig7aR7AIjleaFTo/O7lbF/XcyrqqHhxYicAnCW/A9sHk9fPLQSGW/NyczU75/aBtS52+2v1XAIyWPTvkebn/pbaBgCIdx6dhMYulRWXbwU52DyNCVoSdDR32G6J3AcYOcUlza/0Zl9uZvM1VvPta0suCNf1Tfjr2vgy64ChASGqZYiOehfQ75CNdLEVFR0LBJM7hx6DBlz5eWnZWgFj4AXzLgis8pVsYmMyk+C+DHx4ZD3skEt2Ks/knSHI/PrbSIb8JXiOhZmgGLiAnf7n6DDmc11GZZ6WwtJ8yGZ9HKkY0Qw1M+X4KbZJ1djyXs2qG4h9v910pIQjd+ajxOkbJQPE4610gehq6+/W6PeJxW60srPMnozOMk9j8y2lLThQ6WbHt5U1+KwlY1tBgoRq8aDtVqe6h80XLtzDdfgM2/l8QysdI/2Hpqr1l6dVu2gSe+mgU1nAELqA7Ew8JPStwMmqFHz4r0WY+Oeo/lz256lyEIPfTJNNeetJYnMmxb8u1nsPPvlXDm2FEEqSwlkANFALpq2F3KCoG3H1fa93mrL6w87aJXGSNwNcGvdqLHWif7CnxT0N/9gSxz6JuDZSZ+PRP2vjzKTRQW9S81Nja20m233Qa+Ph2kTlZNA7CX4EtCugd/LrM8q50ttFZDuGXBdrie1vucyS7l8wU91Tn+8h+mevhmlVUWNh6nXfXNLAxQ4hAnY+CHnDwNGquCKDfgcukY7e3GIejG4epLJBMowZv2OIN7u/M+fAd9IX/tZsFutX+4GGb+YOmRhfB9733OdVpBZ3nJYEpPP1l69Dq950V8qfmlRa/b4KHw0OSvHbM5fDnNBOe88wqQP2qR72Sy5O6FH8HDXn4bQsPQnJ2SD1eujGTF3vdG/7S0SMdbR6HVOjnQ42yj2HnUSAXzYpTjjgz0fmcCf6m+8xOyYN5NHd1mv17o34uIb2+WFviSzE0tQdsAvvROWtui+FBx3nQ2OpaUHBQJTbpcqSxF26V8qiLaSU+Nx7lh0S/EqFbXTQ1WxNOhfzfB/o1r4fJBtyIdpOXFHqPKCJ1NjQ0uhurBBcrZVAr+noc9QgnAVA6+yvnqGrjE3AjHXAoNWBGX8Ulm2mRVX8hV4Ky3xsEX6LyCQvBpB39v+oc7d44rLb0gtEgeOvYNuP2VCRAShpXjpGaduwI5cti6dDFXT33Jn8qOF4Op7rI9RQlKRocdnfoOUPZEP8SQdatmTPPon1qx0GyFrLr3bViLS7k3QXBo6AW3jE1q3TwSXb7i/6UFvqRHx3KLIRU9Xskm0ov95wrhl4/fhbQ1JatFXujLqTp16gyMi4tzsVAKp4PkAdgm8FUrNx+F/hQrbLPCy9q5ATJ6j4T2VSMhsMg7gxctL1YHU7Y+6vW0MU/CRgJfJpmtr1o8KeEwZKalQPue15ZQtOFLHK3/Mbg2+g1FgKmJFtTVI4IhAq2oac84j8F6ti7aa6VepeR7mgcCerzRPSP+iCYZU9HScgM8u1sfgZf2zlnQVd9jRV8oitDMN15QzsMS8BIIaBOvXlb1hehq6VWv3xCe/vZnuOzGWyAQZ3V6qUHbDlAPl6g3L57vxqMv+dPKVY83vXsy/JHrTlp5oEAQ/8ydoUfOTX50vjg9OQk6YbQl3nt0CeFNK/qiR9NOeg0qBKLVPn58l9LMl+RHHq/iTWz8Un2z0ePazJ0n4MDLd0Gx80ieN/0jJCTk6T59+risD0sDfKlNpZagbQZfxbps6tSpi9GVXj9VsawKr9K1Q6H/O19DvyqatQsbwMiOmSXVjfZ8X7j2Mo9lLav1VRoNlZaWo9/4fS3UbtayVJbBaDacit84aQUBcA7/z8SITLw6KHnnGfiSPCMx0EUMbuTSSgCtAsguDZkd/ChE4G+ff6h8kHGdpTjbV+0X3vYPVV9UOl0HDoG73voQg1VUMgUeO9Fm4b1Rtyh+hXmgw9MFtg6ia1l6tAQsWh7W0palJ+KHzRfRe+OPtdCw3SXs47rXZvVFlxjetJNeTVzqqRNauuBLc96dmYWQxcY7F1Rcre9vyYHwxzMjIHWFY2Ljpf5tveqqqy6pWtXhVKS0wJeqqP/5iw/4AnxpjT08PLw/kle8CXgjvNQls2DdksVwKNv5LeFH4Ev14sXj9Ka+6mBAM6ZVs3DJrJTqS+euqyAwNcIl2PbRxXBZbBHuE2EEH7T6pS2AENQkpV7nAfiG4BI7gSzx3grdeHapFAgd8OAB1Y3qaDf4UlvR9sOrN14NL113JaybN6fUwZeM+e59dwo8+NHXpsGX+igZIY2d8zvEqp6PKNOZ7NBnDTnueFC9QSMML7gZGrTRP34oAkstfTN/69Fb8q28MxF6p51gaTc9+visXcrgS3U4hpu+ZsF3f1YAbFj6h13gC2FhYZeWBfhS/XVnwL4CX7UDzJ07dzKGK3Tzt6nek/lf7RyhNepC++83wV1NIoFC9vE6jRE9X3WOsdd0hsT9e1yvt3Owqt28lTIo+Ut9c/ILlFjFWbiaikf5IAf/z0MnILR8bTbZAebkljMMLUlwVQ1/xRCB7kjofzTwdCQff7yknDwOq2ZOU4LMU4AAo8RrRzv0pemllyP4fgo1GlEsZOtRl8j698SBfTBxxI24dJuoVMcO/rRy4dGrVKMWvDxvBVSt10CJc/zmLX2VlSU2+Up+Iv6Inw/W72XZ4F77anyxY6WOjK5aRgRAAIYAZen5wuBKbadMXHrehYZXMsODKr9zaDA6bX8G/DuiE+SfTvRa/3ALZs7gwYPJoKY0PEJ66IYQgH0NvjTNnzVrFqSlpSUhVyU73x4s8jPYzlb1loeh85gPYFgNdGAmrBWfli87xwOtarqisvAGFz5HnrlsfemJMAy3NnV/sufDBjm+rK/r1RpwI3eYGFNbsXDMReMuNLaGAvyb7K0p1CetPuU7dxAK8ZtQ4Q/3ddRVKTpnG0SNiuChHvehGTfNymlflvLI5SPNbMPx7zC0Tqa9bCpHqTTriy8DWq4l/7ubfp8PFHRAJvHa11t9CQ2vAIOeHAP9H3jc1nOvdE544shBQIZMVpNsfaMrx8G4X5Y6tlqcL0vHWNIEwsf27HS9XpaeLL8y9Ggb6PtjeAjVIJWm/vH41mOP+lBLjEMdir7KSxN8CXT/Q/DNlohprsqPfGzMPh0EG996ApJ//dJr8EUWsqOjoyP69u1bJuBL7eIcotybqDTAV+O0g3xET9FTEvYeT8nIUKjpZyuhd/fL4cqKMt9UDqq+7hwPtK6l7Jt5O5iyMiB65Dzhq330/SKffF1fhRMCPy9nWuxg4M/0ipHZ+O1bYf38n2Dd/DmQcvKEfIOQuDhfjN7qS7PO3eDeiVOUM6y+aI/MtFSYiOfwDzE+hmUqLltf0m9a9m7UvpMH2TQM8vDmzX2U1SVZeh5EBBmy9AiApx055zrKxCPn7/2tKS4PRQeULviSnCjS0QmJM0da+f2VFgAr/tkEBx7uBcWM0SJP9qI8tX0xVO6bN91004uluefL8uSxB1zK4Ev8fIq/7Sxjomth58DPo6Nv3g9rk/PhsLofLCLizC+NzlG5Zm2fgC9VoUrtugY1dL9dGvX1xWDvr+CbsHs7zH7nJXj2yrbwyg09YPEXk8scfCtERcPwlyfA2NmLfQa+1B4x6OT/gQ+/AjrOZCYJ+y9DJCQsHJ5BS20e+NKjsVWrwZg5fwC5t2STtx8vsvSo/yleoQTJ3/tbPVwmKgvwzcClrZMmwfcwutHdgGP7sfEP2QK+2GSJtWrVKlPwJbXBwxUlqQzAV315R/zD/RyGljHn30adN+fIHjj53QRYdP+LcFdNT0cJWpKl1TnIgxW5v7OSjOrb7qre0mRLq77+CpaKoLycmZPXMjoDuvPv5bDl94VwwoRfY15DGbUvr4xeXsfe/WHk6++VfJh5WV89j08Ub/cDjMwku8SuiF9ypk+g/sSXM6Bltx7C6pI+x1SposyQ37ntOkhED2KUSgt86V1tul+jy5+e/IQFBTfs7r810eAqLgjXdLWLhagvvtzzpaoV4QsP4ZEjozVKbX3pxMUfyei1D8f27PhdAgkZZ2v1D/1av9CvX7/SCkQkZM61BF2G4KsyR/bkg0ScynbegJBQaD5tEzRr1RJurcbfD7ZbmfXoJe7dBWN6d/Y45ymqp5pvVF/68iYDLOUYkkHS44/3HgNypbqnWtb80RLnLnRLuGPlEmVvV3UdSjIqzcFer01qNmoKdyDwtsGoN67kQ/ClUILfjXvGZ+BLARO6XH+TsMqsPpOx29u39oOThw8Jyxjd4OmZXvvS868uWgONO3b2IM3ypzzgw/bwYMAgoyqdAAhBCCxl8CW2DmUXKh739JJWfvTkT6cDYf+u3bD3nq5AEfGsJG37ouHVejS8unzOnDlWSCll7MJLBYDtIqbWxgt6ZNHg9PFWIhuznSOybVdo+vkquLIyhs7C4zLaVBad49uxT8CSbz5z40PvQqa+fe99RJntGKWyqK8RT2XdHiL+6IwpAe7utathz9o1yv+01yjTHiKavHy76IVWiICBjz8P/e5/DELww9OVfDTYUwziaWOfEgZ459WV8mTrS0ECHseZ7yXXcuO1KORF+kz77m8M7i1lbc7yKcuftlz3ISPgwclTWVJC/vxlZYhCYzZCJzvkdMeVSmHmS+9KRktLmv3qJbZ91+K+79pUgP0P9YLM/9brFRXeY9q3EI/ABmdjIAqryQt883hlgJ3EiLqX9J5DEu9oubTSOah87ScnQbVhT8AQnAXXR29GlNjGVTJ9NFhp+SY/sxOG3wg716xQXqmXZOpLy9rPTZ9vuP9WVvXVq5/2XlnzR4M2hd5Tf/s3roOM1LNu7Mu0h2x96Tk76JFDCpohDn3xLXQVWdtjJuOLwZ6O/0y+/3ZcDVhlprrS9fUGfNX6klvP1wmEEw5L82ilPWjF4bXFf0NETKzbe8pan40qHYkWP03Di9DHszLvcqRSAt8ctHYmhxt6/jZY+R3D2HlzkoLg1IzJcPyj542qx73Pti/Ofj/Co6+Pcx+WyPQS3zzeEDBkyBBXZllag2k424R/K2aPrPAojxpJJgWEhEGzr9dCtRZtYWRNOgvqfXxW7XtZZVHu6YA5gfAPrzwHS6d9IVyONqovLTv3GfUgDH/pnXLwZZRA1B4Uco0GZNqvPXFwnzLDpbOs9DeFZNNLRu2hV5Z3zw56NDu8DX0409ZDae0xUmjC90cNUdw2mkmy9aWZ/LPT5gIFjhclUfuyHxuncBmaZsJnTzjOKYvoUb4sf1oa4Xj077Xf/vLY+pHlT48f7T276dHxvGYIvngKvOQ1pQS+tOO7Cx0D6DncYOtL+77TTwTAGeyn++6+HIrycmRF53qO074J6Ou5flKSuZMjKkG7wZfouQDYT8BXrWseCs/DvFIWfFUi4Q1bQbNv10OdmHC4pUquu8WZDlgatTSrLMrzkvSO4Z4wOWbYsXqZ4gxeBQGOsigfG9Th4zAcIRlc9bx9lEfH5/HqDX/+SC8/NwfychxLRgV5+co+LIWJI3/YmWlpyqw1E72rZaWnKgNvyslExVEEAUb2uXRelQzzRO1hWFDwgLf0mlzSBYaNewtaXN691FZyAgKDYMnXn2Ig9zFAAUXMJNn6hqPV9ujvf1HqJUpm9fnkoQPwxs29dS3SZfnT8kRlHvv8B6AIUtpklj9RPdV8u+nRmXia+YaWAfhSnQ6jR57TOt542PqSNe5Pp4LgaFYBgm9XyDlo/ry5oH1vRNIlkRuMGkJz3xfgSx4hFStoPwNfQAu1D3GZ4FmtfMyCL5XNQYu5Ex+PgcAnJ8KygEDoW9m5/yAJlrz2YZVFecYEvTrovWrEqxNdpL2lx/J4vtMj5w7kvpOW68l7lNboia2rei3obKLHDfP9iV6TTpfBTU+NhQ7XONyml1b70jnfL59+ALb8uchQXuwDsvKjJdzR0+cBRV0SJSv1JY9f3W4aqoQW5CVZ/tiy1z34ZDn44qTATKCGs+hxxwz4ksyXpwRCYkEwHP/wKTvBdzqS9ivwpboG+xv40pfG0qVLR8fHx5NFdBNi0gr4UjlKyT9PgejOvWBnt/5QHd0mdYjGPZCLyEmEmY8DVWbq/1YGP5aG9lqPHi3RT39pNCz7Hj3ckMsbyWR1MBWR9xd6zS+7UgHetleVHHXRkx+Pb1Edjdp37/p/YMqjd+EM8rgRCY/7PD54/bdSjZqKHUO91u08aBjxZ9R/l333Bfz22QdcurL8sYXb4goULf1rU2m1h1F9WV7V67Ke+dK+r16UI578NmcEwo6sEEhf9wck/2LO1zbVW9C+Z/DWHSI56eX7auarvlOzIaDHBv+eL5lbsGBBTG5ubio2kmUe1cYIrlQNl6LXQVhcDbi5RiDGdOXXRy+XpyznC7jxlFKvrnSvNOurGKndPsBnBj5GdVXv8+TEAw9f0aP30z7ooCfGeJyBLY32oJnNvA/fgfkfTRDaKejVXVZ+tAr03A/zdR3JWK3vP3NnwpTHRnE/4mT5Y+tIzj5eXbQaImMruW5Z5Y+lrV7bTS8UzZybovFpWBktO5OH510ZRUJXk7z6HskJgF/OhkJeShLsGd4RCs6eEomLm6/TvgS+NAM2lXyJb8QITX49PGHJcuhr5kaOHJmOjfSNLD/sc9rGKEg5DcfeegAPgQfBwuQgSM03h+k8ZSkHX1bi4msj+X0/7tmLGnzJ69PVw+9WznWPmbW4TMCXLIjH33Y9/PrB2z4F35Zde8DL81f4BHxpufyzJ++1FXwjYirCM9N+Lgdfk/GBD2aZA990DLLwW0ookGvohDfutRN8f8eRyS/Bl9wxm0Mi5xjra/BllsXJ9BLPWsgn0ZdQndEfQdzND2HIuWIYgUEbRAHWtW8yAg95rhxPltNDOWj2zGnPlxyVXIzLzhWr10Cr9oeg14h7FNeOvORrfSH6K36YCjPfGqf4LLeSRP2NpdV10K2K+0o6ciRKVutLTlImjhgIZLDHJln+2HJBwcHKHjUtP6vJKn8sbV/RK+tlZ6qXnp9nnvzIPmtmUhgkY6zxpJkfQuIHz4jExc3XaV/yKxHJLaSTWZr4phhhmUmlyZyTr6fw/9myPOo0Bm7qj4aoDt3hTOM2sOhMIAyqip6ydAjzlKV85qsjMOaWjPxWzvjmogJfOsPbpnsvxaL90v43QrDWgYYF+cm3hue2wqn4gzD1+Udhz7o1Zsi4PavX37QPXv/QU2jF/TZ3j059TkZfeIwe2LIB3ht1i63gS+8Z+sKb5xX4UtjNxmFlZ+1MMjuDzjZEQRZ47UsbjL/hsjOBb84hNJr99EVeEwvzDPTvBWFBwY3Sxjc9/PFgsbSZ0zAwC/9WYjbqJYPGUIqGN8KjSVP/gcAKUYqXLFHkJJ6ylIOvnvTd78nK77mrOkj7ypZpX3kOhQYbZki4PavHX1ydenDV0DuVn0wQDVn5yTKrpVeEcV9///Jj+OW9NyEXj3NZTXr1VWnSLPKO1yYp59f1ktX60grKG4P7eDhQoXfJ8Cfiqc9dD8Jdb3/oum2VPxF9u+lFoYcrAt+gMnCyodaR4vvuRmcbvAiDovr+dS4ENqQHQVHWOdg3Co8coT9/2WTQvn+diy12AAAgAElEQVQhHfHZNs5LygLfpAG4LJhjZHQYr+tz5KZkGTSGW7HYnoOg4dtzlDJ9qxRB2yh35x4iZbFqjVhOjxqIH6LwnqZxUkufZtpXpCPa/NKgVyE6Fjr1GwBXDB6m+Gmm2a9M8qW+UAzdr557BOIxjCC9x2qSkR8tq9O52VZXXKX7Gqv1JfB9C31Apyd7OlaQ4U/EFDk7eerrOa5IR1b5E9G3m15FBN8GCL5l4eFKrWM+xcFG8KX43mwS1fc/tHb+MwWZx7KHXxgKqct/ZosKrw3aNw0LVhQW5twoK3yTWoIuK+YYOTXEa4puji3mngwag30c0lb+insNH0DVYU/BH2cDIRyjgjSt4BiMRMpSDr4eYuRm2C0/eonZ9uUypsn0JT2KYXtJ7+ugy423QLur++jud/L4tFt+Kj1yXLLg40mw6LP3lSAKlG81ycivQduOCGKzgWb+eslqfck719toNEYuMtkkwx9bRr2m8IcUDEINM2iVPxF9u+lRYIU6aNMSUIYzX/J0tR+NrsyAb3xeCCxNdQzlp76fYCf4kugfFsmfl1+W+GY4Ay5L5jjCehvz/qfNt9rZAvAscOOP/oCoS66CYJTCrdUKoRY6KS8t9348vjn1dcuyu/P6Az2jJWienHwNHkbtwOofGVO163ktdMBwgO169oGwiEjuR4MRXV+0BwVQWD/vJ5g9fpziHYySr+VHM/57J30KoeH65/2s1pf2fN8ZNkDxfMYmb/SlKnqce2XhGqhYrbpLTv48HlBIwZrBpR9SUCtz+ow7kFUIKQWeH3Si9j2JTjbmnA4GCoqUsWkFHHyiP8b4LWCbknst0b5k8Sx95res8U0XgMuaOW4LAKzD/MvonkRjCEg4sul8cPNpGyCkWh2ogOfmhlbLg0pBGkUSLJvqEnXeFClf+UzaXXrfv/SMsh/JS962L0vTLnq0lNygTQc8s9tT8VDVtFNXhy76mb7Eb98M019+HmMY/+0ShS/Bl2aNt/7vNRjwqJsTO7YZlGur/WMv1mXiiEFcF6PetC955Xrp1+VQt2Ubr/jjVtaL+vLo0aBdH507V0b/9mURUlDL05GcIjjFmfqK2jelKARmoptJCoqUf+oo7L2zCxSkem4hcOttHE86Hss14pXl5fkDvgkB2B+Y4wnNmZeOnS2avW9lcIlo3QWafrocAnDwiAkshtswcEM0/i/as2TfybsWKV85+HpKi/YkefGSvRlMPd/i3ccaAUu9lm2hRdcrgc6xNr/sCkckHO1Hvx+BL4VQnDP+JVg16zs3C3Mr/UOVpVF70Kz/mW9/1g2ooNKy2j/IPemku27muic14o+nE2oeBYMYM2sRusTspmRZ5U/0Djvp0WpdEzR3jgD0mMzoX5AXHv7MuJdU63kstwiO449NovpmFYfAjxjbNx0tnovzc2H/A1dB1i6KvWOcJNqXGKEtVc+pOIe8v+Abdw/YX5jjyE3JCgkJeb6goGCK9r7VwSVr5wY4/v4zUPuZD4AOg/9yOgBuq1EIFbxQZn9ethJ1jrL6OKjTojVcM/I+t3jJEp1NpBrcfLP0aDZUv017oAAI5BKyeZdurtBz/iY/bYULCwrg968+hnnoTCMrnexQSpLV/kEUZORHe8wyRmZW5bdt+R/wwT23uYJyaOsmw5+bMDQXdAzsyamzzgvwjQgKQPANgGC0Yi9r8D2Nx43MgG9BQDD8jKEF050rzccmPm4n+FKLvo6/8wp8lb7FKqa/g6/K39y5c38qKipSwpLYMbjU/d+nUPn6OxWJ1IkIgiHVi5W9YTPJ6uAiesfFQk8bL9mbwZQnRyN6ZKlbt2VraNjuEiDDIfq/esPGQtDx148rCrn40YMj4NC/njMKO/qHVrYietUbNFK8edGMkpes6vOGRb/AlIfv5EZkMmpfHh9qHq1sPPLJNLh8oCMkq1X+RO+wk15FHIwaIfhiJIQyB98UDLBwAI2uWLQT1bcYJzM/nw6CBHQ1Sens4umQ8OpdIrG55Uu270Ys1EWGoL/hmxvE+BtzrEC1/K1YsQLOnDmTiI1ei31O9lrbuIFhFaDxx0uAlqRx9IUWkcVwQ5y+ow7te0TKV1YzS1YG/s4fhbujeMnLv//KzRWiaLBn68e7Vts3unIcVETn/zXqN4LqjZtC7SbNgfz71mzSzM3FII+GmufP8qMQjK/e2BPInSSb7JAfq+fsO7TX1z3wBAx/ZYLHI1blR/YB018ZzXXWIjk4e/BCGVT27gkfoxeye5X7VvnjEreZXg102VcXXVxZWSbW488KvXOFxbCXzvoyhEXyI2PXBej+d1+WA2poxfHAQ72k4vtKti+5b4sR1VOb74/45gJgf2ROQngk+LP48ziaZNQgvMYNrlwdmk79G0Jr1FeKt8fzwX3wnLDRRFikfOXga9QKjvta+SXu2417l9PgP9zvU+Mlk+tCdVZFjh3Co6KUYyLkpzcyVv1VgojYWCCwjYmrCpVr1oZK1WpC5dq18ShQ+AW7p0+yGz+0P4ZvXOkh7NIGX2KA2uXl+SuV5Xs1Wekf5Jr0h1efh8VfTPaoF2Xw+q+Z+pKXK9VYzAp/XKacmXbRwxVnaIj7vZXwDytgKeKR+LNCjxxt7EHwRQx2S6L6Evj+eTYIdmQ4RtC84/Gw754rgHzzGyUT7TsSaX1vRM9f8U2RjL8ypwrVgL+x+NybRg2gva/XuOENW0HTL1ZBULQj8km76GK4FuMIi0BYpHzl4CvXIuXyQzmhclnVl+0rlyiRpNhkBozYsnr9g32Wd03Rjt74c51yBtpK+5I/5ymPjoINC+fyyHsNvoOffgFuHv2SQtsKf1ymnJl20XPs9wYC+Xa2ApYiHq2Cb5YTfNnTRqL6EvguQycb/55zjJyFGWlodNUD4/vuFLHmyjehf59iIcMzvwb4YcgP+4Cd9ILsJEaMlgG9NfhaOjvQihUU79qocckkPuu/9VCp71C0jA5GE/sAyEDjrMYReNidIShSPquD6f/buxI4KYqr/3Zm74NdjuW+QUTxQkURL1RUFFFjFMXPxHyiRqPGaBK8DQaPqDHxSmLwPuAzQUVRFA9E8MALRFGUG5abXdiLZe/Z7/96p2d7uqv6mJ3Zmd2p+v16d7q6+3XVe6/ev+t6T9EDg1sBRsnIv1cfmEZbVq0M00zmQ6TJqX24oVuxu5h82Kp1wJgTPO+rZ8caD1x8Dn330XvCV7W2fBxj+fypf9JoJ6q+dEtLof2yfdqS3vYKvh8awLcJe9E3/PFc2NUvhTI1ZnqQ7xd47mdOBOOAR05FCrvuKy0tDWWYohB5IsQ3x7GyvIoi3AoJSu9WuHu/WUyb/9LyYfUdhlAWlobDb6I2Xr3aqnzgRBKA+ZqlvC2+JcUbfPWSvPHo/cT7kM2rde0+Tnkh2V1nn0Srv/pM0HpbP+x81jW/T2jw5SHnIRhyHpzlh2er9gu+C0t99E2w54uvHNp875VU+dWHQpkaM93aZzzDY9ijnQjGEY+ciqZd5/KFnNO2Y/DVKzsCPypkNfcgXI3EnnnP045n7g6RW1rho4+CIKzADWxJAnDzAh4yveP8WOpL+a6W+bREAV+ucwCrdZ+96bfNPTjOcNCXtUu/oD+ddTxtW7tKyEqv7ddM5Nzrb6bJt9+rZcdSHqH3OtTXXD4ech6R40eoVJ9WvkTp+fKCK7fDzvxx9VGZj5ZVtvg83/HUn2nP245TtF6mFXgjU08z/8zn7QF8ufOrcaoDgK/Of+wjsqyO9yLcMDnuePKuMOX5CiD8IVzPJupWFC58IhoXI1NV+cANj8bZjn/+9HTtciKBrw6WG75bRu+ylzOH+i6c+YwW0YgdiIhSa8H3nOtvogtuvivEp0Rqv2AN9crwaeCb6YODigQB3xrM+TL4srtIY7Jrvx+X+4g7Knoqfe/lsE6MSLac51G+U/GI7RxLewFfrruvA4Ev1+d1HA/xDz15FK7xUbZq4cMnOF9aHqBFxuFoB+MSTtBMXvmedjLOin8tHBAZvz7DDogq+HLkojvgkjG/sLsd66XXzO3ttYfupu3r1wqNLDsOefme2+ipP1wt3OPLLzHT4zwvHxu80pndY+rPJRL4MuAeAODtBwBmIE4U8K0OhhX0Ar6fAHy/wKEnnsYrmj5Fs6F2yaN854DW3+3otSfw5Xr4ly7FPE2EKUEr+z6qcyKOQR6FK+YCtkNUfPIW5R83gVLzsTIa+rS9Fl+quLsffM3bzWmJCTbnioypAiM7joVfU/wDP2C1ude48tNF7hlnuNPYPrr06q0FULjotnu1CEbd+g6gL950Hx6OyYraG4Msuxs9YdIlYdfLdu6AT+dzaMnrHOpbnET03IIvP8txiM/93S0a8UTTl+4IpMALrTIAwnr5EmHYuYr3+SK4ghfw5Z6vEXx5pTMHWAhUV4kFG8z1KF9ePs12XZoSFI9C5RWVz/P+WZ2aiNiMGTOkzHG6EE16eXl5z9fX1/8K7wyLCem28ZrL2lRXgxCGcyh/zJkA4a7a5S1YHV2DdYqDs1O0r1cvKdGMgbnsqnzgSDsZ2eg9dDgteOFJYm9iXpJu/PxpaXT65dfQdU/M1DyB6fm8laho5QrpnKz5XXbGtGRLEXVCj3rIYUdqj635+nOEEhxPvOdbluzoyZ7R83kv8hUPPUHjLr1Sy0okfUZnF8Drpx5wrqFbDi5fIoBvBcB3NcDX7Zwv7xJZhDlfnprTU+2WtbTu2lMRYKHEVkwe5cvONvrZEYwmfvB72opeC+fsame61laF81CksFsnT55MmZmZg5FZrV+IFHz5eVaWhj27aP0fzqH6XVs040y+VPpmr5/eLvERRmxcp0QyBqJCq/KxwNvPyAYPFU++o3lxkUieojzd+B168ml09/wl2uKkLPi/NhvF/73vUVeewszP8TvN7e3le27XPHUtnPk03fPz06h0x3ZR0bQ8N/RkD7Nv5+ueeIlOvOhS7ZZE0Wc2GQy6B+ci6Asvdw6mRAHf3fDtzHO+bp1ssP1jJxtfG8C3bkcRwPc0qi+Ry5ar7VG+7HTLNrxgouORXfk894DtiIW0ysOPWNEbNmwYrVmzZh38RZ8HJffaSQ3VwKgsvJm84rN3KP/k88mf0+z9rLg+hXahN7wf9gkHR5OktU8UYyAroCofW4f2A766HAejZ9kAV56rvhRv3zHKm/W5L+aNr3z4KeKVwXldu0mnUdjjWCdcX/ruWzKVcW1MG+rqaMkb/6XP5vwnzNWombBH4xz2OHtLu+HZ2XTE6Wdp+YmizzkAXO71Fhp6vXr5EqHny+EENyCsoDnJ+BcA+L4B95Krgu4l+Tn2bsXgW7t1nZlM2HkE8v0jCDwrIxor/NDfF+s1Up4AuL1V9phjjvkec9w1YOapMgHa5YuUpaF8N1V++T4VjLuAfJnZ2uOlCK9VVOPTQBh76IVJpsxqDlnILkum4h9YYvNxcNDxJ1Of/YZrsX9rqsRzb5179KALb51O/3v/49Rz0FBberoAOCrUmq+X0K5NGywyEbUPlpMs1VTtlV3S8r3SMxJj96M3vzxPCxfJKRH0hYO59MtE7Gjs6003fZ1z+RIBfLcDfIs8gG89wPe1Xam0KRhYgXndWFlG6647jWrW23u5ikC+T4I8ezoUpvaGRyIwl8CFtb7tvLIc8f0aa63kOU7KkjUM4er+8UHIZSVT6pZGdEH3AOWmhhuhRDAG8pomhrFS5WvhQGv0hYNaLJ3/Jv342WLaubG5N9Jj4BAA03E08jQsJExt3rZkB+ZmWbCDjJtOOjwsDq9T+zDTcDpvDb1eg/ejqbPepO4DBmmvaQ3/ROWMhB57s2LwTZMEkY83+LKF2lTTiNE76weTrL7VlKZFNdpV38KlxqoKbc5334/2i3kjkO87eMuZInlwXjvHo1C1XAFwB6nsG6j12TKBGvPdKkvOwaNpyKPzyZeVG3o8H+A7qXsTFaQ1K7ZMmVXP140kEsOY2pU0WeTLUYlevPP3Givctg87vkXS3kT0hh5xNP3++VcxVF6oXY63PHi4eQCAN9cwz2ssN5cv3uDbiD0c6xBOsMy82sqGf5VNaTS72EdlmHLTU6BmH62/YQLt/Ya9ActTBPryPagdLKPYQfBIq54jAHekyqK+y3CMlAlWY4jki1X2TN6oU2jQQ2+QjyPuBFOOv0nrCXcDCCfSvkNzHeJtrMzlMZ+r8rFCJsacNEcnmv6zcUI3kSynSJPX9mZ8z5FnnEPX/PN5Ss/EfkCkeOoLr25mhxrd4clKlhIBfOsgqzUAX95uZE4y/u0JpNIr6PmyT3w9NWHV/Yap51HFkvlmMmHnEch3Gwj0kRHtYHhkD8AdrbJBoRbhv3BJewTKopHsdNxZNOi+/1BKWkZIbzLhzPWsLnXUP8Og6AliTLmQssameuYhEdr+SEb+bVn1A905/tgwpxnxAt8JV9+grd5OQdCHeOozz/My8HLMXrveTCKA716A7hrBHl87/hXVpdGbu/1Ua1ij1VRfSxtumQT/CPNs20gE9pRdCefLiHZEPJIuwuqIlQ0Klj2p/A5HS5cVJxEoS0hPaotWU9W3n1LByT8HCGOODV+ZDY0NiJ2ZQhkYiuqVDhBW4CtrV5b8ZAS39jBSkte5m6bHPL/MKR7gyyEOeY8vB1bQ22w89IXXVPUE8LIzjU7+xAdf3ma0Fj3fRktrk3+Mr6hOo7ex1cg4Us3DztzzrYx+z5d9PJ+BY5OgiB1mztdcN+FHWwcGX73+/NnMe4S1FSmtAV8jQ3MOPZYG//UN8mfnQKtbrhyS20TjCn3kd9qnZJYOzuNhXATFkGap8rECJcYwMQsp1vLg+UuOWLRxxTdSnXC6EGl743ne65/6Pxo++vjQK2JdX+1FBvmy4eDtRL0RqFe0wMpc93j3fNkMbcYq5x1Y7SxKIv7xM5/uTaMvK8L7Z7wNc/2NE6nqO/vtbhHKl8PPcXxfS+rIeGTpAXfkyhokyzoGjxp0DpTF8hES6Zd9/c7NVPX1Aso/8RzyZTRvUeLGu7MxDQ3Ap8UU5iErt0nUOJLJ2Gt8SiJwaw/19aG3xwufFr38PPG8sNckaG6uetIDRhxKt73yLvU/8JDQK9uyfaTi45l7vEPR4+2CeV6/1WxYWBFv8OXFVtzrLTH7lQyWVMQ/XhT9Vmk6fV8VDg28/XL9b0+nfT98aamnMSNC+U4HjQdFhDs6HoVxuaNX1iTg5WlpaaVw1MHDHqEUKfgyAVY+9gJT+SmcdZw4Ec468jSPWbiAFYcptK6aY31i7Fu+TiOsHO1hWDIsLokCS5OKyU9Fxq+9fGww8C57bx7tLUVoMA8pQuNMx5w7SVvpzE5D9NRW/EtLTaVemX4aiji9nVPdAS+XMd7gu0+LZhTAwinrYiu9fGb7Uo5FVq+UpNM2dBaMqWHPTm2fb/Xqb22lHaF8HwNRjnBkScmARyEATobKGiXM9R04cOAXq1at2ovGchpfay346vQbykuofNFcyj/hbPJ36hJ6LT5G6QfMC/fGwqx84LIstZVxUQuuZBIIz1fyAD/wcdUEo/7+s0/Qw5dfRGU77d0NmjkbiXH2A/wuvGU6XXLXg8QuJvXUFvLgxcx9stNpP0QrKgDw+lz0eI3li+dWoxLM966pDlgCKtjxbxtcib+6O50qGsPBl91Lrv3NOKrZKPfbzXQjkS8eew7HVXq5jP+TBY+0AdFkqawuYHN958yZc09DQ4PU44pIQYx5MuVL79mfhjz2LmX02y+MBA9Dn9Y1gBig1q/TtjAu7aWnJeKrkywU/8ChGIxErPriM3r+tt/RllUrnURguS6So9PHbpdefei6f8+kYaOOCaMXa/nyPt5CzO92z0zDMLOLoSpTbbl88QJfHnLeCODdLRly5qKK+Pc9OgULytKp0fSRUbdtA6297nSq27reIlNjRiTyxfOv4LhARNhsn0UepETPyfISmZ4/kQvHDG2L8n311Vcf4lUcOWm0TIiyfDvl40UL5QvnUKdjTqfUzs2OApgOz5ytgR9Vbif9sRZb13tR44iFMVU9X5k0w/OVPAg93R30wu030sy7plLF7mJ3jDPcZdc+ZMQ4JvHNL7+tudY0pljJAzsGMa+bormM7IP5oU7paejxti/w5Ri+POTMEY1kycw/XhG9uCyFPqlMpyYT+HJIwbXXnEK8rsUuRSJf0GOnSD8X0W0Le58oUfu4/v7BgweH+NCRvzS4kg7CfRe39MLRHDNNpB2mPDfKF9hXSaXvvUw5I46i9N4DwyhsQ1zhDZgXHoh54QxYAfOcjAJfF0II3mI2Llp2DHqCyfLx0thQTx88N4Me+fXFtP5bezeDMim5aR/GZ/n+idf+ga565GnKysX6CUOKhXxTmxqoB8aah2BhVTf8T0fv148Qe6Jyy+qo58ez5+s05MxlNPOvMpBCrxf7aXUN/OeawHfv1wtp3Q1nRjukoM6qD/BjgoifDvZZ9IhtXnugl3LBBc2jAEkOvkZBvoST/7GVLC6KGikruSzx/uB+t/ybupxpjayVBfA9o3MdDcw0PK/AQ8ZKS77ZuGg3KP5Z+CTLMPKPfy99902aff802r5utewRx3yv7aNzz9509WPP0ojjxlpoR1O+3K8twPqLAl+A8gG42hwcJ/xob+DbAFltxBajPTZDzlw1M/+K8OH/TkkKVcG3sxl898x7gTb/5SpiT1d2yat8g7SW4P8YEd32AJalpaWhokcLL/0jRoygaBHTS9fO6b2GeowIHiJd8Qy+GpFAI5Uvnqv9zB15gnHcOeS0g4eE+sGZFo9+JUtPS2OIAkuNDW6S2Zhqz0SJf2uWfk5PXH8FvfPvh6lyj7cVzsayezXOR44/m26aNZf67n+ghQXRqm8ewLY3hpcHZaVo4JuJXl97Bt9yeMdYXd2IVc4WloVlhH9cEX1ekULv7/FRXYoJfAHmO56eTlsfgb/vRnuiXuUbLNBy/D9KVNpkBV/mRQpXPpHGxBNIGG+DP2FblDSGCVZDspJ7SV0m/JL63fwEpaSiEQTgAMbweD/0gs/q4UdEJS8Um++NlrHS36zoscA7/sfQ1lU/0usP30dfzpujid6rPhs11Uv7YB/OF956N42/4lqhsrdW/7Kwd5fndrulwyMd2i3Ti9cCKWEFTZluyscLrdixhiiKkfkdRv7xDox3Sny0Cb1ffWukfj/3djffeyXteYcH/+yTF/kaKH2H34eKKCeQvRcVz2naUviMXaa5vqGPQLuHZNfMxNp5z1dUTV6pF1osEKHyiehS7pFjadDdL5M/1+D6lKWBfcMMvhMLA9S3xbW0kIYxs7XGyvwCRQ8c6eDgW4Iwg3Mfe5AW/ed5DNA093raCnz7Dh9B1/7zBep3wEFm1dPOI9U/XsVcgG0GfPBvPbkBN2FBJJnxoFeJBVbr0es1+mWWFC+Mf1sxmjwP4KsFUwj6JdCfa6wspQ03nU97ly2SkQrlR2j/eAGBcF1NEuBHGE9F9Y0YgEXEOmhP+jlw8dIIlU+q1Ewvo+9QGvTga9p/bTzM0DjYa+WJBU10RKdAy1CZhFqkxkpCLmLjp+g1cyDR5bFn+zZ68/EHaOFLz1CDYa6vLcDX5/fTKb+8gi6+8y+hKEZmvfHCP57TzQXYdsbBvV2Re8h4gKW5TnbnTuULoNe7tbaJtrtBXrxI5x8PzH1V4aPPylO0nRdm8OVtRutvPNtxjy8/GqH9+xiPYr7NmpIIP7TKy+obEQDLiFnZ7C4nkelNmzaNpk+f/hQ8Zk0x1iZaxiqta08aeN9syj7oaNZyC8MGZDXR+K5NcPguHub2YqwsxAUZih6Ywh2FVqyGTdTV7MXo8b494xFaNOs5qqthV+gtKVr6rFMU0esxaAhd+bd/h/lyNqugG/3joeVOANx8HJ0wWmQXCsEJ3Mzvdzpva3rc692Avb012GbkJun8q0Rv910stCqqgTKbPu6ZDruUXP+Hc6mhdJcj2QjB9z0QPl1EPJHtPZe3LcsX7vBTxC1TXlsWzkVxLLdEu3zDhg2jwsLCuRs2bCiAcmv7hEXGxVIQSYZZmQPVezH3MpPSuvWk7P0PtzxVDheW3+9NIXjDQ8iz8MtujJWFoE2GogfmdEDw3fzj9zTrzzfT01N/Q+uWfUmNDRx4piVFU5+Zqpkehww8+X+m0O+fe4V6DMJojyTJ9C8rLRXzuD7qgWMAXEL2hk9mHmLOBBAbllJZqDK99jrnyxMCRejxbsJ8rzEakaWShgydf6vhY+CNXT445BCD7563X6SNt15I7KfAKZntFd9vlq+AxlvIO1OQ36bgJnq/U1608cOJnrXLZVNCJ2I2jwovtTd6c+a8emtDQ+AeYWVcZDopc5czLqG+N/8LgRyaA4ybSQ5DMIfT4UGLfUnLjFVH7LkxH1R9wQSPHwerv/pMm+Nd/sE7Gv+c9M+sb07nbuhxr/fXf59B+x99nC05Xb48pJwNYOX52zysUcyHU4z0YMxfWwKmi+0VfLn9FmNb0VaAr1vg5apzfavxYfXhbh/9CM9WWjL1fDmO77bHbqbi/7L7ZefkRr4CKi8jb7IgX4Fv586WBc+u19q2N7CMxYIwgO+9UCzuPtwvUjC7PDfKzKsQq9f/QIPuf4XSew6wkOMv2621Pjq1c4AGZ4SvnvZqnI3EFbiBGx7BLVH5x4ESln/4Ls3759/oxyWLQ8V0o38WhbPJcKLHcXsnXvdHOvu3U4l/ixLjA/dis31NlIVZyuwMvwa8GnzgT3vblyuqoyhP9nFQk+KnIixXlgVQENHiPKa3vqqR3gP47sWImZZM4Fu/a4vW6636/gsZmbB8J/lKiDyJ/CtF1xR+WMFXF5OIX2F5inkW5rED8X/gcOWvzqsypxZ0owHTZ1LeqFOssuGVFdi6dAB6w6cAiDEq12HAw1pZ1fPVeOLi42BfRTkt/s+L9O7Tj9OuTRvCWOlV/0RyMOY50ePe7pQHHqc+ww6wkOKhY9IHiOkAACAASURBVJ6/5YPncoEe7XaYWMQHS4VNGSLwbcAiq+0NPvR8nZ62Xq/H3PCi3Y20HIutQrPEJvDd+81i2njbZOKoRm6SqF5cbofE9lC4n0zhhwU/QqwMfi7JWauYJ2Xer8A1/uKzHUWIUJkpBUNRva65l7pPvgEGOCimIPjqLS0/FQu0ugWoX3bk7vMSdcEQa6TqmYMJDuC74btl9OGLT9Mnr86iuup9loYcqf5ZCAUz7Ojl5Hemi26/m07CfK/5vq5YodwHc7fc49WTCIySqefLkFbSEKDt9T4MqzmaYotIttU00du7AlTKc716MoIv7MWulx6k7f+6A5Gs7J1rhB4XLAR1Ab7T8fydlgIiQ+GHFD80dtlKXTHPnnngXyccRTgMm3lb1NBshPiKC2VuIcCEEdKw/53PIrYwXmVy2sHSY6A+PK+JjsOWJa037DIpcAOjHMDNjpXx5F99bQ19/sZseg+hAdcv/1pazGjon5G4jB4vsjrp4sto0i13UV6Xlpi9/CxvxR2EhVNdENLPmJIdfDlowmbM89aQ3/KxIhVo8EId9hQtLiNaXo4NStr+omAygC/7oC+6+3Iq+/BVJ3Itj3sHX56O+y2Of4leovDDET/kAKyY58w8g9JxyJC+RiWUGSuRojrlZQ4+kAbe9RJlDjIM6Rm/dEEgF73hEwDCohCHZvrxBA9zWUTnqnzgiuDjoGZvJbYRPUrvPf1PuIosEbEulBdN/WOiMnrDRo2hS+/5Gw08eKSlPBhlpgMQT1cbajakZAZfnt9lT1Z7MXQcyYLJtVgH8gG8hFbWo0drHBU22IOadd9jvvciqtn0k0UmsgyZfGX3I78Cx9k4FonuUfjhDj/CW0aQk4p57phnUjzuihzBeREos0iHQ3lMz5eeST2n3EaFF2FI2o/ehMmjjX7zEOwbHtcF+4YByKKkwI0F1P72+RatXEEPT5lEOzeuF4k1LC8W+md+aUGPXjT5jntpzM8uEuo7GxYG31yDNyqmkazgWw3g3QrgLeWlzRHoH3uxWrAnhVZXgYmCkTDNHiDtfuMp2vrw7ylQY52OMMtQP49AX7bh2T4yego/3OOHBYAV89wzT6CAb0KZzzLns9GJNJkbR96ok6nfHc9QWqFU/4l7HmPym2gUvGgZOx8KfCGFCIyfLrt48W/H+rV019ljXcXjNesLlz2a+peRnQPfzddpYQMzc3Klat0X8728X9eYkhF8qxHWcTuAt7iuqbnD6lH/2P/GN5U++gTerOo41q8EfBvKirUh54pP2YW9+xSBvkj9OvNbFX54w48wRxyKed6YZ1bzsWPH/t/mzZt7wNCM0q9F0/gxzdqt66kUjjsyBw6njP7DzEXQznlaaBM84KxFrOEe6U2Uh4/jeIGHsICCTFU+MEVgnJkvD116nqvQgBEYU4EkWrKM9NiF5IkX/Yquf+plOnL8REpNN3mFMVDihVZDsjG3achLNvCtwXawon11tAHbirBDqDkJ5GsngJ3w4cwxe1dgX28jI7EEfCu/eJ/W3zCBqld9Y0fOci0CfWHvVsdaCAUzFH54x49QG1HM8848oyIa+TdnzpwbGxsbH4TR8bAsKlyt3TQOzXHHTf8kX2a2rE1oC6gPy22kMbn1iAhjuM2jMTC+QIEluNFG/Fv27lv00K9C8UBs5GwUbvNt0fr4G3H8WJp8+3004KDDhMPN5kL1h6eYnoYVgckEvrUAym21jbSzup53WLUkD/oCt8+0uNRH31YighNTMO1+0IiCXgCON7b/41Yqnv148z1mQdicu7EvpsefwvkVMpIKPyLDD63VKuZFxjxdGSX8Ow/XX8Ihdmsl02Tke2kcmQMPoAF/fpGyhh0mphhsvJmQ9GgMSx+Wi2FpnkLugL6OmQEd7ePg8at/QUte/69YtsFcL/piS8hEb/jo4+m839+qebFyqy9sUEbm+TEN0vxBkCzgWwXg5WAJu7FEOdKtfdzJ5d7uJ2UptI8jF3GSgG/NhlW0adovqHrtCjciDbvHo77wN8CfcUyTvUhi/2S3O+YnEz0tHnBpaWmIKbHwINVBoyRpPHPBP96m1M9R64I3eGwc2lMpaRnU+zf3UOGF2BFgdNsnaLxd07Baupufhso7zdKidjRwk1Y0eCER6vu7o/cnDqIgS5Hoi4wW5zO9/Y4cTefdeDsdeOyJnnv6vOL54Nzmma1kAF8OlsDAW4bFVa3Rl3VY3fxRaQrt0T1ZsTAE7Zf3He367+O0/Yk7iV1Lek0e9YVXOv8Sxxuy97iwf7JHhfnJRi/lggsuCDFCga9QJ6SZHpSF505OlRIKXvDYOCzkcg4eTf1umUG8bUnYePmjOrh6ekBmE43tEqDu8LfrJrXGuIjoK3rgiothySlDu1JN1V4RCz2NlAgJmDKHjBxFP7vxNjrkxHHNV1yUz0y3GxxuDM7ya2DUXgMhiNqhsZ4cHnAP/DXvxMKqKl4YhRSpPnPAhIUA3g3VwR6v/iIB+NasX0mbH/iNa3eSZtmI6sXllqRVyB8uuaZle7B/dmRC15KRXgiAFfi60pHWKMtf8PBUHKaW1kzSY+OQFjYlNQ1blX5HvS6/jVJSDT54DeCrP8xZHODhJGxbypOEO+R7IzUuskIqes1a4GZY99qRA6l0x3YLK6OlL0yY9/JOuPoGOuyU8S2gHgH4Mi2OWNQfiw06IvjWAax4NfNODDMbAyVEos/ss5nj9H6HIWcLBprAtwkrqYv/+yhtf3J6RL1elotHfeEe77kWpTNkJCNYxmKkWNs8psDXTtWs1yJUvptB6TMcL+AI85zlsXFYC2TI0RrrzL9SxaLXqe8fH6Pcw5uHEUX7hvnbdxWGvtbh6/sIbFka3cnqTSsS42JXQEUP3PEAbn33P9ACwNHQF6Yx8tQz6ezrptLgw7B93dgR8lA+i6y1nq/VSUR7DqzAzjN2AHRL0es19xe96jMD91L4bf68AtuKjF6sdEaawLdqxRLa8sC1VL1hpYXVbjM86At7trodh22wmQjtn7S4yUwvVYGvVC+EF1qpLHNBtADHDzgwTuz5y1RYJmOm3thqt6yldb87k7pOvIx6XXc/+XOF3jK1R9kofFHuox+qmuhoeLw8FAu12H+CV+PiVDhFjwXubQHcyFPPohWLFoRY68GYCsWRmpZOx5w7Sevx9h0+IuIFQyLiLN9ajjWcatjdiPq2R/CtR112A3B3ocdbw6ujBMmLPnMb+w77eT/HrGqVvsDKTNMAvo1VFbTzqT9T8WtPUBN/0ESYPOgLu1Zjb362E8uttH+WWiQ7PR6FjDglO/Na+fEyG43jfDPzuVFHmmSNLa1bL+r7h0cpf+zPXJHOxnD0EblNNDKnLjzShEfwML7Mi7FyU8hkocfzvzccPVxzwiGTrxt+depaSKf88goa96urqKB7j5h9XGWhZ31QcBEWf2y0J/DluV1eTFUC0C3nRVU2jHWrfwyd3+/FcDNWNrM3K2kygG/Fkvm05aHfUv3OLZqcIk0e9GUp3nGk03uUvY/+bhkbjbAXhxJG64TBi9+wX/g2DNfdBU5rXYZYN7aCcZOoz/UP2nrR0qQeNAYcp/XwPMIRIPal72bOUqQ1bo2V6FlRXrLR+/qdufTI5Rda9MONvvQ74CAaf/m1dOzPJ1NaRmZQvE1R7/nqW2/YoByKbUhpWA3dHsCXN8rzSuYSjAfvAehKOrthauhG/1wDr6G91e/aStsem0plC+eE5CTSfzd5HsD3CdC72ommsvets/cy/kUEwDJiTkKUXU9menPnzj2xrq5uJhq13LekjHHBfA+NjXxZOdTjl1Op8OIbyZch2KJsmoPiV3Cgh6MKUukwzBGbXPs6lCzxhrE3//g9LZz1DP3w8UIq3ryJavdV2fYs2fViYb8BdNAJJ2sRf3jY1i65Mc52z5uv6fQWznyaXrgdPn6Dw5F24JuWnkFHnXUenXLpFbT/UeGOi2JVPmN3sT+iH/XOShfy1Vw/8zmXry0WcNWk+LGSmQC6AfFcrLlgwXMn/vFQ87d7fZjSsRlqNtJGfQPVlVQ86++0a+bfQj6c7eQrKVoo26U94C1GHL/3RSd6yWyfmTetHOm0XS3uGYCVMKL/JTR79mzeiz0Lsp7s1BjM1102NvNjlNa9L/W6ajqxNy3uBWhJAL7amu3g1iUemj4SPWJesMX+pp2Sk7Fyet58vTX06utq6aU7/0gLXnwSWylbVr944R+7Y+Rh3EvuepB4LtWcWlM+My0+N9Nbs/RzehF12LhC7HKw5+ChdPIll9MJF/7CEhZQRE97J+QY7ZGN7LQ0OgT+T12oSFi1Ywm+PJDLPV0eYi6Hg7r6Jq+ls8rDyL9G1PYHrGjmlc28wtlVQnur+HiuFjyhbvum0CNtAL5f4mVHuymjsvfRt/dGvxguNaVZVEoYsRUGuMyb3v+BQ+7l3tBqvICHrLFljziK+tzwd8rBf5mv2RBAB4nkAIhHAoh5sRZc/gqTGTy0m2Jg7N2AB4PvAxdPpJWfLgora6T8G3HcWJo6680wEG7L+q5b9iX98MlHtKtog1afwv4D6aDjTqIhhx8l7XW2ZfmYr6JgDEJFCWbGAnxrsSOgggEXi6k4ChEPC7vRF1E5ZfyroTT6tspHyytd9niDxKt/WgbgvZGqvv007HUxBl9mwV9x8I4Mx6TsfcztvfuPVCWM2AvD0CK4VY6xayGRgoeQJrxndT1tMvX8zd2U1qVn8y38aSYJeajT4F4w7yM+Oj9A3QwOPWTGKtrGzy29Z266jha8MCOs6q3l32mXXY04uA9rNBOtvmYZx6N87AR9uCAcoblsOv+iNey8D5O45fWYz62tR8xcw0KqKH/8lWJB1fJ9qbRirz9sT7Cofsa8hrIS2vn03bSbVzcHwlc3xxh8uYs9iNXVqYx8Xdn7trH3rnrAShhtIwxTw7gX5+y4w9LHbC14mBugTs+f04l6XHoTdbvgGkrJgK9KfWja/IDgvA98fhyFoenBWVhL2oitKMZmHmXj56UnzXO+t4wbFfGws6CqWhYPR9+34GvqM+yAmC1oCr07jvwz198LmPMHGscEZveUstTanm81AJd7uRUYXq7E/3qcR+qLWVRGY31ZpTcjytgyBEnYUJdGTR7aB7uNLH75Edrx7H3UVG31bBZj8J2JomOuyV1S9r7t7L3FuJtFpITRdsIw8Z43f7ITdB6W7qxfixX4Mn02EpVffUh75qO9olecvT+i3yBog5tUiY/5nxAs/Cf8aML8WiHCIGp2N87g8cajf6G1S3nKqzlFi39sMHkemBdnJcrHhllOXsDS/Kzo3Cs9nmnnvbSZsDIiEI4EfBlw2Q0kO8bYhDi724NbhvCTGnlBUww+/rBOi36Cs5r5JX76GluKSgMY7nEJvuwYp3T+LNp022QqW/AKNt1j5ZcpxRB8eaHVFTimmd8pO1f2vm3tvfzTFBJSwmhbYcgaBfJfxnFhtMBDf48TvYy+Q6nHlNup8+mTKcXn8K1mWsCFiHRYiBOgQ/JTqbNLf9PG+ns19jLeTT3xMNq6+kftslN9ZTRk+bwi+t73vmi5HOePjVjwT6fZWnl0gY/oPhm+EBC7AV92gMG+ljmeLkcb2offQdfLFpG0tnxmgkyvtKYR0YmaHWgwwGsTdg7TMiF+YXiZ43bveOZuqkMMb07R1j8Hep/glceb62V3rux929t7KQArYbS9MOwaR3p6+rn19fWP4R72VqOlGH45hxUlc8Bw6o6h6c7jLxYDscPq6R5YMHwowPjAnCaCHXZM0TSmejADB2PlWCbzDUwvMzeP/v3DtuZLCnzNLBKed8K4dD6+5bKxJCodPOOwhQ3QH/aBWIvZln2BFEewNROOpr4wwK/Zh61E5Y20Gb3e0EyKW/DFCvuyha/R9hl/otpNHM8gqB6CHnOM2i9Kr42c2bqTNPNQ2fv42HuhOVTCiI8wzI1CP9fl8fHHH1NxcfFjgUDgN2i8vM4lohQpGHGUpZ5T7qSCkxEgXjcoDuBrLCA6QDQci7YOxOrpvoY4EcZ7omlMme6U/bpRrSCaUDSMX1ZeJ3ri+61xH2aPJf+iLY9EpbezDh6rsI1oJeZ3a9idpmkNg2PPl7cUfToPwDuNqlcvD2uXkbY3WeO2ofcRnjlJ9pwsX9n7+Nl7CwArYcRPGKIGIpEHgy9/Xg8VPWOXZ9N47R4Lu5Y9/HDqecU06jTmDNdbl8zEOS7xiBxC7NgmbGVqtnaxMM43jR1J29b8FPb6aIAvE+RACfe8/0XUt7a4Xd1t5mks+BeLOVUzuMWrvjyszMFIliM4wi6emvXwMRnivQa8b2s9XjPw8j3RaG9GOUvosR/nG3C8ZNYJp3OJfXF6THpd0fOGH2ETe4p53phn1sI25B8jFg9H8wcUb1dymKBtLqmk8Zqr4XheX7KdSt/7Py3iEi/Wyhx0YPNiLbfDdHhDNYYaN/GKUkSFKUZMVB+scl5KA/4bEui11jjv3IigFN98HSIaLfBlgmPOu5AOPdkQws+Rcy03KLAEL6IgX69gzp6q1kHvPinz0Xu7fbQWw8xVPL/rEXx5cVU5XEYW3T1F82DVsHuHRfrRam86YQm92biOTfz0naUADhltaK8cSiK+nAzlC/WAk6GyRjF3sPryMt9RYjVuzpU0XrtHbK8Z6aV17UldzplChZOuI39+V9vnhBeDxo/XW/fPbKJhmCsemoXVs2nwpiSYOxPSMGQawW3rqpV0+xljNBeO0QRf3oZ07wdfab1gr0mBLzjWhuDL87oc8J57uwy4ljCAHsCXoxTtees52gXXkfU7N0tFL9LbaOofXrwN9K7Bf3wFe08dzP45MiBR66v1nBK1cDpXVfkce+ZPgldlOHjVo8VHYqyNQQD7GvcuW0wlrz5BDXt2okd8AMIfctRFF8lg/LgjUgo3fmwkl1WlY4uJjzgPbqhd+6A2g1unboVaJKH1y1t6wS5KFXaLiH/j/vcqOmHSL7ySUk47mGNtAL7c010PPVqCMJvz93CozeaRFssqapfgy6M+7K950x0XU/miNygAIJYlkb5EEXwDPp/v6S5duozdt29f+NyKrECmfGVPHe2pLSejyb+UaBLjUit6cRcuh1I5V9egGBsD7TVm48J7hwvGXUDdEfAha/+RcmV2afzYocMA9Iz3R894P/SM0yXLz8zgq70Yz2LRGj14yTlaAAavScS/EcfDFeVLb5IfPo+9JFn5WjvM7nUYVlbm9l4+Bt2Ndj1dc8Vd6N8+uIwsnvkQlX34arODGTMN07lIX8ztw4FE2GUjPQDvF9gNMbq6utoLibB7lX2Ou30Oly+HxdNTLKM+RKIxSlkiVhaGqOVovAeb+R4tY6DTdaKXe8RY6nbeVZR/wtmUYgxg4ML4mcvO5xyNqS/AeABWUQ+E163u6O/zPIoTeDTU19HMaVPpg+dnhCIKiegb88zGVAvGcOmVdMmfHlDg68A8J3k4PG65LKNX0ZRGRbUptA7Dyxsxt2vp4VooBTNs9E+b3108FyM6/8LIziIZBUu+WV/4Bqf2YSFiyDDQ25qamnr7ueee+xwHbok0KXsasT3VWB4L/qXoAKzA15tax0IYiIgUKkRr5XHGGWfQBx98cFlDQ8N9INqdCUfJGITK6IWeP68zFZxyPhXCzWXmYIT0C0Sw1UMgIl5B3Rdet/qn19MQRFfMQQxjLUmGObdgTvijWc/SisULqAThCDngvSjpxi8zJ5e69e2vebway+EI1ZyviF1heTKwjEZPn1cuM+AWoae7sS6VKgKS4RC7UkrAt3bLetr91vPaHG9D6S47CpZrMQLfar/f/3iPHj2mTpgwgYxRdCwFcMhIdHuVrOXTALi1xj5ZmafrfCLzj/cOl5SUPAAg/i3KK9l9a996o21ccrCNqcvZl1HnUy/S4hNrXViXHoYsJTUYUyZTiB4x94wHZKdSP7izdrU83EA0luAReo3k48BSN0FGspUvAA9YO2saMLTsA/ASbUEvl9cFRENfmAy7Xy3/ZB7tnvs0VX6NKQrWJ48p2u2D6WG4eV52dvZZ48ePV/bZozzaEx5pc8Dqy8q9hNuTcLlWpo+D/yKrZc7BRbVjYVz01/pz8+HU43zqet6v7eeKZeWU9GR048xzxT3RO+6TwQdRbwxdZzBKS1KygVsi1pd7uNvQw90GsN1aQ7QD7iDrjEGDovSxVrPxR81HM/d26xGhKNIUg/axPCMj44iJEydq3xmJ/HGvyudda8z4YWOOnImbiSllceaZ8Y448Q/eM+hvOIY7lTYGxsXySn0YO/vAUdTljEsoH162eFuTY3IAX9nzBalN1Btg3BM95b6Z7ueQZfRk+YkIbsayJkr5yrDqfSvAdgc8UW2tgUMM/Nf6oBHKVyYPple/awuVfzSHSt+dRft+XKrdquuf9DmbC1FuHzvT0tLuPPbYY2cUFhZqb1X21Ib5gktxsqeCkoizROWLGIBFxFRPWsx4UW4C8I97whzyUOhNK8rGRbifV2j84Ngj56DR2nxxwbhJYjCOonHOQi+5V3qAeqU2UFf0lrthy1M+QJq3H0djzjIk+ySnx6BaDocrxZj6L65LoR0AXe7pVmv9PFOKonwbK/ZQ+cdvwWnGK1T5+fthK5mF+mcui+Q8iu2jEq/4Z+/evW8G+IbepsBXwnhJdgLYU0nJmrNl5YsIgGXEbEtgc1HRi+vqvCshmjtwhII8RNG4aFKPlB5HYMo+6GgNjDufdhGldsZasigaZ61wAnq80rogw089MF7dDTuN2G1mN/SYuffslBKlZykrZ1uUrxZs2h1IpT0NPiqBi8edtT54OyOrAwxRIQXy8LpGoLGyVAPdsg8ZdN9DnEIO9RCeEgB8efXfPwoKCm6eNGkSRXMBprKncbWnZlWzXT3tGYCVcNuPcC2aYJ9xPS7fArDsYb4tAYwVpaSmUd6ok7VAEPnHT2xx9BGlOcFQnW3ocW+5O3rJDMj5COvEPeVOWIXdCb1mvtYW4CZb3W2Wmeg8muXjudoyxOUtq22kcgwjV2AT7m7u4eKoITAkAg9moo8ht+CrgS4cZJR9MBsxrReEerqRfvyJ+Md5UaCHAIeaG9lbmJ6ypx3Wnmoq5CRfTwDsREx7o4ek6CWW8g0ePJiKiopubGxsnAoxakCcCOCrq5Ru/LhnnLXfIZR75MnU6bizKOdQDN15NfhR6GkZVT09BUAMX9YaKOPIQzeaf3NPOjeV4+A2ufbmpfM9XoEQeC8t++rmWLwMrhrA4ndF8Hc5OpR1fFOUtpJpfIxAHjXrVyIQwltU+eUC2rv8Y6xoxgSyIUUBLKNJjwv3HI5f60SV/Uss+xcPebgG4HgULkz7HU5U+aKnzEuWLKEdO7bd2tAQ+APY3tmB9cLLbWn8UgsKKfeIE6nTsRMo/7gJ5O/URVimUGYExt6WoEt6HAuZgTjTl0JZAGfuNTef83/EF0ZvOht5KUF6GcE9zRwzl4fF2cNYJvZVaZ10HLpHMPZtzFOpPEBeC+DkxPjIcXY5YSExsLJBu2cf/tQ0opeK7T01KWlU09Q8D1sNcOU8jsfLHqVsk8v62tIwXnRJj+dzK7/6UOvhcgSi+mKEgpSkttQ/SRH0bAvw8gVlr6Jnr5if7XXO3BUAK2VJamW5Dfp9LQ4XS5ObbU48jZ82bzziKIRKHE95o8dTNrvCxMKuUHJp7FsecPil6EVtH3eI0/o0AHjLriArPp9PlUvm074fvqKmgHFPklg28dQ/Q4l4jvcZHDy1E5aUPU1qexqmC44ArJRFKUtQY36J/zw0DTdW8pQgxi9UQF92HuUAkHmYmsE455Ax5M/p1FIB3dh7HcJmCgp8owq+gZp9VL3mW6pasYT2fvcZVX23hLjX6yUlgP7tRHmfwDFNVG5lT5U9NeqFLQArZVHKIjAijF4zcZxlvpYAxs9cpLBzLh/3kDP6D9OAOPvg0Ri6HkvpvQbaPie8qMC31eDLQ8jVPy3VgLYKgMu93UAdvG9EmOKsf2tQ7H/geERWfGVPlT0164YUgJWyKGUxK4vgfBbyeD8xpimtqpSIC7iMddDLl95nMOUCkDlyU+aQg7UFXqkF3QTVDWYp8PUMvg1lxejdrqCadSsAuss0wK3bvjGMx+1FX0yKsQDnD+F4R64was63vc7R2snUeC1SvLRaTVCNlJissIpexwVz+Kulurq6P2Pl9HWQfygIcDs1piEV5uARHNc4e/gRCB5xIH4fSFnwYe1Lz4z76l9ZO9Py4/xxwJGEaovWUM2GldqxDz3cmg0/Ut3W9aFit+ePtWAleD3b2zgm2soieFHZv45r/1jErZGvBYBbQ0ykjIpecigfB33YvXv3tQj6MAXge5hIF9zkJbJx1lYhDxhGWYMPwjD2fpTWsz+l9x6kHWk9+mmrlD2lOIOlY1kl5eNsHj6u27ZR68XWbUdUqU2r0Lv9HuC72jZubiLLl/nhUL4i3MILq+5y5F3wBmX/ksP+6frgtacfBsBKWZSyuDUsfJ+DvvBClMk4DCue7Kk7GD/7hwVX25Iegy+DcHqvAdqccnpvHPifweBc2Fsb0uYFYaEkAbdoRfnR3sOtO4IoU4F9lQjHV6z5Tq7dtoHqtzPIFlHdjk0436jlNwm8SwlEEJbVlvJwKovouqR88OFFb+J4CoftMLOZpkP7MN/ueK7odTz7HAJgJdyOJ1xji46jfC9DOa7AMdrOwkiMn90jttcSkV5KWjql5nclf34XSuvU/J/3MOt5/vxuGlCnpHPUSOz9zWse0edhb18Ghr6RfIgglYJtVewZzJeVq+UxYDZh8RJv0QnsrWjOq63B3l9gB+bmGyvLkNeEe2qpAZF/Git2U0P5Hu23dl6Oc+Q1ch5+s0OLROSfVrFgaoPyrcFIztN43f3G97r9Hcf25qqIqnyJYe81AFbCSAxh6C2nA8vjL6jjFBxhK5zawJgmpEcvo6Vs73PmNBKsPgAABJZJREFUdla/Hcm3FnF430pNTX2qpqZmvqjcdvVMgvYrrH4Htlcxr69PMU+Br1DLJJmt1JebQZZjrf0PDh7WqxUZOQVGEuYLshX/Wu0utQmguwSgewPCAGZOmTLl/NraWgW+Al0TZbXSHlhIJhu9VBWFY4ZFCdxmJJuyRLG+vH1pVs+ePXnh1mWBQOA8HKciL12Br1vtc1ww5J5Q8M4kA/OVAN1Xs7Ky7hw/frzGAa8LaMwMjmL70Egreh2/cxRatqmUz9yc7M9V44ha4+BVpc8sXryYdu7cyd62eF/x6TgQCNB9SjLwUHO0UI0IPtZW4rHZGRkZ0y699FIVAnCG6ny4tTCxsveak1wFvm7F0HxfrIShlyIZ5QHw5eq/gIP3ViL6Ll2K4y0c1mCuOqOC/xX4RgRGIS52cP4x6PK2IV7vwm5UFfh2jtrHs6ZDyWivZkTp4yVVMS9kh1z9UODbZo2XwZgPTrySmscJeZg65OyDL3Rw8NAqb0yqvo4fG7Xg18c4eMvQ38z8U+23zdqvmfXC82SXR9g+YCGHbDKTnXnq48VGOQSXoqgvN4H8RIDRMfhvCHXkaJwFpWrJUuDWbvm3AVJ8H8cHOGbLhBxF/dNeoegpMJfpmihfpC8RA7CIWLS65Vx4BW4iEcrzklEer732GlVUVEyGG8wJWMR1BuYEHQIBy/mnwLddgS9HbPgEBwOuq326ydg+1ALbxJ/jjgiAlTKrLz85lFmvtIW+sLGZPVvr/NyBY0zwcOWFS4FvwoNvAz6uvoFMF+Ng0J1v1TJ5Tlvon+p8yPlvvqLk0YIfngFYMU+Br7lB2Z0ngL5cg/IxIB+Ho7+5rAp8ExJ82SHGUsjmE7/f/3FeXt5bJSUlZtG5Ok8A/bMtpypfcttTTwCslCW5lcXWkgguJqi+8CrrY3EcBwM/Cv95xXUoRbC1JfSsAvOIwXw7mLg0NZUdYqTf17dv36aRI0eqaSijYrr4naDtLVRyVT4rfrgGYMU8K/NctAmlfEEOJOKc/rx589gRSArmkK/HHPJh+H8IinsQDk97kLmKCnxdgS/iKNE6HDyczMdyHFqAA2VflH1hPXCbOoq+uALgjlLZZBOuqq+YAy71+RI8zftGDwz+H4T/YSuudeoKfIXgy73aH3DwPlw+eEUMA7AluZSH5TlZhqKnwFymG6L8eOqLIwDHs3AiZpnzVPlUYzPrhN15FPRlEugPxTGE/wN8+Xdv4zuTaBh7D+q9HvVdg//cs12L43kjL5x+R0EeYa9Q9JQ9cNI54/V464stAMe7cE6MVOVTjc1JR9qisS1dupTdaFJDQ8MZcOTfC+/kxV589MXB5xyAgg9hD1ovY4L1pDmG4Q4cxTiKcGxOS0vbhjJuhg/l17Ewis455xxSq3916Tn/V/ZK2SuzlkgBWCmLUhazstidK33xpC8c8PdsHJ2DRwFW+3bFb/bylY0jE3PSndCz5Llo3krFwYCzcOiJ85uDAbfk8d7Yav0UQFmH31UIB8x5iDpFFY2NTRxcnoG1PPiff5cafr+tP2/+r+TrSb5m9qk5buX+0qITnPH/paDmn97xfkMAAAAASUVORK5CYII=;" parent="1" vertex="1">
          <mxGeometry x="70" y="697" width="250" height="250" as="geometry" />
        </mxCell>
        <mxCell id="4vHGeXPCpyXIEonWAy2c-5" value="" style="endArrow=none;dashed=1;html=1;dashPattern=1 3;strokeWidth=6;rounded=0;" parent="1" edge="1">
          <mxGeometry width="50" height="50" relative="1" as="geometry">
            <mxPoint x="100" y="717" as="sourcePoint" />
            <mxPoint x="100" y="467" as="targetPoint" />
          </mxGeometry>
        </mxCell>
        <mxCell id="4vHGeXPCpyXIEonWAy2c-6" value="" style="endArrow=none;dashed=1;html=1;dashPattern=1 3;strokeWidth=6;rounded=0;" parent="1" edge="1">
          <mxGeometry width="50" height="50" relative="1" as="geometry">
            <mxPoint x="280" y="717" as="sourcePoint" />
            <mxPoint x="280" y="467" as="targetPoint" />
          </mxGeometry>
        </mxCell>
        <mxCell id="tyc39nEVvEfqpYTTPG5T-1" value="Vertical Container" style="swimlane;whiteSpace=wrap;html=1;" vertex="1" parent="1">
          <mxGeometry x="-520" y="400" width="270" height="430" as="geometry" />
        </mxCell>
      </root>
    </mxGraphModel>
  </diagram>
</mxfile>
